<?xml version="1.0" encoding="UTF-8" standalone="no"?>
<!-- Generator: Adobe Illustrator 17.0.0, SVG Export Plug-In . SVG Version: 6.00 Build 0)  -->

<svg
   version="1.1"
   id="Layer_1"
   x="0px"
   y="0px"
   width="750px"
   height="500px"
   viewBox="0 0 750 500"
   enable-background="new 0 0 750 500"
   xml:space="preserve"
   sodipodi:docname="login_add_user.svg"
   inkscape:version="1.1.2 (76b9e6a115, 2022-02-25)"
   xmlns:inkscape="http://www.inkscape.org/namespaces/inkscape"
   xmlns:sodipodi="http://sodipodi.sourceforge.net/DTD/sodipodi-0.dtd"
   xmlns:xlink="http://www.w3.org/1999/xlink"
   xmlns="http://www.w3.org/2000/svg"
   xmlns:svg="http://www.w3.org/2000/svg"><defs
   id="defs5552" /><sodipodi:namedview
   id="namedview5550"
   pagecolor="#ffffff"
   bordercolor="#666666"
   borderopacity="1.0"
   inkscape:pageshadow="2"
   inkscape:pageopacity="0.0"
   inkscape:pagecheckerboard="0"
   showgrid="false"
   inkscape:zoom="1.1935962"
   inkscape:cx="365.28265"
   inkscape:cy="235.00409"
   inkscape:window-width="1848"
   inkscape:window-height="1016"
   inkscape:window-x="72"
   inkscape:window-y="27"
   inkscape:window-maximized="1"
   inkscape:current-layer="Layer_1" />
<font
   horiz-adv-x="1000"
   id="font1678">
<!-- Copyright 1992, 1994, 1997, 2000, 2004 Adobe Systems Incorporated. All rights reserved. Myriad is either a registered trademark or a trademark of Adobe Systems Incorporated in the United States and/or other countries. -->
<font-face
   font-family="Raleway-SemiBold"
   units-per-em="1000"
   underline-position="-100"
   underline-thickness="50"
   id="font-face2" />
<missing-glyph
   horiz-adv-x="500"
   d="M0,0l500,0l0,700l-500,0M250,395l-170,255l340,0M280,350l170,255l0,-510M80,50l170,255l170,-255M50,605l170,-255l-170,-255z"
   id="missing-glyph4" />
<glyph
   unicode="A"
   horiz-adv-x="612"
   d="M424,212l72,-212l93,0l-230,674l-105,0l-229,-674l90,0l70,212M203,280l66,195C282,516 293,557 303,597l2,0C315,558 325,518 340,474l66,-194z"
   id="glyph6" />
<glyph
   unicode="Æ"
   horiz-adv-x="788"
   d="M89,0l108,238l207,0l30,-238l322,0l0,73l-247,0l-30,241l240,0l0,72l-251,0l-26,215l287,0l0,73l-422,0l-308,-674M226,308l87,197C328,541 344,579 356,611l4,0C362,577 368,534 372,502l22,-194z"
   id="glyph8" />
<glyph
   unicode="Ǽ"
   horiz-adv-x="788"
   d="M89,0l108,238l207,0l30,-238l322,0l0,73l-247,0l-30,241l240,0l0,72l-251,0l-26,215l287,0l0,73l-422,0l-308,-674M226,308l87,197C328,541 344,579 356,611l4,0C362,577 368,534 372,502l22,-194M488,827l-92,-117l71,0l127,117z"
   id="glyph10" />
<glyph
   unicode="Á"
   horiz-adv-x="612"
   d="M424,212l72,-212l93,0l-230,674l-105,0l-229,-674l90,0l70,212M203,280l66,195C282,516 293,557 303,597l2,0C315,558 325,518 340,474l66,-194M348,827l-93,-117l72,0l127,117z"
   id="glyph12" />
<glyph
   unicode="Ă"
   horiz-adv-x="612"
   d="M424,212l72,-212l93,0l-230,674l-105,0l-229,-674l90,0l70,212M203,280l66,195C282,516 293,557 303,597l2,0C315,558 325,518 340,474l66,-194M181,817C183,758 219,711 304,711C390,711 428,758 429,817l-51,0C373,791 354,768 305,768C256,768 239,794 233,817z"
   id="glyph14" />
<glyph
   unicode="Â"
   horiz-adv-x="612"
   d="M424,212l72,-212l93,0l-230,674l-105,0l-229,-674l90,0l70,212M203,280l66,195C282,516 293,557 303,597l2,0C315,558 325,518 340,474l66,-194M276,824l-102,-114l71,0l64,69l2,0l63,-69l74,0l-105,114z"
   id="glyph16" />
<glyph
   unicode="Ä"
   horiz-adv-x="612"
   d="M424,212l72,-212l93,0l-230,674l-105,0l-229,-674l90,0l70,212M203,280l66,195C282,516 293,557 303,597l2,0C315,558 325,518 340,474l66,-194M217,719C246,719 265,742 265,770C265,798 245,820 218,820C189,820 168,798 168,770C168,742 188,719 217,719M402,719C432,719 451,742 451,770C451,798 431,820 403,820C375,820 354,798 354,770C354,742 373,719 402,719z"
   id="glyph18" />
<glyph
   unicode="À"
   horiz-adv-x="612"
   d="M424,212l72,-212l93,0l-230,674l-105,0l-229,-674l90,0l70,212M203,280l66,195C282,516 293,557 303,597l2,0C315,558 325,518 340,474l66,-194M160,827l128,-116l71,0l-92,116z"
   id="glyph20" />
<glyph
   unicode="Α"
   horiz-adv-x="612"
   d="M424,212l72,-212l93,0l-230,674l-105,0l-229,-674l90,0l70,212M203,280l66,195C282,516 293,557 303,597l2,0C315,558 325,518 340,474l66,-194z"
   id="glyph22" />
<glyph
   unicode="Ά"
   horiz-adv-x="615"
   d="M427,212l72,-212l93,0l-230,674l-105,0l-229,-674l90,0l70,212M206,280l66,195C285,516 296,557 306,597l2,0C318,558 328,518 343,474l66,-194M70,674l-8,-155l52,0l35,155z"
   id="glyph24" />
<glyph
   unicode="Ā"
   horiz-adv-x="612"
   d="M424,212l72,-212l93,0l-230,674l-105,0l-229,-674l90,0l70,212M203,280l66,195C282,516 293,557 303,597l2,0C315,558 325,518 340,474l66,-194M185,788l0,-55l239,0l0,55z"
   id="glyph26" />
<glyph
   unicode="Ą"
   horiz-adv-x="612"
   d="M359,674l-105,0l-229,-674l90,0l70,212l239,0l71,-208C471,-23 436,-70 436,-119C436,-175 473,-205 529,-205C554,-205 589,-198 610,-182l-14,45C584,-143 568,-147 551,-147C521,-147 500,-128 500,-95C500,-59 539,-16 555,0l34,0M203,280l66,195C282,516 293,557 303,597l2,0C315,558 325,518 340,474l66,-194z"
   id="glyph28" />
<glyph
   unicode="Å"
   horiz-adv-x="612"
   d="M424,212l72,-212l93,0l-230,674l-105,0l-229,-674l90,0l70,212M203,280l66,195C282,516 293,557 303,597l2,0C315,558 325,518 340,474l66,-194M308,878C246,878 208,837 208,787C208,739 247,699 308,699C366,699 407,738 407,788C407,838 369,878 308,878M307,842C336,842 355,818 355,789C355,760 336,736 307,736C278,736 259,762 259,787C259,816 276,842 307,842z"
   id="glyph30" />
<glyph
   unicode="Ǻ"
   horiz-adv-x="612"
   d="M312,692C366,692 402,725 402,769C402,813 369,848 313,848C255,848 221,812 221,769C221,726 256,692 312,692M311,729C285,729 268,747 268,769C268,792 283,812 310,812C338,812 355,793 355,770C355,745 338,729 311,729M366,952l-106,-86l77,0l143,86M424,212l72,-212l93,0l-230,674l-105,0l-229,-674l90,0l70,212M203,280l66,195C282,516 293,557 303,597l2,0C315,558 325,518 340,474l66,-194z"
   id="glyph32" />
<glyph
   unicode="Ã"
   horiz-adv-x="612"
   d="M424,212l72,-212l93,0l-230,674l-105,0l-229,-674l90,0l70,212M203,280l66,195C282,516 293,557 303,597l2,0C315,558 325,518 340,474l66,-194M232,715C235,742 242,759 258,759C273,759 286,750 305,740C327,729 345,721 366,721C413,721 435,755 434,818l-47,0C385,786 376,779 360,779C345,779 329,788 313,797C292,808 275,817 253,817C210,817 184,776 185,715z"
   id="glyph34" />
<glyph
   unicode="B"
   horiz-adv-x="542"
   d="M76,2C105,-2 151,-6 211,-6C321,-6 397,14 444,57C478,90 501,134 501,192C501,292 426,345 362,361l0,2C433,389 476,446 476,511C476,564 455,604 420,630C378,664 322,679 235,679C174,679 114,673 76,665M163,606C177,609 200,612 240,612C328,612 388,581 388,502C388,437 334,389 242,389l-79,0M163,323l72,0C330,323 409,285 409,193C409,95 326,62 236,62C205,62 180,63 163,66z"
   id="glyph36" />
<glyph
   unicode="Β"
   horiz-adv-x="542"
   d="M76,2C105,-2 151,-6 211,-6C321,-6 397,14 444,57C478,90 501,134 501,192C501,292 426,345 362,361l0,2C433,389 476,446 476,511C476,564 455,604 420,630C378,664 322,679 235,679C174,679 114,673 76,665M163,606C177,609 200,612 240,612C328,612 388,581 388,502C388,437 334,389 242,389l-79,0M163,323l72,0C330,323 409,285 409,193C409,95 326,62 236,62C205,62 180,63 163,66z"
   id="glyph38" />
<glyph
   unicode="C"
   horiz-adv-x="580"
   d="M529,91C494,74 440,63 387,63C223,63 128,169 128,334C128,511 233,612 391,612C447,612 494,600 527,584l21,71C525,667 472,685 388,685C179,685 36,542 36,331C36,110 179,-10 369,-10C451,-10 515,6 547,22z"
   id="glyph40" />
<glyph
   unicode="Ć"
   horiz-adv-x="580"
   d="M529,91C494,74 440,63 387,63C223,63 128,169 128,334C128,511 233,612 391,612C447,612 494,600 527,584l21,71C525,667 472,685 388,685C179,685 36,542 36,331C36,110 179,-10 369,-10C451,-10 515,6 547,22M400,829l-92,-117l71,0l127,117z"
   id="glyph42" />
<glyph
   unicode="Č"
   horiz-adv-x="580"
   d="M529,91C494,74 440,63 387,63C223,63 128,169 128,334C128,511 233,612 391,612C447,612 494,600 527,584l21,71C525,667 472,685 388,685C179,685 36,542 36,331C36,110 179,-10 369,-10C451,-10 515,6 547,22M399,713l103,114l-72,0l-63,-70l-2,0l-64,70l-74,0l105,-114z"
   id="glyph44" />
<glyph
   unicode="Ç"
   horiz-adv-x="580"
   d="M529,91C494,74 440,63 387,63C223,63 128,169 128,334C128,511 233,612 391,612C447,612 494,600 527,584l21,71C525,667 472,685 388,685C179,685 36,542 36,331C36,130 154,13 319,-7l-42,-77C324,-89 355,-100 355,-127C355,-148 336,-157 313,-157C291,-157 272,-152 257,-144l-14,-45C260,-199 288,-206 314,-206C366,-206 417,-183 417,-125C417,-84 384,-57 347,-50l23,40C452,-10 515,6 547,22z"
   id="glyph46" />
<glyph
   unicode="Ĉ"
   horiz-adv-x="580"
   d="M529,91C494,74 440,63 387,63C223,63 128,169 128,334C128,511 233,612 391,612C447,612 494,600 527,584l21,71C525,667 472,685 388,685C179,685 36,542 36,331C36,110 179,-10 369,-10C451,-10 515,6 547,22M327,828l-103,-114l72,0l63,69l2,0l64,-69l74,0l-105,114z"
   id="glyph48" />
<glyph
   unicode="Ċ"
   horiz-adv-x="580"
   d="M529,91C494,74 440,63 387,63C223,63 128,169 128,334C128,511 233,612 391,612C447,612 494,600 527,584l21,71C525,667 472,685 388,685C179,685 36,542 36,331C36,110 179,-10 369,-10C451,-10 515,6 547,22M361,720C389,720 410,744 410,770C410,796 389,820 362,820C333,820 311,796 311,770C311,744 333,720 361,720z"
   id="glyph50" />
<glyph
   unicode="Χ"
   horiz-adv-x="571"
   d="M546,0l-210,346l205,328l-100,0l-92,-158C324,473 307,442 288,402l-3,0C267,438 248,472 223,516l-89,158l-101,0l198,-333l-206,-341l100,0l81,148C241,207 260,243 279,282l2,0C302,243 324,206 359,149l86,-149z"
   id="glyph52" />
<glyph
   unicode="D"
   horiz-adv-x="666"
   d="M76,2C120,-3 172,-6 234,-6C365,-6 469,28 532,91C595,153 629,243 629,353C629,462 594,540 534,595C475,650 386,679 261,679C192,679 129,673 76,665M163,601C186,606 220,610 265,610C449,610 539,509 538,350C538,168 437,64 251,64C217,64 185,65 163,69z"
   id="glyph54" />
<glyph
   unicode="Ď"
   horiz-adv-x="666"
   d="M76,2C120,-3 172,-6 234,-6C365,-6 469,28 532,91C595,153 629,243 629,353C629,462 594,540 534,595C475,650 386,679 261,679C192,679 129,673 76,665M163,601C186,606 220,610 265,610C449,610 539,509 538,350C538,168 437,64 251,64C217,64 185,65 163,69M342,712l103,114l-72,0l-63,-69l-2,0l-64,69l-74,0l105,-114z"
   id="glyph56" />
<glyph
   unicode="Đ"
   horiz-adv-x="671"
   d="M-2,307l83,0l0,-307C125,-5 176,-7 239,-7C369,-7 474,27 537,90C600,153 634,242 634,353C634,464 599,543 539,598C480,653 390,682 266,682C197,682 134,676 81,667l0,-290l-83,0M348,377l-180,0l0,226C191,608 225,612 270,612C454,612 544,513 543,352C543,166 443,63 255,63C222,63 190,64 168,67l0,240l180,0z"
   id="glyph58" />
<glyph
   unicode="∆"
   horiz-adv-x="620"
   d="M25,0l566,0l0,50l-232,624l-99,0l-235,-625M118,73l141,384C276,504 294,560 304,594l3,0C319,551 340,491 357,444l137,-371z"
   id="glyph60" />
<glyph
   unicode="E"
   horiz-adv-x="492"
   d="M425,388l-262,0l0,213l277,0l0,73l-364,0l0,-674l379,0l0,73l-292,0l0,243l262,0z"
   id="glyph62" />
<glyph
   unicode="É"
   horiz-adv-x="492"
   d="M425,388l-262,0l0,213l277,0l0,73l-364,0l0,-674l379,0l0,73l-292,0l0,243l262,0M302,827l-93,-117l72,0l127,117z"
   id="glyph64" />
<glyph
   unicode="Ĕ"
   horiz-adv-x="492"
   d="M425,388l-262,0l0,213l277,0l0,73l-364,0l0,-674l379,0l0,73l-292,0l0,243l262,0M130,825C132,766 168,719 253,719C339,719 377,766 378,825l-51,0C322,799 303,776 254,776C205,776 188,802 182,825z"
   id="glyph66" />
<glyph
   unicode="Ě"
   horiz-adv-x="492"
   d="M425,388l-262,0l0,213l277,0l0,73l-364,0l0,-674l379,0l0,73l-292,0l0,243l262,0M291,710l102,114l-71,0l-63,-69l-2,0l-64,69l-74,0l105,-114z"
   id="glyph68" />
<glyph
   unicode="Ê"
   horiz-adv-x="492"
   d="M425,388l-262,0l0,213l277,0l0,73l-364,0l0,-674l379,0l0,73l-292,0l0,243l262,0M223,824l-103,-114l72,0l63,69l2,0l64,-69l74,0l-105,114z"
   id="glyph70" />
<glyph
   unicode="Ë"
   horiz-adv-x="492"
   d="M425,388l-262,0l0,213l277,0l0,73l-364,0l0,-674l379,0l0,73l-292,0l0,243l262,0M163,721C192,721 211,744 211,772C211,800 191,822 163,822C135,822 113,799 113,772C113,744 133,721 163,721M348,721C378,721 397,744 397,772C397,800 377,822 348,822C320,822 299,799 299,772C299,744 319,721 348,721z"
   id="glyph72" />
<glyph
   unicode="Ė"
   horiz-adv-x="492"
   d="M425,388l-262,0l0,213l277,0l0,73l-364,0l0,-674l379,0l0,73l-292,0l0,243l262,0M258,721C286,721 307,746 307,772C307,798 286,822 259,822C231,822 209,798 209,772C209,746 230,721 258,721z"
   id="glyph74" />
<glyph
   unicode="È"
   horiz-adv-x="492"
   d="M425,388l-262,0l0,213l277,0l0,73l-364,0l0,-674l379,0l0,73l-292,0l0,243l262,0M119,827l127,-116l72,0l-93,116z"
   id="glyph76" />
<glyph
   unicode="Ē"
   horiz-adv-x="492"
   d="M425,388l-262,0l0,213l277,0l0,73l-364,0l0,-674l379,0l0,73l-292,0l0,243l262,0M139,788l0,-55l240,0l0,55z"
   id="glyph78" />
<glyph
   unicode="Ŋ"
   horiz-adv-x="658"
   d="M158,0l0,288C158,400 156,481 151,566l3,1C188,494 233,417 280,342l218,-348C491,-77 451,-115 371,-131l18,-68C517,-180 582,-105 582,38l0,636l-82,0l0,-282C500,287 502,205 510,115l-2,-1C476,183 437,254 387,333l-216,341l-95,0l0,-674z"
   id="glyph80" />
<glyph
   unicode="Ę"
   horiz-adv-x="492"
   d="M447,-138C432,-144 418,-146 403,-146C376,-146 357,-132 357,-106C357,-69 398,-27 440,0l15,0l0,73l-292,0l0,243l262,0l0,72l-262,0l0,213l277,0l0,73l-364,0l0,-674l292,0C332,-24 288,-71 288,-125C288,-177 323,-206 380,-206C410,-206 437,-199 460,-185z"
   id="glyph82" />
<glyph
   unicode="Ε"
   horiz-adv-x="492"
   d="M425,388l-262,0l0,213l277,0l0,73l-364,0l0,-674l379,0l0,73l-292,0l0,243l262,0z"
   id="glyph84" />
<glyph
   unicode="Έ"
   horiz-adv-x="561"
   d="M494,388l-261,0l0,213l277,0l0,73l-365,0l0,-674l380,0l0,73l-292,0l0,243l261,0M7,674l-7,-155l52,0l35,155z"
   id="glyph86" />
<glyph
   unicode="Η"
   horiz-adv-x="652"
   d="M76,674l0,-674l87,0l0,316l326,0l0,-316l88,0l0,674l-88,0l0,-282l-326,0l0,282z"
   id="glyph88" />
<glyph
   unicode="Ή"
   horiz-adv-x="722"
   d="M145,674l0,-674l88,0l0,316l325,0l0,-316l88,0l0,674l-88,0l0,-282l-325,0l0,282M7,674l-7,-155l52,0l35,155z"
   id="glyph90" />
<glyph
   unicode="Ð"
   horiz-adv-x="671"
   d="M-2,307l83,0l0,-307C125,-5 176,-7 239,-7C369,-7 474,27 537,90C600,153 634,242 634,353C634,464 599,543 539,598C480,653 390,682 266,682C197,682 134,676 81,667l0,-290l-83,0M348,377l-180,0l0,226C191,608 225,612 270,612C454,612 544,513 543,352C543,166 443,63 255,63C222,63 190,64 168,67l0,240l180,0z"
   id="glyph92" />
<glyph
   unicode="€"
   horiz-adv-x="513"
   d="M479,94C456,81 410,61 357,61C303,61 253,80 216,119C189,149 169,192 161,250l283,0l0,49l-290,0C154,306 154,311 154,317C154,331 155,346 156,359l288,0l0,50l-279,0C175,462 195,507 225,536C259,572 303,591 357,591C402,591 444,578 469,563l20,66C461,644 415,661 356,661C274,661 209,631 158,578C118,537 88,479 76,409l-66,0l0,-50l59,0C68,345 67,330 67,314C67,309 67,304 67,299l-57,0l0,-49l62,0C81,178 106,120 144,78C194,20 266,-11 347,-11C413,-11 465,10 496,31z"
   id="glyph94" />
<glyph
   unicode=""
   horiz-adv-x="530"
   d="M466,83C443,71 402,57 353,57C303,57 263,71 227,106C209,124 195,149 188,178l250,0l0,49l-260,0C177,239 177,248 177,257C177,264 178,275 179,286l259,0l0,48l-249,0C194,365 210,392 230,412C265,446 309,460 353,460C401,460 434,448 457,436l20,62C451,511 413,526 354,526C285,526 216,502 165,451C135,421 113,380 102,334l-64,0l0,-48l57,0C93,273 92,261 92,251C92,245 93,238 94,227l-56,0l0,-49l63,0C110,131 132,89 162,59C210,11 275,-11 341,-11C402,-11 455,7 478,22z"
   id="glyph96" />
<glyph
   unicode="F"
   horiz-adv-x="487"
   d="M76,0l87,0l0,305l255,0l0,72l-255,0l0,224l276,0l0,73l-363,0z"
   id="glyph98" />
<glyph
   unicode="G"
   horiz-adv-x="646"
   d="M589,354l-222,0l0,-70l137,0l0,-201C484,73 445,65 388,65C231,65 128,166 128,337C128,506 235,608 399,608C467,608 512,595 548,579l21,71C540,664 479,681 401,681C175,681 37,534 36,333C36,228 72,138 130,82C196,19 280,-7 382,-7C473,-7 550,16 589,30z"
   id="glyph100" />
<glyph
   unicode=""
   horiz-adv-x="646"
   d="M589,354l-222,0l0,-70l137,0l0,-201C484,73 445,65 388,65C231,65 128,166 128,337C128,506 235,608 399,608C467,608 512,595 548,579l21,71C540,664 479,681 401,681C175,681 37,534 36,333C36,228 72,138 130,82C196,19 280,-7 382,-7C473,-7 550,16 589,30M291,715C294,742 301,759 317,759C332,759 345,750 364,740C386,729 404,721 425,721C472,721 494,755 493,818l-47,0C444,786 435,779 419,779C404,779 388,788 372,797C351,808 334,817 312,817C269,817 243,776 244,715z"
   id="glyph102" />
<glyph
   unicode="Γ"
   horiz-adv-x="451"
   d="M76,674l0,-674l87,0l0,601l274,0l0,73z"
   id="glyph104" />
<glyph
   unicode="Ğ"
   horiz-adv-x="646"
   d="M589,354l-222,0l0,-70l137,0l0,-201C484,73 445,65 388,65C231,65 128,166 128,337C128,506 235,608 399,608C467,608 512,595 548,579l21,71C540,664 479,681 401,681C175,681 37,534 36,333C36,228 72,138 130,82C196,19 280,-7 382,-7C473,-7 550,16 589,30M238,827C240,767 276,721 361,721C447,721 485,768 486,827l-51,0C430,801 411,778 362,778C313,778 296,804 291,827z"
   id="glyph106" />
<glyph
   unicode="Ĝ"
   horiz-adv-x="646"
   d="M589,354l-222,0l0,-70l137,0l0,-201C484,73 445,65 388,65C231,65 128,166 128,337C128,506 235,608 399,608C467,608 512,595 548,579l21,71C540,664 479,681 401,681C175,681 37,534 36,333C36,228 72,138 130,82C196,19 280,-7 382,-7C473,-7 550,16 589,30M329,827l-103,-114l71,0l64,69l2,0l64,-69l73,0l-104,114z"
   id="glyph108" />
<glyph
   unicode="Ġ"
   horiz-adv-x="646"
   d="M589,354l-222,0l0,-70l137,0l0,-201C484,73 445,65 388,65C231,65 128,166 128,337C128,506 235,608 399,608C467,608 512,595 548,579l21,71C540,664 479,681 401,681C175,681 37,534 36,333C36,228 72,138 130,82C196,19 280,-7 382,-7C473,-7 550,16 589,30M362,720C390,720 410,744 410,770C410,796 390,820 362,820C334,820 312,796 312,770C312,744 333,720 362,720z"
   id="glyph110" />
<glyph
   unicode="H"
   horiz-adv-x="652"
   d="M76,674l0,-674l87,0l0,316l326,0l0,-316l88,0l0,674l-88,0l0,-282l-326,0l0,282z"
   id="glyph112" />
<glyph
   unicode="Ħ"
   horiz-adv-x="657"
   d="M636,479l0,58l-57,0l0,137l-88,0l0,-137l-326,0l0,137l-87,0l0,-137l-57,0l0,-58l57,0l0,-479l87,0l0,302l326,0l0,-302l88,0l0,479M491,377l-326,0l0,102l326,0z"
   id="glyph114" />
<glyph
   unicode="Ĥ"
   horiz-adv-x="652"
   d="M76,674l0,-674l87,0l0,316l326,0l0,-316l88,0l0,674l-88,0l0,-282l-326,0l0,282M292,824l-102,-114l71,0l64,69l2,0l63,-69l74,0l-105,114z"
   id="glyph116" />
<glyph
   unicode="I"
   horiz-adv-x="239"
   d="M76,674l0,-674l87,0l0,674z"
   id="glyph118" />
<glyph
   unicode="Ĳ"
   horiz-adv-x="609"
   d="M76,674l0,-674l87,0l0,674M453,230C453,98 407,63 330,63C300,63 274,69 256,76l-13,-71C265,-4 304,-11 337,-11C453,-11 540,44 540,223l0,451l-87,0z"
   id="glyph120" />
<glyph
   unicode="Í"
   horiz-adv-x="239"
   d="M76,674l0,-674l87,0l0,674M159,827l-92,-117l71,0l128,117z"
   id="glyph122" />
<glyph
   unicode="Ĭ"
   horiz-adv-x="239"
   d="M76,674l0,-674l87,0l0,674M-4,823C-3,763 33,717 119,717C205,717 242,764 243,823l-51,0C187,797 168,774 120,774C71,774 53,800 48,823z"
   id="glyph124" />
<glyph
   unicode="Î"
   horiz-adv-x="239"
   d="M76,674l0,-674l87,0l0,674M85,824l-102,-114l71,0l64,69l2,0l64,-69l73,0l-105,114z"
   id="glyph126" />
<glyph
   unicode="Ï"
   horiz-adv-x="239"
   d="M76,674l0,-674l87,0l0,674M28,721C57,721 76,744 76,772C76,800 56,822 28,822C0,822 -22,799 -22,772C-22,744 -2,721 28,721M213,721C243,721 262,744 262,772C262,800 242,822 214,822C185,822 164,799 164,772C164,744 184,721 213,721z"
   id="glyph128" />
<glyph
   unicode="İ"
   horiz-adv-x="239"
   d="M76,674l0,-674l87,0l0,674M121,721C148,721 169,746 169,772C169,798 148,822 121,822C93,822 71,798 71,772C71,746 92,721 121,721z"
   id="glyph130" />
<glyph
   unicode="Ì"
   horiz-adv-x="239"
   d="M76,674l0,-674l87,0l0,674M-25,827l127,-116l71,0l-92,116z"
   id="glyph132" />
<glyph
   unicode="Ī"
   horiz-adv-x="239"
   d="M76,674l0,-674l87,0l0,674M1,788l0,-55l239,0l0,55z"
   id="glyph134" />
<glyph
   unicode="Į"
   horiz-adv-x="239"
   d="M163,674l-87,0l0,-674C58,-27 28,-74 28,-123C28,-179 66,-209 121,-209C146,-209 181,-202 202,-186l-14,45C177,-146 162,-150 143,-150C114,-150 92,-132 92,-98C92,-62 118,-21 133,0l30,0z"
   id="glyph136" />
<glyph
   unicode="Ι"
   horiz-adv-x="239"
   d="M76,674l0,-674l87,0l0,674z"
   id="glyph138" />
<glyph
   unicode="Ϊ"
   horiz-adv-x="239"
   d="M76,674l0,-674l87,0l0,674M26,711C56,711 75,735 75,762C75,790 55,813 27,813C-1,813 -23,790 -23,762C-23,735 -3,711 26,711M212,711C241,711 261,735 261,762C261,790 240,813 212,813C184,813 163,790 163,762C163,735 182,711 212,711z"
   id="glyph140" />
<glyph
   unicode="Ί"
   horiz-adv-x="309"
   d="M145,674l0,-674l88,0l0,674M7,674l-7,-155l52,0l35,155z"
   id="glyph142" />
<glyph
   unicode="Ĩ"
   horiz-adv-x="239"
   d="M76,674l0,-674l87,0l0,674M43,715C45,742 53,759 69,759C83,759 97,750 116,740C138,729 156,721 177,721C223,721 245,755 244,818l-46,0C195,786 186,779 171,779C155,779 139,788 123,797C102,808 86,817 64,817C20,817 -6,776 -4,715z"
   id="glyph144" />
<glyph
   unicode="J"
   horiz-adv-x="370"
   d="M214,230C214,98 168,63 90,63C61,63 35,69 17,76l-13,-71C26,-4 65,-11 97,-11C213,-11 301,44 301,223l0,451l-87,0z"
   id="glyph146" />
<glyph
   unicode="Ĵ"
   horiz-adv-x="370"
   d="M214,230C214,98 168,63 90,63C61,63 35,69 17,76l-13,-71C26,-4 65,-11 97,-11C213,-11 301,44 301,223l0,451l-87,0M219,824l-102,-114l71,0l64,69l2,0l64,-69l73,0l-105,114z"
   id="glyph148" />
<glyph
   unicode="K"
   horiz-adv-x="542"
   d="M76,0l87,0l0,257l64,74l222,-331l103,0l-263,388l244,286l-108,0l-206,-253C202,399 184,375 166,349l-3,0l0,325l-87,0z"
   id="glyph150" />
<glyph
   unicode="Κ"
   horiz-adv-x="542"
   d="M76,0l87,0l0,257l64,74l222,-331l103,0l-263,388l244,286l-108,0l-206,-253C202,399 184,375 166,349l-3,0l0,325l-87,0z"
   id="glyph152" />
<glyph
   unicode="L"
   horiz-adv-x="472"
   d="M76,0l375,0l0,73l-288,0l0,601l-87,0z"
   id="glyph154" />
<glyph
   unicode="Ĺ"
   horiz-adv-x="472"
   d="M76,0l375,0l0,73l-288,0l0,601l-87,0M179,827l-93,-117l72,0l127,117z"
   id="glyph156" />
<glyph
   unicode="Λ"
   horiz-adv-x="609"
   d="M590,0l-232,674l-104,0l-229,-674l91,0l153,465C282,509 292,550 302,592l3,0C315,551 325,511 340,464l156,-464z"
   id="glyph158" />
<glyph
   unicode="Ľ"
   horiz-adv-x="472"
   d="M76,0l375,0l0,73l-288,0l0,601l-87,0M260,504C321,508 389,538 389,611C389,644 369,672 349,685l-65,-14C301,656 318,634 318,610C318,571 281,551 243,545z"
   id="glyph160" />
<glyph
   unicode="Ŀ"
   horiz-adv-x="472"
   d="M76,0l375,0l0,73l-288,0l0,601l-87,0M347,320C375,320 396,344 396,370C396,396 375,420 348,420C319,420 297,396 297,370C297,344 319,320 347,320z"
   id="glyph162" />
<glyph
   unicode="Ł"
   horiz-adv-x="476"
   d="M455,0l0,73l-288,0l0,256l134,96l0,69l-134,-97l0,277l-87,0l0,-337l-84,-61l0,-68l84,62l0,-270z"
   id="glyph164" />
<glyph
   unicode="M"
   horiz-adv-x="804"
   d="M661,0l85,0l-42,674l-111,0l-120,-326C443,263 419,189 402,121l-3,0C382,191 359,265 331,348l-115,326l-111,0l-47,-674l83,0l18,289C165,390 170,503 172,587l2,0C193,507 220,420 252,325l109,-321l66,0l119,327C580,424 608,508 631,587l3,0C633,503 639,390 644,296z"
   id="glyph166" />
<glyph
   unicode=""
   horiz-adv-x="804"
   d="M661,0l85,0l-42,674l-111,0l-120,-326C443,263 419,189 402,121l-3,0C382,191 359,265 331,348l-115,326l-111,0l-47,-674l83,0l18,289C165,390 170,503 172,587l2,0C193,507 220,420 252,325l109,-321l66,0l119,327C580,424 608,508 631,587l3,0C633,503 639,390 644,296M367,824l-103,-114l72,0l64,69l2,0l63,-69l74,0l-105,114z"
   id="glyph168" />
<glyph
   unicode="Μ"
   horiz-adv-x="804"
   d="M661,0l85,0l-42,674l-111,0l-120,-326C443,263 419,189 402,121l-3,0C382,191 359,265 331,348l-115,326l-111,0l-47,-674l83,0l18,289C165,390 170,503 172,587l2,0C193,507 220,420 252,325l109,-321l66,0l119,327C580,424 608,508 631,587l3,0C633,503 639,390 644,296z"
   id="glyph170" />
<glyph
   unicode="N"
   horiz-adv-x="658"
   d="M158,0l0,288C158,400 156,481 151,566l3,1C188,494 233,417 280,342l214,-342l88,0l0,674l-82,0l0,-282C500,287 502,205 510,115l-2,-1C476,183 437,254 387,333l-216,341l-95,0l0,-674z"
   id="glyph172" />
<glyph
   unicode=""
   horiz-adv-x="658"
   d="M158,0l0,288C158,400 156,481 151,566l3,1C188,494 233,417 280,342l214,-342l88,0l0,674l-82,0l0,-282C500,287 502,205 510,115l-2,-1C476,183 437,254 387,333l-216,341l-95,0l0,-674M295,824l-103,-114l71,0l64,69l2,0l64,-69l73,0l-104,114z"
   id="glyph174" />
<glyph
   unicode="Ń"
   horiz-adv-x="658"
   d="M158,0l0,288C158,400 156,481 151,566l3,1C188,494 233,417 280,342l214,-342l88,0l0,674l-82,0l0,-282C500,287 502,205 510,115l-2,-1C476,183 437,254 387,333l-216,341l-95,0l0,-674M370,827l-92,-117l71,0l128,117z"
   id="glyph176" />
<glyph
   unicode="Ň"
   horiz-adv-x="658"
   d="M158,0l0,288C158,400 156,481 151,566l3,1C188,494 233,417 280,342l214,-342l88,0l0,674l-82,0l0,-282C500,287 502,205 510,115l-2,-1C476,183 437,254 387,333l-216,341l-95,0l0,-674M364,705l103,114l-71,0l-63,-70l-2,0l-65,70l-73,0l104,-114z"
   id="glyph178" />
<glyph
   unicode="Ñ"
   horiz-adv-x="658"
   d="M158,0l0,288C158,400 156,481 151,566l3,1C188,494 233,417 280,342l214,-342l88,0l0,674l-82,0l0,-282C500,287 502,205 510,115l-2,-1C476,183 437,254 387,333l-216,341l-95,0l0,-674M257,715C259,742 267,759 283,759C297,759 311,750 330,740C352,729 370,721 391,721C437,721 459,755 458,818l-46,0C409,786 400,779 385,779C369,779 353,788 337,797C316,808 300,817 278,817C234,817 208,776 210,715z"
   id="glyph180" />
<glyph
   unicode="Ν"
   horiz-adv-x="658"
   d="M158,0l0,288C158,400 156,481 151,566l3,1C188,494 233,417 280,342l214,-342l88,0l0,674l-82,0l0,-282C500,287 502,205 510,115l-2,-1C476,183 437,254 387,333l-216,341l-95,0l0,-674z"
   id="glyph182" />
<glyph
   unicode="O"
   horiz-adv-x="689"
   d="M349,685C169,685 36,545 36,331C36,127 161,-11 339,-11C511,-11 652,112 652,344C652,544 533,685 349,685M345,614C490,614 560,474 560,340C560,187 482,60 344,60C207,60 129,189 129,333C129,481 201,614 345,614z"
   id="glyph184" />
<glyph
   unicode="Œ"
   horiz-adv-x="894"
   d="M857,73l-292,0l0,242l261,0l0,73l-261,0l0,213l277,0l0,73l-322,0C502,674 481,677 456,680C431,682 403,685 368,685C174,685 36,554 36,332C36,139 154,-11 363,-11C395,-11 421,-8 446,-6C470,-3 492,0 512,0l345,0M477,73C455,65 416,60 379,60C221,60 128,172 129,336C128,501 220,614 371,614C419,614 451,608 477,599z"
   id="glyph186" />
<glyph
   unicode="Ó"
   horiz-adv-x="689"
   d="M349,685C169,685 36,545 36,331C36,127 161,-11 339,-11C511,-11 652,112 652,344C652,544 533,685 349,685M345,614C490,614 560,474 560,340C560,187 482,60 344,60C207,60 129,189 129,333C129,481 201,614 345,614M384,829l-93,-116l72,0l127,116z"
   id="glyph188" />
<glyph
   unicode="Ŏ"
   horiz-adv-x="689"
   d="M349,685C169,685 36,545 36,331C36,127 161,-11 339,-11C511,-11 652,112 652,344C652,544 533,685 349,685M345,614C490,614 560,474 560,340C560,187 482,60 344,60C207,60 129,189 129,333C129,481 201,614 345,614M220,830C221,771 257,724 343,724C429,724 466,771 467,830l-51,0C411,804 392,781 344,781C295,781 277,807 272,830z"
   id="glyph190" />
<glyph
   unicode="Ô"
   horiz-adv-x="689"
   d="M349,685C169,685 36,545 36,331C36,127 161,-11 339,-11C511,-11 652,112 652,344C652,544 533,685 349,685M345,614C490,614 560,474 560,340C560,187 482,60 344,60C207,60 129,189 129,333C129,481 201,614 345,614M310,827l-103,-114l72,0l63,69l2,0l64,-69l74,0l-105,114z"
   id="glyph192" />
<glyph
   unicode="Ö"
   horiz-adv-x="689"
   d="M349,685C169,685 36,545 36,331C36,127 161,-11 339,-11C511,-11 652,112 652,344C652,544 533,685 349,685M345,614C490,614 560,474 560,340C560,187 482,60 344,60C207,60 129,189 129,333C129,481 201,614 345,614M252,721C281,721 300,744 300,772C300,800 280,822 252,822C224,822 203,799 203,772C203,744 222,721 252,721M437,721C467,721 486,744 486,772C486,800 466,822 438,822C409,822 388,799 388,772C388,744 408,721 437,721z"
   id="glyph194" />
<glyph
   unicode="Ò"
   horiz-adv-x="689"
   d="M349,685C169,685 36,545 36,331C36,127 161,-11 339,-11C511,-11 652,112 652,344C652,544 533,685 349,685M345,614C490,614 560,474 560,340C560,187 482,60 344,60C207,60 129,189 129,333C129,481 201,614 345,614M199,829l128,-116l71,0l-92,116z"
   id="glyph196" />
<glyph
   unicode="Ơ"
   horiz-adv-x="689"
   d="M344,60C206,60 128,191 129,333C128,479 200,614 345,614C490,614 560,474 560,340C560,187 482,60 344,60M593,740C602,722 609,700 609,676C609,647 597,632 564,632C532,632 484,658 453,668C427,677 389,685 349,685C169,685 36,545 36,331C36,127 161,-11 339,-11C511,-11 652,112 652,344C652,449 619,530 574,582C646,575 679,616 679,671C679,705 671,731 661,753z"
   id="glyph198" />
<glyph
   unicode="Ő"
   horiz-adv-x="689"
   d="M349,685C169,685 36,545 36,331C36,127 161,-11 339,-11C511,-11 652,112 652,344C652,544 533,685 349,685M345,614C490,614 560,474 560,340C560,187 482,60 344,60C207,60 129,189 129,333C129,481 201,614 345,614M318,830l-80,-112l64,0l112,112M466,830l-80,-112l64,0l111,112z"
   id="glyph200" />
<glyph
   unicode="Ō"
   horiz-adv-x="689"
   d="M349,685C169,685 36,545 36,331C36,127 161,-11 339,-11C511,-11 652,112 652,344C652,544 533,685 349,685M345,614C490,614 560,474 560,340C560,187 482,60 344,60C207,60 129,189 129,333C129,481 201,614 345,614M225,794l0,-55l240,0l0,55z"
   id="glyph202" />
<glyph
   unicode="Ω"
   horiz-adv-x="705"
   d="M284,0l0,55C204,105 134,225 134,351C134,483 213,614 355,614C498,614 571,475 571,352C571,217 502,110 422,55l0,-55l253,0l0,69l-147,0l0,4C595,129 661,228 661,366C661,544 544,685 357,685C178,685 43,550 43,358C43,228 108,128 175,73l0,-4l-145,0l0,-69z"
   id="glyph204" />
<glyph
   unicode="Ώ"
   horiz-adv-x="742"
   d="M320,0l0,55C241,105 171,225 171,351C171,483 250,614 392,614C535,614 607,475 608,352C608,217 538,110 458,55l0,-55l253,0l0,69l-146,0l0,4C632,129 698,228 698,366C698,544 580,685 394,685C215,685 80,550 80,358C80,228 145,128 212,73l0,-4l-146,0l0,-69M7,674l-7,-155l52,0l35,155z"
   id="glyph206" />
<glyph
   unicode="Ο"
   horiz-adv-x="689"
   d="M349,685C169,685 36,545 36,331C36,127 161,-11 339,-11C511,-11 652,112 652,344C652,544 533,685 349,685M345,614C490,614 560,474 560,340C560,187 482,60 344,60C207,60 129,189 129,333C129,481 201,614 345,614z"
   id="glyph208" />
<glyph
   unicode="Ό"
   horiz-adv-x="728"
   d="M388,685C208,685 76,545 76,331C76,127 200,-11 379,-11C551,-11 692,112 692,344C692,544 572,685 388,685M385,614C530,614 600,474 600,340C600,187 522,60 384,60C246,60 168,189 168,333C168,481 240,614 385,614M7,674l-7,-155l52,0l35,155z"
   id="glyph210" />
<glyph
   unicode="Ø"
   horiz-adv-x="689"
   d="M112,-43l63,86C223,8 282,-11 346,-11C507,-11 652,108 652,343C652,442 621,530 565,591l62,86l-53,36l-59,-81C467,667 409,685 347,685C171,685 36,546 36,333C36,233 69,144 125,84l-62,-88M176,158l-1,-1C145,209 125,263 125,338C125,479 199,615 346,615C396,615 438,597 472,568M513,515l3,0C551,458 563,397 563,340C563,188 485,59 344,59C290,59 251,76 218,107z"
   id="glyph212" />
<glyph
   unicode="Ǿ"
   horiz-adv-x="689"
   d="M112,-43l63,86C223,8 282,-11 346,-11C507,-11 652,108 652,343C652,442 621,530 565,591l62,86l-53,36l-59,-81C467,667 409,685 347,685C171,685 36,546 36,333C36,233 69,144 125,84l-62,-88M176,158l-1,-1C145,209 125,263 125,338C125,479 199,615 346,615C396,615 438,597 472,568M513,515l3,0C551,458 563,397 563,340C563,188 485,59 344,59C290,59 251,76 218,107M392,835l-93,-117l72,0l127,117z"
   id="glyph214" />
<glyph
   unicode="Õ"
   horiz-adv-x="689"
   d="M349,685C169,685 36,545 36,331C36,127 161,-11 339,-11C511,-11 652,112 652,344C652,544 533,685 349,685M345,614C490,614 560,474 560,340C560,187 482,60 344,60C207,60 129,189 129,333C129,481 201,614 345,614M267,717C269,744 277,761 293,761C307,761 321,752 340,742C362,731 380,723 401,723C447,723 469,757 468,820l-46,0C419,788 410,781 395,781C379,781 363,790 347,799C326,811 310,819 288,819C244,819 218,778 220,717z"
   id="glyph216" />
<glyph
   unicode="P"
   horiz-adv-x="532"
   d="M76,0l87,0l0,270C183,265 207,264 233,264C318,264 393,289 439,338C473,373 491,421 491,482C491,542 469,591 432,623C392,659 329,679 243,679C173,679 118,673 76,666M163,603C178,607 207,610 245,610C341,610 404,567 404,478C404,385 340,334 235,334C206,334 182,336 163,341z"
   id="glyph218" />
<glyph
   unicode="Φ"
   horiz-adv-x="718"
   d="M400,26C542,38 682,138 682,338C682,537 542,639 402,650l0,50l-84,0l0,-50C190,640 36,540 36,333C36,132 179,38 316,26l0,-52l84,0M317,89C219,101 126,187 126,335C126,497 230,581 317,587M401,587C496,578 592,496 592,336C592,182 497,98 401,89z"
   id="glyph220" />
<glyph
   unicode="Π"
   horiz-adv-x="634"
   d="M558,674l-482,0l0,-674l87,0l0,600l307,0l0,-600l88,0z"
   id="glyph222" />
<glyph
   unicode="Ψ"
   horiz-adv-x="685"
   d="M639,674l-86,0l0,-186C553,334 473,279 384,274l0,400l-82,0l0,-399C202,280 132,332 132,469l0,205l-85,0l0,-220C47,278 171,211 301,206l0,-206l83,0l0,206C533,214 639,304 639,479z"
   id="glyph224" />
<glyph
   unicode="Q"
   horiz-adv-x="689"
   d="M657,-26C600,-16 527,0 460,17l0,4C572,60 652,171 652,344C652,543 533,685 350,685C168,685 36,546 36,330C36,113 173,-5 333,-11C346,-11 360,-16 374,-21C452,-48 541,-75 632,-99M343,60C207,60 128,189 129,332C128,478 200,614 347,614C490,614 560,475 560,340C560,186 482,60 343,60z"
   id="glyph226" />
<glyph
   unicode="R"
   horiz-adv-x="538"
   d="M76,0l87,0l0,292l82,0C324,289 360,254 380,161C399,77 414,19 425,0l90,0C501,26 485,91 463,185C447,255 416,303 364,321l0,3C435,348 491,407 491,496C491,548 472,594 438,624C396,662 336,679 243,679C183,679 120,674 76,665M163,604C177,608 207,612 249,612C341,611 404,573 404,486C404,409 345,358 252,358l-89,0z"
   id="glyph228" />
<glyph
   unicode="Ŕ"
   horiz-adv-x="538"
   d="M76,0l87,0l0,292l82,0C324,289 360,254 380,161C399,77 414,19 425,0l90,0C501,26 485,91 463,185C447,255 416,303 364,321l0,3C435,348 491,407 491,496C491,548 472,594 438,624C396,662 336,679 243,679C183,679 120,674 76,665M163,604C177,608 207,612 249,612C341,611 404,573 404,486C404,409 345,358 252,358l-89,0M302,829l-93,-116l71,0l128,116z"
   id="glyph230" />
<glyph
   unicode="Ř"
   horiz-adv-x="538"
   d="M76,0l87,0l0,292l82,0C324,289 360,254 380,161C399,77 414,19 425,0l90,0C501,26 485,91 463,185C447,255 416,303 364,321l0,3C435,348 491,407 491,496C491,548 472,594 438,624C396,662 336,679 243,679C183,679 120,674 76,665M163,604C177,608 207,612 249,612C341,611 404,573 404,486C404,409 345,358 252,358l-89,0M300,713l103,114l-72,0l-63,-70l-2,0l-64,70l-73,0l104,-114z"
   id="glyph232" />
<glyph
   unicode="Ρ"
   horiz-adv-x="532"
   d="M76,0l87,0l0,270C183,265 207,264 233,264C318,264 393,289 439,338C473,373 491,421 491,482C491,542 469,591 432,623C392,659 329,679 243,679C173,679 118,673 76,666M163,603C178,607 207,610 245,610C341,610 404,567 404,478C404,385 340,334 235,334C206,334 182,336 163,341z"
   id="glyph234" />
<glyph
   unicode="S"
   horiz-adv-x="493"
   d="M42,33C78,9 149,-10 214,-10C373,-10 450,80 450,184C450,283 392,338 278,382C185,418 144,449 144,512C144,558 179,613 271,613C332,613 377,593 399,581l24,71C393,669 343,685 274,685C143,685 56,607 56,502C56,407 124,350 234,311C325,276 361,240 361,177C361,109 309,62 220,62C160,62 103,82 64,106z"
   id="glyph236" />
<glyph
   unicode="Ś"
   horiz-adv-x="493"
   d="M42,33C78,9 149,-10 214,-10C373,-10 450,80 450,184C450,283 392,338 278,382C185,418 144,449 144,512C144,558 179,613 271,613C332,613 377,593 399,581l24,71C393,669 343,685 274,685C143,685 56,607 56,502C56,407 124,350 234,311C325,276 361,240 361,177C361,109 309,62 220,62C160,62 103,82 64,106M298,829l-92,-116l71,0l128,116z"
   id="glyph238" />
<glyph
   unicode="Š"
   horiz-adv-x="493"
   d="M42,33C78,9 149,-10 214,-10C373,-10 450,80 450,184C450,283 392,338 278,382C185,418 144,449 144,512C144,558 179,613 271,613C332,613 377,593 399,581l24,71C393,669 343,685 274,685C143,685 56,607 56,502C56,407 124,350 234,311C325,276 361,240 361,177C361,109 309,62 220,62C160,62 103,82 64,106M292,713l102,114l-71,0l-63,-70l-2,0l-64,70l-74,0l105,-114z"
   id="glyph240" />
<glyph
   unicode="Ŝ"
   horiz-adv-x="493"
   d="M42,33C78,9 149,-10 214,-10C373,-10 450,80 450,184C450,283 392,338 278,382C185,418 144,449 144,512C144,558 179,613 271,613C332,613 377,593 399,581l24,71C393,669 343,685 274,685C143,685 56,607 56,502C56,407 124,350 234,311C325,276 361,240 361,177C361,109 309,62 220,62C160,62 103,82 64,106M214,827l-103,-114l72,0l63,69l2,0l64,-69l73,0l-104,114z"
   id="glyph242" />
<glyph
   unicode="Σ"
   horiz-adv-x="552"
   d="M140,76l217,262l-206,260l0,4l341,0l0,72l-453,0l0,-59l221,-280l-234,-283l0,-52l498,0l0,73l-384,0z"
   id="glyph244" />
<glyph
   unicode="T"
   horiz-adv-x="497"
   d="M204,0l88,0l0,600l206,0l0,74l-499,0l0,-74l205,0z"
   id="glyph246" />
<glyph
   unicode="Τ"
   horiz-adv-x="497"
   d="M204,0l88,0l0,600l206,0l0,74l-499,0l0,-74l205,0z"
   id="glyph248" />
<glyph
   unicode="Ŧ"
   horiz-adv-x="497"
   d="M498,600l0,74l-499,0l0,-74l205,0l0,-222l-124,0l0,-58l124,0l0,-320l88,0l0,320l124,0l0,58l-124,0l0,222z"
   id="glyph250" />
<glyph
   unicode="Ť"
   horiz-adv-x="497"
   d="M204,0l88,0l0,600l206,0l0,74l-499,0l0,-74l205,0M282,710l103,114l-72,0l-63,-69l-2,0l-64,69l-73,0l104,-114z"
   id="glyph252" />
<glyph
   unicode="Θ"
   horiz-adv-x="689"
   d="M341,-11C512,-11 653,112 653,344C653,544 533,685 349,685C169,685 36,545 36,331C36,127 161,-11 341,-11M344,60C206,60 128,191 128,333C128,479 200,614 346,614C491,614 561,474 561,340C561,187 483,60 344,60M209,383l0,-72l271,0l0,72z"
   id="glyph254" />
<glyph
   unicode="Þ"
   horiz-adv-x="531"
   d="M76,0l86,0l0,156C183,153 210,151 238,151C384,151 491,222 491,364C491,416 471,462 436,495C395,531 337,550 258,550C222,550 189,547 162,542l0,132l-86,0M162,473C178,477 210,481 250,481C342,481 404,442 404,355C404,273 345,221 237,221C211,221 185,222 162,227z"
   id="glyph256" />
<glyph
   unicode="U"
   horiz-adv-x="647"
   d="M75,674l0,-397C75,68 179,-11 317,-11C463,-11 572,74 572,281l0,393l-88,0l0,-399C484,126 420,60 320,60C230,60 163,124 163,275l0,399z"
   id="glyph258" />
<glyph
   unicode="Ú"
   horiz-adv-x="647"
   d="M75,674l0,-397C75,68 179,-11 317,-11C463,-11 572,74 572,281l0,393l-88,0l0,-399C484,126 420,60 320,60C230,60 163,124 163,275l0,399M366,827l-92,-117l71,0l128,117z"
   id="glyph260" />
<glyph
   unicode="Ŭ"
   horiz-adv-x="647"
   d="M75,674l0,-397C75,68 179,-11 317,-11C463,-11 572,74 572,281l0,393l-88,0l0,-399C484,126 420,60 320,60C230,60 163,124 163,275l0,399M199,827C201,768 237,721 322,721C408,721 446,769 447,827l-51,0C391,801 372,778 323,778C274,778 256,804 251,827z"
   id="glyph262" />
<glyph
   unicode="Û"
   horiz-adv-x="647"
   d="M75,674l0,-397C75,68 179,-11 317,-11C463,-11 572,74 572,281l0,393l-88,0l0,-399C484,126 420,60 320,60C230,60 163,124 163,275l0,399M295,824l-102,-114l71,0l64,69l2,0l63,-69l74,0l-105,114z"
   id="glyph264" />
<glyph
   unicode="Ü"
   horiz-adv-x="647"
   d="M75,674l0,-397C75,68 179,-11 317,-11C463,-11 572,74 572,281l0,393l-88,0l0,-399C484,126 420,60 320,60C230,60 163,124 163,275l0,399M233,721C262,721 282,744 282,772C282,800 261,822 234,822C206,822 184,799 184,772C184,744 204,721 233,721M419,721C448,721 467,744 467,772C467,800 447,822 419,822C391,822 370,799 370,772C370,744 389,721 419,721z"
   id="glyph266" />
<glyph
   unicode="Ù"
   horiz-adv-x="647"
   d="M75,674l0,-397C75,68 179,-11 317,-11C463,-11 572,74 572,281l0,393l-88,0l0,-399C484,126 420,60 320,60C230,60 163,124 163,275l0,399M183,827l127,-116l72,0l-93,116z"
   id="glyph268" />
<glyph
   unicode="Ư"
   horiz-adv-x="677"
   d="M593,770C603,752 609,731 609,712C609,686 597,674 563,674l-79,0l0,-399C484,126 420,60 320,60C230,60 163,124 163,275l0,399l-88,0l0,-397C75,68 179,-11 317,-11C463,-11 572,74 572,281l0,340l15,1C647,624 677,658 677,707C677,735 670,760 660,782z"
   id="glyph270" />
<glyph
   unicode="Ű"
   horiz-adv-x="647"
   d="M75,674l0,-397C75,68 179,-11 317,-11C463,-11 572,74 572,281l0,393l-88,0l0,-399C484,126 420,60 320,60C230,60 163,124 163,275l0,399M282,827l-79,-112l64,0l111,112M430,827l-80,-112l64,0l111,112z"
   id="glyph272" />
<glyph
   unicode="Ū"
   horiz-adv-x="647"
   d="M75,674l0,-397C75,68 179,-11 317,-11C463,-11 572,74 572,281l0,393l-88,0l0,-399C484,126 420,60 320,60C230,60 163,124 163,275l0,399M204,788l0,-55l239,0l0,55z"
   id="glyph274" />
<glyph
   unicode="Ų"
   horiz-adv-x="647"
   d="M416,-135C402,-141 386,-145 370,-145C345,-145 325,-130 325,-102C325,-66 359,-26 386,-1C495,21 572,109 572,281l0,393l-88,0l0,-399C484,126 420,60 320,60C230,60 163,124 163,275l0,399l-88,0l0,-397C75,72 175,-6 308,-11C310,-11 312,-10 314,-10C287,-39 257,-80 257,-124C257,-174 291,-204 347,-204C374,-204 408,-195 429,-180z"
   id="glyph276" />
<glyph
   unicode="Υ"
   horiz-adv-x="588"
   d="M10,609C99,589 193,491 233,310C242,269 247,224 247,174l0,-174l87,0l0,173C334,225 343,271 353,311C399,485 510,581 584,609l-15,71C524,673 462,637 415,587C367,534 315,450 298,342l-4,0C282,448 241,532 190,589C144,643 73,677 26,680z"
   id="glyph278" />
<glyph
   unicode="Ϋ"
   horiz-adv-x="588"
   d="M10,609C99,589 193,491 233,310C242,269 247,224 247,174l0,-174l87,0l0,173C334,225 343,271 353,311C399,485 510,581 584,609l-15,71C524,673 462,637 415,587C367,534 315,450 298,342l-4,0C282,448 241,532 190,589C144,643 73,677 26,680M205,697C235,697 254,720 254,748C254,776 234,798 206,798C178,798 156,775 156,748C156,720 176,697 205,697M391,697C420,697 439,720 439,748C439,776 419,798 391,798C363,798 342,775 342,748C342,720 361,697 391,697z"
   id="glyph280" />
<glyph
   unicode="Ύ"
   horiz-adv-x="706"
   d="M128,609C216,589 310,491 351,310C359,269 365,224 365,174l0,-174l87,0l0,173C452,225 460,271 470,311C516,485 627,581 702,609l-16,71C642,673 580,637 533,587C485,534 433,450 416,342l-4,0C399,448 359,532 308,589C262,643 191,677 144,680M7,674l-7,-155l52,0l35,155z"
   id="glyph282" />
<glyph
   unicode="Ů"
   horiz-adv-x="647"
   d="M75,674l0,-397C75,68 179,-11 317,-11C463,-11 572,74 572,281l0,393l-88,0l0,-399C484,126 420,60 320,60C230,60 163,124 163,275l0,399M324,872C262,872 224,831 224,781C224,733 264,693 324,693C382,693 423,732 423,782C423,832 386,872 324,872M323,836C352,836 372,812 372,783C372,754 352,730 323,730C294,730 275,756 275,781C275,810 293,836 323,836z"
   id="glyph284" />
<glyph
   unicode="Ũ"
   horiz-adv-x="647"
   d="M75,674l0,-397C75,68 179,-11 317,-11C463,-11 572,74 572,281l0,393l-88,0l0,-399C484,126 420,60 320,60C230,60 163,124 163,275l0,399M246,715C249,742 256,759 272,759C287,759 300,750 319,740C341,729 359,721 380,721C427,721 449,755 448,818l-47,0C399,786 390,779 374,779C359,779 343,788 326,797C305,808 289,817 267,817C224,817 198,776 199,715z"
   id="glyph286" />
<glyph
   unicode="V"
   horiz-adv-x="558"
   d="M320,0l241,674l-93,0l-114,-333C324,253 296,168 277,90l-2,0C257,169 232,251 203,342l-105,332l-94,0l220,-674z"
   id="glyph288" />
<glyph
   unicode="W"
   horiz-adv-x="846"
   d="M277,0l96,351C398,438 413,504 425,571l2,0C436,503 450,437 471,351l85,-351l91,0l191,674l-89,0l-89,-340C639,250 620,175 606,101l-2,0C594,172 576,252 557,332l-82,342l-91,0l-90,-340C271,247 250,167 239,100l-2,0C225,165 207,249 187,333l-80,341l-92,0l171,-674z"
   id="glyph290" />
<glyph
   unicode="Ẃ"
   horiz-adv-x="846"
   d="M277,0l96,351C398,438 413,504 425,571l2,0C436,503 450,437 471,351l85,-351l91,0l191,674l-89,0l-89,-340C639,250 620,175 606,101l-2,0C594,172 576,252 557,332l-82,342l-91,0l-90,-340C271,247 250,167 239,100l-2,0C225,165 207,249 187,333l-80,341l-92,0l171,-674M476,827l-92,-117l71,0l128,117z"
   id="glyph292" />
<glyph
   unicode="Ŵ"
   horiz-adv-x="846"
   d="M277,0l96,351C398,438 413,504 425,571l2,0C436,503 450,437 471,351l85,-351l91,0l191,674l-89,0l-89,-340C639,250 620,175 606,101l-2,0C594,172 576,252 557,332l-82,342l-91,0l-90,-340C271,247 250,167 239,100l-2,0C225,165 207,249 187,333l-80,341l-92,0l171,-674M390,824l-102,-114l71,0l64,69l2,0l64,-69l73,0l-105,114z"
   id="glyph294" />
<glyph
   unicode="Ẅ"
   horiz-adv-x="846"
   d="M277,0l96,351C398,438 413,504 425,571l2,0C436,503 450,437 471,351l85,-351l91,0l191,674l-89,0l-89,-340C639,250 620,175 606,101l-2,0C594,172 576,252 557,332l-82,342l-91,0l-90,-340C271,247 250,167 239,100l-2,0C225,165 207,249 187,333l-80,341l-92,0l171,-674M334,721C363,721 382,744 382,772C382,800 362,822 335,822C306,822 285,799 285,772C285,744 305,721 334,721M519,721C549,721 568,744 568,772C568,800 548,822 520,822C492,822 471,799 471,772C471,744 490,721 519,721z"
   id="glyph296" />
<glyph
   unicode="Ẁ"
   horiz-adv-x="846"
   d="M277,0l96,351C398,438 413,504 425,571l2,0C436,503 450,437 471,351l85,-351l91,0l191,674l-89,0l-89,-340C639,250 620,175 606,101l-2,0C594,172 576,252 557,332l-82,342l-91,0l-90,-340C271,247 250,167 239,100l-2,0C225,165 207,249 187,333l-80,341l-92,0l171,-674M273,827l127,-116l72,0l-93,116z"
   id="glyph298" />
<glyph
   unicode="X"
   horiz-adv-x="571"
   d="M546,0l-210,346l205,328l-100,0l-92,-158C324,473 307,442 288,402l-3,0C267,438 248,472 223,516l-89,158l-101,0l198,-333l-206,-341l100,0l81,148C241,207 260,243 279,282l2,0C302,243 324,206 359,149l86,-149z"
   id="glyph300" />
<glyph
   unicode="Ξ"
   horiz-adv-x="540"
   d="M54,674l0,-72l441,0l0,72M87,385l0,-72l374,0l0,72M43,73l0,-73l462,0l0,73z"
   id="glyph302" />
<glyph
   unicode="Y"
   horiz-adv-x="541"
   d="M314,0l0,287l226,387l-99,0l-97,-186C318,437 295,393 276,349l-2,0C253,396 233,437 207,488l-95,186l-99,0l213,-388l0,-286z"
   id="glyph304" />
<glyph
   unicode="Ý"
   horiz-adv-x="541"
   d="M314,0l0,287l226,387l-99,0l-97,-186C318,437 295,393 276,349l-2,0C253,396 233,437 207,488l-95,186l-99,0l213,-388l0,-286M320,821l-93,-116l72,0l127,116z"
   id="glyph306" />
<glyph
   unicode="Ŷ"
   horiz-adv-x="541"
   d="M314,0l0,287l226,387l-99,0l-97,-186C318,437 295,393 276,349l-2,0C253,396 233,437 207,488l-95,186l-99,0l213,-388l0,-286M237,824l-103,-114l72,0l63,69l2,0l64,-69l73,0l-104,114z"
   id="glyph308" />
<glyph
   unicode="Ÿ"
   horiz-adv-x="541"
   d="M314,0l0,287l226,387l-99,0l-97,-186C318,437 295,393 276,349l-2,0C253,396 233,437 207,488l-95,186l-99,0l213,-388l0,-286M187,714C216,714 235,737 235,765C235,793 215,815 188,815C159,815 138,792 138,765C138,737 158,714 187,714M372,714C402,714 421,737 421,765C421,793 401,815 373,815C345,815 324,792 324,765C324,737 343,714 372,714z"
   id="glyph310" />
<glyph
   unicode="Ỳ"
   horiz-adv-x="541"
   d="M314,0l0,287l226,387l-99,0l-97,-186C318,437 295,393 276,349l-2,0C253,396 233,437 207,488l-95,186l-99,0l213,-388l0,-286M131,820l128,-116l71,0l-92,116z"
   id="glyph312" />
<glyph
   unicode="Z"
   horiz-adv-x="553"
   d="M30,0l492,0l0,73l-377,0l0,3l372,545l0,53l-455,0l0,-73l342,0l0,-3l-374,-547z"
   id="glyph314" />
<glyph
   unicode="Ź"
   horiz-adv-x="553"
   d="M30,0l492,0l0,73l-377,0l0,3l372,545l0,53l-455,0l0,-73l342,0l0,-3l-374,-547M325,827l-92,-117l71,0l127,117z"
   id="glyph316" />
<glyph
   unicode="Ž"
   horiz-adv-x="553"
   d="M30,0l492,0l0,73l-377,0l0,3l372,545l0,53l-455,0l0,-73l342,0l0,-3l-374,-547M321,710l103,114l-72,0l-63,-69l-2,0l-64,69l-73,0l104,-114z"
   id="glyph318" />
<glyph
   unicode="Ż"
   horiz-adv-x="553"
   d="M30,0l492,0l0,73l-377,0l0,3l372,545l0,53l-455,0l0,-73l342,0l0,-3l-374,-547M281,720C309,720 329,744 329,770C329,797 309,820 281,820C253,820 231,797 231,770C231,744 252,720 281,720z"
   id="glyph320" />
<glyph
   unicode="Ζ"
   horiz-adv-x="553"
   d="M30,0l492,0l0,73l-377,0l0,3l372,545l0,53l-455,0l0,-73l342,0l0,-3l-374,-547z"
   id="glyph322" />
<glyph
   unicode="a"
   horiz-adv-x="482"
   d="M421,0C415,33 413,74 413,116l0,181C413,394 377,495 229,495C168,495 110,478 70,452l20,-58C124,416 171,430 216,430C315,430 326,358 326,318l0,-10C139,309 35,245 35,128C35,58 85,-11 183,-11C252,-11 304,23 331,61l3,0l7,-61M328,163C328,154 326,144 323,135C309,94 269,54 206,54C161,54 123,81 123,138C123,232 232,249 328,247z"
   id="glyph324" />
<glyph
   unicode="á"
   horiz-adv-x="482"
   d="M421,0C415,33 413,74 413,116l0,181C413,394 377,495 229,495C168,495 110,478 70,452l20,-58C124,416 171,430 216,430C315,430 326,358 326,318l0,-10C139,309 35,245 35,128C35,58 85,-11 183,-11C252,-11 304,23 331,61l3,0l7,-61M328,163C328,154 326,144 323,135C309,94 269,54 206,54C161,54 123,81 123,138C123,232 232,249 328,247M275,693l-88,-143l63,0l122,143z"
   id="glyph326" />
<glyph
   unicode="ă"
   horiz-adv-x="482"
   d="M421,0C415,33 413,74 413,116l0,181C413,394 377,495 229,495C168,495 110,478 70,452l20,-58C124,416 171,430 216,430C315,430 326,358 326,318l0,-10C139,309 35,245 35,128C35,58 85,-11 183,-11C252,-11 304,23 331,61l3,0l7,-61M328,163C328,154 326,144 323,135C309,94 269,54 206,54C161,54 123,81 123,138C123,232 232,249 328,247M117,682C117,620 153,558 241,558C316,558 365,608 365,682l-52,0C310,649 288,613 241,613C200,613 175,643 169,682z"
   id="glyph328" />
<glyph
   unicode="â"
   horiz-adv-x="482"
   d="M421,0C415,33 413,74 413,116l0,181C413,394 377,495 229,495C168,495 110,478 70,452l20,-58C124,416 171,430 216,430C315,430 326,358 326,318l0,-10C139,309 35,245 35,128C35,58 85,-11 183,-11C252,-11 304,23 331,61l3,0l7,-61M328,163C328,154 326,144 323,135C309,94 269,54 206,54C161,54 123,81 123,138C123,232 232,249 328,247M205,693l-94,-143l66,0l58,95l2,0l58,-95l67,0l-96,143z"
   id="glyph330" />
<glyph
   unicode="´"
   horiz-adv-x="300"
   d="M189,693l-88,-143l63,0l122,143z"
   id="glyph332" />
<glyph
   unicode=""
   horiz-adv-x="300"
   d="M198,827l-93,-117l72,0l127,117z"
   id="glyph334" />
<glyph
   unicode="ä"
   horiz-adv-x="482"
   d="M421,0C415,33 413,74 413,116l0,181C413,394 377,495 229,495C168,495 110,478 70,452l20,-58C124,416 171,430 216,430C315,430 326,358 326,318l0,-10C139,309 35,245 35,128C35,58 85,-11 183,-11C252,-11 304,23 331,61l3,0l7,-61M328,163C328,154 326,144 323,135C309,94 269,54 206,54C161,54 123,81 123,138C123,232 232,249 328,247M149,570C178,570 198,594 198,621C198,650 177,672 149,672C121,672 98,649 98,621C98,594 119,570 149,570M334,570C363,570 383,594 383,621C383,650 362,672 334,672C306,672 284,649 284,621C284,594 304,570 334,570z"
   id="glyph336" />
<glyph
   unicode="æ"
   horiz-adv-x="773"
   d="M734,233C736,242 737,257 737,272C737,352 696,495 548,495C472,495 412,456 379,392l-2,0C357,454 308,495 221,495C173,495 113,478 70,451l21,-58C120,413 169,430 215,430C313,430 328,346 328,322l0,-20C140,304 36,239 36,127C36,57 86,-11 187,-11C270,-11 336,29 367,96l2,0C397,28 471,-11 553,-11C617,-11 673,2 712,23l-16,62C669,72 631,57 564,57C473,57 407,118 410,233M329,172C329,160 328,148 324,137C310,93 270,54 207,54C161,54 123,83 123,134C123,229 236,245 329,243M409,296C412,351 452,432 539,432C628,432 655,345 652,296z"
   id="glyph338" />
<glyph
   unicode="ǽ"
   horiz-adv-x="773"
   d="M734,233C736,242 737,257 737,272C737,352 696,495 548,495C472,495 412,456 379,392l-2,0C357,454 308,495 221,495C173,495 113,478 70,451l21,-58C120,413 169,430 215,430C313,430 328,346 328,322l0,-20C140,304 36,239 36,127C36,57 86,-11 187,-11C270,-11 336,29 367,96l2,0C397,28 471,-11 553,-11C617,-11 673,2 712,23l-16,62C669,72 631,57 564,57C473,57 407,118 410,233M329,172C329,160 328,148 324,137C310,93 270,54 207,54C161,54 123,83 123,134C123,229 236,245 329,243M409,296C412,351 452,432 539,432C628,432 655,345 652,296M429,693l-88,-143l62,0l122,143z"
   id="glyph340" />
<glyph
   unicode="à"
   horiz-adv-x="482"
   d="M421,0C415,33 413,74 413,116l0,181C413,394 377,495 229,495C168,495 110,478 70,452l20,-58C124,416 171,430 216,430C315,430 326,358 326,318l0,-10C139,309 35,245 35,128C35,58 85,-11 183,-11C252,-11 304,23 331,61l3,0l7,-61M328,163C328,154 326,144 323,135C309,94 269,54 206,54C161,54 123,81 123,138C123,232 232,249 328,247M95,693l122,-143l62,0l-87,143z"
   id="glyph342" />
<glyph
   unicode="α"
   horiz-adv-x="551"
   d="M416,484C412,460 409,436 407,398l-4,0C377,459 324,495 254,495C142,495 38,390 38,232C38,85 121,-11 236,-11C313,-11 369,33 401,91l3,0C409,17 444,-11 487,-11C497,-11 511,-10 517,-7l7,63C490,57 476,81 476,138C476,267 484,433 489,484M127,235C127,345 183,426 265,426C329,426 377,367 389,302C393,285 393,269 393,250C393,223 392,204 387,182C372,118 319,59 258,59C174,59 127,143 127,235z"
   id="glyph344" />
<glyph
   unicode="ά"
   horiz-adv-x="551"
   d="M416,484C412,460 409,436 407,398l-4,0C377,459 324,495 254,495C142,495 38,390 38,232C38,85 121,-11 236,-11C313,-11 369,33 401,91l3,0C409,17 444,-11 487,-11C497,-11 511,-10 517,-7l7,63C490,57 476,81 476,138C476,267 484,433 489,484M127,235C127,345 183,426 265,426C329,426 377,367 389,302C393,285 393,269 393,250C393,223 392,204 387,182C372,118 319,59 258,59C174,59 127,143 127,235M285,686l-53,-143l59,0l83,143z"
   id="glyph346" />
<glyph
   unicode="ā"
   horiz-adv-x="482"
   d="M421,0C415,33 413,74 413,116l0,181C413,394 377,495 229,495C168,495 110,478 70,452l20,-58C124,416 171,430 216,430C315,430 326,358 326,318l0,-10C139,309 35,245 35,128C35,58 85,-11 183,-11C252,-11 304,23 331,61l3,0l7,-61M328,163C328,154 326,144 323,135C309,94 269,54 206,54C161,54 123,81 123,138C123,232 232,249 328,247M129,643l0,-57l225,0l0,57z"
   id="glyph348" />
<glyph
   unicode="&amp;"
   horiz-adv-x="605"
   d="M602,0C562,43 527,81 491,119C541,178 570,262 588,368l-80,0C495,283 474,218 443,171C400,219 336,293 279,359l0,3C386,415 427,471 427,542C427,629 362,685 278,685C166,685 107,601 107,519C107,471 128,422 163,378l0,-3C86,333 31,270 31,178C31,77 107,-11 238,-11C312,-11 377,12 435,66C461,38 479,19 498,0M253,55C172,55 115,114 115,191C115,262 166,305 202,328C277,242 352,160 392,116C360,81 311,55 253,55M272,625C327,625 350,579 350,538C350,481 306,445 238,406C209,442 187,479 187,527C187,579 216,625 272,625z"
   id="glyph350" />
<glyph
   unicode="·"
   horiz-adv-x="217"
   d="M108,252C147,252 172,281 172,319C172,359 147,387 109,387C71,387 45,359 45,319C44,281 71,252 108,252z"
   id="glyph352" />
<glyph
   unicode="ą"
   horiz-adv-x="482"
   d="M90,394C124,416 171,430 216,430C315,430 326,358 326,318l0,-10C139,309 35,245 35,128C35,58 85,-11 183,-11C252,-11 304,23 331,61l3,0l7,-58C323,-25 293,-71 293,-121C293,-176 331,-206 382,-206C409,-206 442,-199 465,-182l-14,46C438,-142 424,-146 405,-146C377,-146 357,-130 357,-96C357,-61 381,-20 396,0l25,0C415,32 413,71 413,116l0,181C413,394 377,495 229,495C168,495 110,478 70,452M328,163C328,154 326,144 323,135C309,94 269,54 206,54C161,54 123,81 123,138C123,232 232,249 328,247z"
   id="glyph354" />
<glyph
   unicode="≈"
   horiz-adv-x="596"
   d="M533,416C508,390 463,358 417,358C367,358 334,379 304,392C271,405 235,428 176,428C113,428 55,389 23,351l35,-42C85,337 130,368 176,368C226,368 260,346 290,334C322,320 360,297 418,297C480,297 538,335 570,375M538,218C513,189 468,159 421,159C372,159 338,181 308,193C275,207 239,229 180,229C118,229 59,191 28,153l34,-43C89,139 135,169 179,169C230,169 264,147 294,135C327,122 364,99 421,99C483,99 542,137 574,178z"
   id="glyph356" />
<glyph
   unicode="å"
   horiz-adv-x="482"
   d="M421,0C415,33 413,74 413,116l0,181C413,394 377,495 229,495C168,495 110,478 70,452l20,-58C124,416 171,430 216,430C315,430 326,358 326,318l0,-10C139,309 35,245 35,128C35,58 85,-11 183,-11C252,-11 304,23 331,61l3,0l7,-61M328,163C328,154 326,144 323,135C309,94 269,54 206,54C161,54 123,81 123,138C123,232 232,249 328,247M240,537C297,537 340,576 340,629C340,682 301,723 241,723C178,723 139,681 139,628C139,577 180,537 240,537M239,574C210,574 190,602 190,628C190,659 208,685 239,685C271,685 291,660 291,630C291,600 271,574 239,574z"
   id="glyph358" />
<glyph
   unicode="ǻ"
   horiz-adv-x="482"
   d="M297,834l-107,-106l62,0l143,106M241,520C298,520 341,559 341,611C341,665 302,705 242,705C179,705 140,663 140,611C140,560 181,520 241,520M240,557C211,557 191,584 191,611C191,641 209,668 240,668C272,668 292,643 292,612C292,582 272,557 240,557M421,0C415,33 413,74 413,116l0,181C413,394 377,495 229,495C168,495 110,478 70,452l20,-58C124,416 171,430 216,430C315,430 326,358 326,318l0,-10C139,309 35,245 35,128C35,58 85,-11 183,-11C252,-11 304,23 331,61l3,0l7,-61M328,163C328,154 326,144 323,135C309,94 269,54 206,54C161,54 123,81 123,138C123,232 232,249 328,247z"
   id="glyph360" />
<glyph
   unicode="^"
   horiz-adv-x="596"
   d="M536,189l-207,461l-62,0l-207,-461l70,0l167,388l2,0l167,-388z"
   id="glyph362" />
<glyph
   unicode="~"
   horiz-adv-x="596"
   d="M108,210C110,270 132,295 168,295C204,295 241,274 288,251C357,219 393,207 433,207C495,207 553,246 548,358l-60,0C487,303 470,274 434,274C397,274 360,292 309,316C242,348 210,361 168,361C99,361 45,310 49,210z"
   id="glyph364" />
<glyph
   unicode="*"
   horiz-adv-x="415"
   d="M269,685l-61,-140l-2,0l-62,139l-61,-35l94,-122l0,-2l-147,19l0,-68l148,19l0,-2l-95,-122l57,-36l65,141l2,0l60,-140l63,36l-96,120l0,2l151,-18l0,68l-151,-20l0,2l95,125z"
   id="glyph366" />
<glyph
   unicode="@"
   horiz-adv-x="737"
   d="M448,255C437,193 384,119 326,119C282,119 260,151 260,195C260,292 331,375 419,375C442,375 459,371 469,368M508,-21C467,-44 414,-56 357,-56C209,-56 100,47 100,214C100,417 237,546 400,546C555,546 642,442 642,297C642,181 585,113 534,114C501,115 489,150 504,226l34,181C512,419 474,428 431,428C292,428 194,315 194,191C194,112 244,65 302,65C362,65 408,94 443,153l4,0C444,92 481,65 521,65C615,65 699,153 699,303C699,470 582,592 408,592C186,592 43,414 43,208C43,16 182,-104 346,-104C413,-104 469,-93 524,-64z"
   id="glyph368" />
<glyph
   unicode=""
   horiz-adv-x="737"
   d="M448,348C437,286 384,212 326,212C282,212 260,244 260,288C260,385 331,468 419,468C442,468 459,464 469,461M508,72C467,49 414,37 357,37C209,37 100,140 100,307C100,510 237,639 400,639C555,639 642,535 642,390C642,274 585,206 534,207C501,208 489,243 504,319l34,181C512,512 474,521 431,521C292,521 194,408 194,284C194,205 244,158 302,158C362,158 408,187 443,246l4,0C444,185 481,158 521,158C615,158 699,246 699,396C699,563 582,685 408,685C186,685 43,507 43,301C43,109 182,-11 346,-11C413,-11 469,0 524,29z"
   id="glyph370" />
<glyph
   unicode="ã"
   horiz-adv-x="482"
   d="M421,0C415,33 413,74 413,116l0,181C413,394 377,495 229,495C168,495 110,478 70,452l20,-58C124,416 171,430 216,430C315,430 326,358 326,318l0,-10C139,309 35,245 35,128C35,58 85,-11 183,-11C252,-11 304,23 331,61l3,0l7,-61M328,163C328,154 326,144 323,135C309,94 269,54 206,54C161,54 123,81 123,138C123,232 232,249 328,247M163,567C165,595 173,612 189,612C201,612 212,606 232,594C253,583 272,574 293,574C340,574 363,608 361,675l-46,0C312,641 303,632 287,632C275,632 261,640 245,649C222,662 205,671 183,671C140,671 113,632 115,567z"
   id="glyph372" />
<glyph
   unicode="b"
   horiz-adv-x="569"
   d="M145,0l4,80l3,0C188,16 244,-11 314,-11C422,-11 531,75 531,248C532,395 447,495 327,495C249,495 193,460 162,406l-2,0l0,304l-87,0l0,-585C73,82 71,33 69,0M160,281C160,295 163,307 165,317C183,384 239,425 299,425C393,425 443,342 443,245C443,134 388,59 296,59C232,59 181,101 164,162C162,172 160,183 160,194z"
   id="glyph374" />
<glyph
   unicode="\"
   horiz-adv-x="341"
   d="M342,-40l-272,725l-68,0l272,-725z"
   id="glyph376" />
<glyph
   unicode="|"
   horiz-adv-x="239"
   d="M86,750l0,-1000l67,0l0,1000z"
   id="glyph378" />
<glyph
   unicode="β"
   horiz-adv-x="560"
   d="M159,50C196,11 246,-11 313,-11C420,-11 522,62 522,196C522,307 450,371 374,387l0,4C420,414 463,471 463,547C463,651 387,721 288,721C224,721 180,700 146,668C108,632 71,571 71,433l0,-461C71,-98 74,-166 86,-198l82,0C158,-157 157,-74 157,-17l0,67M156,443C156,581 199,651 280,651C339,651 382,605 382,534C382,470 344,411 268,406C262,405 257,404 251,404l0,-60C260,344 269,345 278,344C366,341 434,292 434,196C434,116 377,57 297,57C228,57 179,100 156,137z"
   id="glyph380" />
<glyph
   unicode="{"
   horiz-adv-x="284"
   d="M28,262C99,262 109,219 109,188C109,161 105,134 101,107C97,80 93,52 93,25C93,-76 155,-112 238,-112l21,0l0,55l-18,0C185,-57 162,-26 162,30C162,54 165,77 169,102C173,126 176,151 176,178C177,242 149,276 104,287l0,2C149,301 177,333 176,397C176,424 173,448 169,473C165,497 162,521 162,544C162,598 182,630 241,630l18,0l0,55l-21,0C153,685 93,646 93,554C93,526 97,499 101,471C105,443 109,415 109,387C109,352 99,313 28,313z"
   id="glyph382" />
<glyph
   unicode=""
   horiz-adv-x="284"
   d="M28,302C99,302 109,259 109,227C109,201 105,173 101,146C97,119 93,91 93,64C93,-36 155,-73 238,-73l21,0l0,55l-18,0C185,-18 162,13 162,70C162,93 165,117 169,141C173,166 176,191 176,217C177,281 149,315 104,327l0,2C149,340 177,372 176,436C176,463 173,488 169,512C165,536 162,560 162,583C162,638 182,670 241,670l18,0l0,55l-21,0C153,725 93,685 93,593C93,566 97,538 101,510C105,482 109,454 109,427C109,391 99,353 28,352z"
   id="glyph384" />
<glyph
   unicode="}"
   horiz-adv-x="284"
   d="M256,313C185,313 175,352 175,387C175,415 179,443 183,471C187,499 191,526 191,554C191,646 130,685 45,685l-20,0l0,-55l18,0C101,629 122,598 122,544C122,521 118,497 115,473C111,448 107,424 107,397C107,333 135,301 179,289l0,-2C135,276 107,242 107,178C107,151 111,126 115,102C118,77 122,54 122,30C122,-26 98,-56 42,-57l-17,0l0,-55l21,0C128,-112 191,-76 191,25C191,52 187,80 183,107C179,134 175,161 175,188C175,219 185,262 256,262z"
   id="glyph386" />
<glyph
   unicode=""
   horiz-adv-x="284"
   d="M256,352C185,353 175,391 175,427C175,454 179,482 183,510C187,538 191,566 191,593C191,685 130,725 45,725l-20,0l0,-55l18,0C101,668 122,638 122,583C122,560 118,536 115,512C111,488 107,463 107,436C107,372 135,340 179,329l0,-2C135,315 107,281 107,217C107,191 111,166 115,141C118,117 122,93 122,70C122,13 98,-16 42,-18l-17,0l0,-55l21,0C128,-73 191,-36 191,64C191,91 187,119 183,146C179,173 175,201 175,227C175,259 185,302 256,302z"
   id="glyph388" />
<glyph
   unicode="["
   horiz-adv-x="284"
   d="M265,-112l0,55l-115,0l0,687l115,0l0,55l-183,0l0,-797z"
   id="glyph390" />
<glyph
   unicode=""
   horiz-adv-x="284"
   d="M265,-73l0,55l-115,0l0,687l115,0l0,55l-183,0l0,-797z"
   id="glyph392" />
<glyph
   unicode="]"
   horiz-adv-x="284"
   d="M19,686l0,-55l115,0l0,-688l-115,0l0,-55l183,0l0,798z"
   id="glyph394" />
<glyph
   unicode=""
   horiz-adv-x="284"
   d="M19,725l0,-54l115,0l0,-689l-115,0l0,-55l183,0l0,798z"
   id="glyph396" />
<glyph
   unicode="˘"
   horiz-adv-x="300"
   d="M26,682C26,620 62,558 150,558C225,558 274,608 274,682l-52,0C219,649 197,613 150,613C109,613 84,643 78,682z"
   id="glyph398" />
<glyph
   unicode=""
   horiz-adv-x="300"
   d="M26,832C28,772 64,726 149,726C235,726 272,773 274,832l-51,0C218,806 199,783 150,783C101,783 83,809 78,832z"
   id="glyph400" />
<glyph
   unicode=""
   horiz-adv-x="301"
   d="M21,681C25,612 59,557 147,557C224,557 275,599 280,681l-64,0C212,637 192,605 149,605C108,605 87,638 85,681z"
   id="glyph402" />
<glyph
   unicode=""
   horiz-adv-x="300"
   d="M22,834C27,768 66,726 148,726C233,726 273,767 278,834l-67,0C207,801 196,771 150,771C103,771 93,802 89,834z"
   id="glyph404" />
<glyph
   unicode=""
   horiz-adv-x="300"
   d="M192,773l-79,-131l53,0l111,131M21,657C22,594 62,533 150,533C225,533 278,582 279,657l-50,0C226,623 201,588 150,588C106,588 77,618 71,657z"
   id="glyph406" />
<glyph
   unicode=""
   horiz-adv-x="300"
   d="M29,802C36,747 74,699 152,699C231,699 272,749 278,802l-46,0C224,775 205,753 153,753C104,753 83,778 77,802M191,896l-74,-105l54,0l112,105z"
   id="glyph408" />
<glyph
   unicode=""
   horiz-adv-x="300"
   d="M22,773l110,-131l54,0l-80,131M17,657C18,594 58,533 146,533C222,533 274,582 275,657l-49,0C223,623 197,588 146,588C102,588 73,618 67,657z"
   id="glyph410" />
<glyph
   unicode=""
   horiz-adv-x="300"
   d="M29,896l112,-105l54,0l-74,105M30,802C37,747 75,699 153,699C232,699 273,749 279,802l-46,0C225,775 205,753 154,753C105,753 84,778 78,802z"
   id="glyph412" />
<glyph
   unicode=""
   horiz-adv-x="300"
   d="M163,634C189,679 232,688 232,737C232,776 197,808 152,808C103,808 74,778 57,744l32,-20C100,741 116,760 136,760C156,760 170,746 170,727C170,696 135,687 119,645M21,657C22,594 62,533 150,533C225,533 278,582 279,657l-50,0C226,623 201,588 150,588C106,588 77,618 71,657z"
   id="glyph414" />
<glyph
   unicode=""
   horiz-adv-x="300"
   d="M168,778C195,823 237,833 237,882C237,921 203,952 158,952C109,952 80,923 63,888l32,-19C106,886 122,904 143,904C162,904 176,891 176,872C176,841 141,831 125,790M30,802C37,747 76,699 153,699C232,699 273,749 280,802l-47,0C225,775 206,753 155,753C105,753 84,778 78,802z"
   id="glyph416" />
<glyph
   unicode=""
   horiz-adv-x="300"
   d="M78,698C80,712 87,728 102,728C114,728 126,722 146,712C166,700 185,691 206,691C253,691 276,724 275,787l-47,0C226,755 216,746 200,746C188,746 174,754 158,762C135,774 118,784 96,784C53,784 30,747 28,698M23,657C24,594 62,533 150,533C225,533 276,582 277,657l-49,0C225,623 200,587 150,587C107,587 78,618 72,657z"
   id="glyph418" />
<glyph
   unicode=""
   horiz-adv-x="300"
   d="M78,836C81,851 87,867 103,867C115,867 126,861 146,850C167,839 186,829 207,829C254,829 276,863 275,925l-46,0C226,893 217,885 201,885C189,885 175,892 159,901C135,913 119,922 97,922C54,922 31,885 29,836M26,802C32,747 71,699 149,699C228,699 269,749 275,802l-47,0C220,775 201,753 150,753C101,753 80,778 73,802z"
   id="glyph420" />
<glyph
   unicode="¦"
   horiz-adv-x="239"
   d="M86,174l0,-350l67,0l0,350M86,674l0,-350l67,0l0,350z"
   id="glyph422" />
<glyph
   unicode="•"
   horiz-adv-x="282"
   d="M141,157C200,157 246,203 246,262C246,320 199,366 141,366C83,366 35,320 36,261C36,202 83,157 141,157z"
   id="glyph424" />
<glyph
   unicode="c"
   horiz-adv-x="448"
   d="M403,84C378,73 345,60 295,60C199,60 127,129 127,241C127,342 187,424 298,424C346,424 379,413 400,401l20,68C396,481 350,494 298,494C140,494 38,386 38,237C38,89 133,-10 279,-10C344,-10 395,6 418,18z"
   id="glyph426" />
<glyph
   unicode="ć"
   horiz-adv-x="448"
   d="M403,84C378,73 345,60 295,60C199,60 127,129 127,241C127,342 187,424 298,424C346,424 379,413 400,401l20,68C396,481 350,494 298,494C140,494 38,386 38,237C38,89 133,-10 279,-10C344,-10 395,6 418,18M302,693l-88,-143l63,0l122,143z"
   id="glyph428" />
<glyph
   unicode="ˇ"
   horiz-adv-x="300"
   d="M183,550l94,143l-66,0l-59,-95l-2,0l-59,95l-68,0l96,-143z"
   id="glyph430" />
<glyph
   unicode=""
   horiz-adv-x="300"
   d="M184,710l103,114l-72,0l-63,-69l-2,0l-64,69l-74,0l105,-114z"
   id="glyph432" />
<glyph
   unicode="č"
   horiz-adv-x="448"
   d="M403,84C378,73 345,60 295,60C199,60 127,129 127,241C127,342 187,424 298,424C346,424 379,413 400,401l20,68C396,481 350,494 298,494C140,494 38,386 38,237C38,89 133,-10 279,-10C344,-10 395,6 418,18M294,550l94,143l-66,0l-59,-95l-2,0l-59,95l-67,0l96,-143z"
   id="glyph434" />
<glyph
   unicode="ç"
   horiz-adv-x="448"
   d="M403,84C378,73 345,60 295,60C199,60 127,129 127,241C127,342 187,424 298,424C346,424 379,413 400,401l20,68C396,481 350,494 298,494C140,494 38,386 38,237C38,102 117,8 241,-8l-42,-73C246,-85 276,-97 277,-123C277,-147 256,-155 234,-155C216,-155 196,-150 180,-140l-15,-43C182,-193 208,-200 233,-200C288,-200 337,-178 337,-119C337,-81 304,-55 267,-50l26,40C351,-8 397,7 418,18z"
   id="glyph436" />
<glyph
   unicode="ĉ"
   horiz-adv-x="448"
   d="M403,84C378,73 345,60 295,60C199,60 127,129 127,241C127,342 187,424 298,424C346,424 379,413 400,401l20,68C396,481 350,494 298,494C140,494 38,386 38,237C38,89 133,-10 279,-10C344,-10 395,6 418,18M229,693l-94,-143l65,0l58,95l2,0l58,-95l68,0l-96,143z"
   id="glyph438" />
<glyph
   unicode="ċ"
   horiz-adv-x="448"
   d="M403,84C378,73 345,60 295,60C199,60 127,129 127,241C127,342 187,424 298,424C346,424 379,413 400,401l20,68C396,481 350,494 298,494C140,494 38,386 38,237C38,89 133,-10 279,-10C344,-10 395,6 418,18M265,570C294,570 314,594 314,621C314,650 293,673 266,673C237,673 214,650 214,621C214,594 236,570 265,570z"
   id="glyph440" />
<glyph
   unicode="¸"
   horiz-adv-x="300"
   d="M136,2l-47,-83C136,-85 166,-97 167,-123C167,-147 146,-155 124,-155C106,-155 86,-150 70,-140l-15,-43C72,-193 98,-200 123,-200C178,-200 227,-178 227,-119C227,-81 194,-55 157,-50l33,52z"
   id="glyph442" />
<glyph
   unicode=""
   horiz-adv-x="300"
   d="M137,3l-47,-87C137,-89 168,-100 168,-127C168,-148 149,-157 126,-157C104,-157 85,-152 70,-144l-14,-45C73,-199 101,-206 127,-206C179,-206 230,-183 230,-125C230,-84 197,-57 159,-50l32,53z"
   id="glyph444" />
<glyph
   unicode="¢"
   horiz-adv-x="513"
   d="M330,-14l0,101C379,89 421,105 441,116l-16,63C401,168 366,154 311,154C223,154 155,219 155,330C155,428 216,508 315,508C365,508 399,495 419,483l20,67C416,562 375,575 330,575l0,98l-62,0l0,-100C146,553 67,455 67,326C67,253 89,195 123,157C159,118 204,95 268,87l0,-101z"
   id="glyph446" />
<glyph
   unicode=""
   horiz-adv-x="315"
   d="M206,-8l0,59C234,53 259,61 272,68l-11,47C246,109 225,102 194,102C144,102 103,136 103,199C103,254 139,296 195,296C225,296 244,288 257,282l13,49C254,339 231,346 206,346l0,57l-46,0l0,-59C82,332 36,271 36,195C36,154 49,119 70,96C92,72 120,57 160,52l0,-60z"
   id="glyph448" />
<glyph
   unicode=""
   horiz-adv-x="315"
   d="M206,-155l0,59C234,-94 259,-86 272,-79l-11,47C246,-38 225,-45 194,-45C144,-45 103,-11 103,52C103,107 139,149 195,149C225,149 244,141 257,135l13,49C254,192 231,199 206,199l0,57l-46,0l0,-59C82,185 36,124 36,48C36,7 49,-28 70,-51C92,-75 120,-90 160,-95l0,-60z"
   id="glyph450" />
<glyph
   unicode=""
   horiz-adv-x="315"
   d="M206,258l0,59C234,319 259,327 272,334l-11,47C246,375 225,368 194,368C144,368 103,402 103,465C103,520 139,562 195,562C225,562 244,554 257,548l13,49C254,605 231,612 206,612l0,57l-46,0l0,-59C82,598 36,537 36,461C36,420 49,385 70,362C92,338 120,323 160,318l0,-60z"
   id="glyph452" />
<glyph
   unicode=""
   horiz-adv-x="315"
   d="M206,435l0,59C234,495 259,504 272,511l-11,47C246,552 225,545 194,545C144,545 103,579 103,641C103,697 139,738 195,738C225,738 244,731 257,724l13,50C254,781 231,788 206,788l0,57l-46,0l0,-58C82,774 36,714 36,638C36,596 49,562 70,538C92,514 120,500 160,494l0,-59z"
   id="glyph454" />
<glyph
   unicode=""
   horiz-adv-x="530"
   d="M403,129C382,120 348,109 301,109C226,109 165,157 165,248C165,332 221,389 305,389C346,389 379,382 399,371l16,60C395,440 357,451 317,451l0,66l-55,0l0,-68C154,433 81,352 81,244C81,130 154,59 262,47l0,-73l55,0l0,72C361,48 400,61 417,70z"
   id="glyph456" />
<glyph
   unicode="χ"
   horiz-adv-x="457"
   d="M18,484l166,-328l-173,-346l75,-23l91,193C195,19 210,54 223,83l4,0l144,-296l82,22l-176,348l171,327l-86,0l-72,-154C269,288 253,254 239,223l-4,0l-123,261z"
   id="glyph458" />
<glyph
   unicode="ˆ"
   horiz-adv-x="300"
   d="M119,693l-94,-143l65,0l58,95l2,0l58,-95l68,0l-96,143z"
   id="glyph460" />
<glyph
   unicode=""
   horiz-adv-x="300"
   d="M116,824l-103,-114l71,0l64,69l2,0l64,-69l73,0l-104,114z"
   id="glyph462" />
<glyph
   unicode=""
   horiz-adv-x="300"
   d="M82,563C87,606 107,639 150,639C190,639 211,606 214,563l64,0C274,632 240,687 152,687C75,687 24,645 19,563z"
   id="glyph464" />
<glyph
   unicode=""
   horiz-adv-x="300"
   d="M278,726C274,788 234,831 152,831C68,831 27,789 22,726l67,-1C93,755 104,785 150,785C197,785 207,753 211,725z"
   id="glyph466" />
<glyph
   unicode=""
   horiz-adv-x="300"
   d="M117,693l-84,-143l64,0l51,94l2,0l51,-94l67,0l-86,143M309,775l-69,-132l51,0l99,132z"
   id="glyph468" />
<glyph
   unicode=""
   horiz-adv-x="300"
   d="M121,824l-92,-114l67,0l56,70l2,0l55,-70l70,0l-95,114M315,900l-84,-105l52,0l121,105z"
   id="glyph470" />
<glyph
   unicode=""
   horiz-adv-x="300"
   d="M189,775l93,-132l51,0l-64,132M117,693l-84,-143l64,0l51,94l2,0l51,-94l67,0l-86,143z"
   id="glyph472" />
<glyph
   unicode=""
   horiz-adv-x="300"
   d="M180,881l109,-105l54,0l-72,105M117,824l-92,-114l68,0l55,70l2,0l55,-70l70,0l-94,114z"
   id="glyph474" />
<glyph
   unicode=""
   horiz-adv-x="300"
   d="M117,693l-84,-143l64,0l51,94l2,0l51,-94l67,0l-86,143M297,635C323,680 366,689 366,738C366,777 331,809 286,809C237,809 208,779 191,745l32,-20C234,742 250,761 271,761C290,761 304,747 304,728C304,697 269,688 253,646z"
   id="glyph476" />
<glyph
   unicode=""
   horiz-adv-x="300"
   d="M120,824l-93,-114l68,0l55,70l2,0l56,-70l70,0l-95,114M302,754C328,800 371,810 371,858C371,898 337,928 292,928C243,928 214,899 197,864l32,-19C240,862 257,882 278,882C297,882 312,868 312,849C312,817 276,807 260,766z"
   id="glyph478" />
<glyph
   unicode=""
   horiz-adv-x="300"
   d="M117,668l-89,-118l67,0l53,73l2,0l54,-73l69,0l-92,118M78,680C79,703 88,719 103,719C116,719 127,713 147,702C168,691 186,681 208,681C255,681 277,715 276,777l-47,0C227,745 217,737 202,737C189,737 175,744 159,753C136,765 119,775 97,775C55,775 28,737 29,680z"
   id="glyph480" />
<glyph
   unicode=""
   horiz-adv-x="300"
   d="M117,824l-103,-114l72,0l63,69l2,0l64,-69l73,0l-104,114M79,837C80,861 89,877 104,877C117,877 128,871 148,860C169,849 187,839 209,839C256,839 278,873 277,935l-47,0C228,903 218,894 203,894C190,894 176,902 160,910C137,923 120,932 98,932C56,932 29,894 30,837z"
   id="glyph482" />
<glyph
   unicode=":"
   horiz-adv-x="207"
   d="M111,342C148,342 171,369 171,404C170,441 147,467 112,467C77,467 52,441 52,404C52,369 76,342 111,342M111,-11C148,-11 171,16 171,51C170,88 147,114 112,114C77,114 52,88 52,51C52,16 76,-11 111,-11z"
   id="glyph484" />
<glyph
   unicode=","
   horiz-adv-x="207"
   d="M79,-117C107,-70 151,41 174,126l-98,-10C65,43 38,-64 16,-123z"
   id="glyph486" />
<glyph
   unicode=""
   horiz-adv-x="131"
   d="M48,-67C70,-31 97,34 113,89l-74,-5C32,35 16,-28 0,-71z"
   id="glyph488" />
<glyph
   unicode=""
   horiz-adv-x="131"
   d="M48,-214C70,-178 97,-113 113,-58l-74,-5C32,-112 16,-175 0,-218z"
   id="glyph490" />
<glyph
   unicode=""
   horiz-adv-x="131"
   d="M48,199C70,235 97,300 113,355l-74,-5C32,301 16,238 0,195z"
   id="glyph492" />
<glyph
   unicode=""
   horiz-adv-x="131"
   d="M48,376C70,412 97,476 113,532l-74,-6C32,477 16,415 0,371z"
   id="glyph494" />
<glyph
   unicode="©"
   horiz-adv-x="677"
   d="M340,648C170,648 36,510 36,340C36,168 170,30 340,30C509,30 641,168 641,340C641,510 509,648 340,648M340,607C481,607 591,489 591,340C591,188 481,71 340,71C196,71 86,188 86,337C86,489 196,607 340,607M474,493C461,505 416,520 364,520C263,520 173,448 173,334C173,233 240,153 356,153C398,153 444,161 479,184l-12,38C444,207 406,196 366,196C274,196 225,259 225,337C225,417 271,477 365,477C412,477 449,461 462,454z"
   id="glyph496" />
<glyph
   unicode="¤"
   horiz-adv-x="513"
   d="M256,534C212,534 170,518 142,493l-69,76l-44,-46l75,-71C83,424 65,381 65,329C65,280 82,235 102,209l-72,-71l43,-44l67,74C167,143 213,128 254,128C294,128 341,142 371,171l68,-77l45,44l-75,74C427,237 444,280 444,335C444,383 428,425 409,452l78,71l-44,46l-71,-75C344,518 303,534 256,534M255,471C332,471 373,403 373,334C373,231 310,191 254,191C203,191 136,233 136,330C136,408 181,471 255,471z"
   id="glyph498" />
<glyph
   unicode="d"
   horiz-adv-x="564"
   d="M403,710l0,-289l-2,0C379,460 329,495 255,495C137,495 37,396 38,235C38,88 128,-11 245,-11C324,-11 383,30 410,84l2,0l4,-84l79,0C492,33 491,82 491,125l0,585M403,203C403,189 402,177 399,165C383,99 329,60 270,60C175,60 127,141 127,239C127,346 181,426 272,426C338,426 386,380 399,324C402,313 403,298 403,287z"
   id="glyph500" />
<glyph
   unicode="†"
   horiz-adv-x="500"
   d="M209,674l8,-211l-174,7l0,-72l174,8l-8,-456l82,0l-8,456l174,-8l0,72l-174,-7l8,211z"
   id="glyph502" />
<glyph
   unicode="‡"
   horiz-adv-x="500"
   d="M210,674l6,-201l-173,8l0,-72l173,7l0,-204l-173,8l0,-72l172,7l-5,-205l81,0l-7,205l173,-7l0,72l-173,-8l0,204l173,-7l0,72l-173,-8l7,201z"
   id="glyph504" />
<glyph
   unicode="ď"
   horiz-adv-x="574"
   d="M403,710l0,-289l-2,0C379,460 329,495 255,495C137,495 37,396 38,235C38,88 128,-11 245,-11C324,-11 383,30 410,84l2,0l4,-84l79,0C492,33 491,82 491,125l0,585M403,203C403,189 402,177 399,165C383,99 329,60 270,60C175,60 127,141 127,239C127,346 181,426 272,426C338,426 386,380 399,324C402,313 403,298 403,287M572,522C587,534 639,571 639,646C639,679 621,708 603,719l-63,-14C557,690 571,665 571,640C571,599 551,570 535,551z"
   id="glyph506" />
<glyph
   unicode="đ"
   horiz-adv-x="564"
   d="M568,552l0,55l-77,0l0,103l-88,0l0,-103l-197,0l0,-55l197,0l0,-131l-2,0C379,460 329,495 255,495C137,495 37,396 38,235C38,88 128,-11 245,-11C324,-11 383,30 410,84l2,0l4,-84l79,0C492,33 491,82 491,125l0,427M403,203C403,189 402,177 399,165C383,99 329,60 270,60C175,60 127,141 127,239C127,346 181,426 272,426C338,426 386,380 399,324C402,313 403,298 403,287z"
   id="glyph508" />
<glyph
   unicode="°"
   horiz-adv-x="318"
   d="M162,685C88,685 28,627 29,550C29,480 82,421 160,421C229,421 294,474 294,555C294,623 244,685 162,685M161,638C218,638 240,591 240,554C240,505 206,468 161,468C117,468 83,504 83,550C83,593 109,638 161,638z"
   id="glyph510" />
<glyph
   unicode="δ"
   horiz-adv-x="546"
   d="M466,673C437,696 376,721 306,721C193,721 138,662 138,608C138,562 176,527 199,508l23,-18l0,-5C123,438 38,356 38,232C38,77 148,-11 273,-11C403,-11 508,86 508,236C508,332 460,402 380,463l-82,66C253,565 226,584 226,610C226,634 253,655 308,655C363,655 419,630 440,615M326,402C388,354 420,298 420,230C420,120 355,55 278,55C202,55 127,120 127,233C127,339 197,404 273,444z"
   id="glyph512" />
<glyph
   unicode="¨"
   horiz-adv-x="300"
   d="M58,570C87,570 107,594 107,621C107,650 86,672 58,672C30,672 7,649 7,621C7,594 28,570 58,570M243,570C272,570 292,594 292,621C292,650 271,672 243,672C215,672 193,649 193,621C193,594 213,570 243,570z"
   id="glyph514" />
<glyph
   unicode=""
   horiz-adv-x="300"
   d="M58,721C87,721 106,744 106,772C106,800 86,822 58,822C30,822 9,799 9,772C9,744 28,721 58,721M243,721C273,721 292,744 292,772C292,800 272,822 244,822C215,822 194,799 194,772C194,744 214,721 243,721z"
   id="glyph516" />
<glyph
   unicode=""
   horiz-adv-x="301"
   d="M24,573C52,573 72,594 72,622C72,650 52,672 25,672C-3,672 -24,649 -24,622C-24,596 -4,573 24,573M271,573C299,573 319,594 319,622C319,650 299,672 272,672C244,672 223,649 223,622C223,596 243,573 271,573M151,701l-77,-143l58,0l111,143z"
   id="glyph518" />
<glyph
   unicode=""
   horiz-adv-x="301"
   d="M28,573C56,573 76,594 76,622C76,650 56,672 29,672C2,672 -20,649 -20,622C-20,596 0,573 28,573M269,573C298,573 318,594 318,622C318,650 298,672 270,672C243,672 222,649 222,622C222,596 241,573 269,573M56,701l112,-143l57,0l-77,143z"
   id="glyph520" />
<glyph
   unicode=""
   horiz-adv-x="301"
   d="M13,721C42,721 61,742 61,770C61,798 42,819 15,819C-13,819 -33,797 -33,770C-33,743 -14,721 13,721M287,721C316,721 335,742 335,770C335,798 316,819 289,819C261,819 241,797 241,770C241,743 260,721 287,721M57,828l116,-117l67,0l-81,117z"
   id="glyph522" />
<glyph
   unicode="΅"
   horiz-adv-x="346"
   d="M153,710l-22,-157l48,0l49,157M51,573C78,573 97,595 97,621C97,648 77,668 52,668C25,668 4,647 4,621C4,595 23,573 51,573M293,573C321,573 339,595 339,621C339,648 320,668 293,668C267,668 246,647 246,621C246,595 265,573 293,573z"
   id="glyph524" />
<glyph
   unicode="÷"
   horiz-adv-x="596"
   d="M298,387C331,387 351,411 351,442C351,475 330,498 299,498C267,498 245,475 245,442C245,411 266,387 298,387M556,237l0,60l-516,0l0,-60M298,36C331,36 351,60 351,91C351,124 330,147 299,147C267,147 245,124 245,91C245,60 266,36 298,36z"
   id="glyph526" />
<glyph
   unicode="$"
   horiz-adv-x="513"
   d="M281,-86l0,104C384,35 439,109 439,188C439,277 387,329 284,371C197,407 160,433 160,485C160,525 189,571 266,571C330,571 371,549 392,537l25,66C388,620 347,636 287,638l0,97l-62,0l0,-101C133,619 74,556 74,473C74,386 137,340 239,300C313,270 352,236 352,181C352,124 304,83 233,83C177,83 125,102 89,126l-24,-67C100,34 160,16 218,15l0,-101z"
   id="glyph528" />
<glyph
   unicode=""
   horiz-adv-x="317"
   d="M179,-51l0,61C245,21 280,66 280,115C280,169 249,201 182,225C126,246 106,260 106,287C106,309 121,333 167,333C208,333 236,319 249,311l16,49C247,370 219,381 182,382l0,56l-45,0l0,-59C77,369 41,330 41,279C41,224 80,197 146,173C193,155 214,139 214,109C214,79 187,58 145,58C109,58 76,70 52,85l-17,-51C58,20 96,8 134,8l0,-59z"
   id="glyph530" />
<glyph
   unicode=""
   horiz-adv-x="317"
   d="M179,-198l0,61C245,-126 280,-81 280,-32C280,22 249,54 182,78C126,99 106,113 106,140C106,162 121,186 167,186C208,186 236,172 249,164l16,49C247,223 219,234 182,235l0,56l-45,0l0,-59C77,222 41,183 41,132C41,77 80,50 146,26C193,8 214,-8 214,-38C214,-68 187,-89 145,-89C109,-89 76,-77 52,-62l-17,-51C58,-127 96,-139 134,-139l0,-59z"
   id="glyph532" />
<glyph
   unicode=""
   horiz-adv-x="317"
   d="M179,215l0,61C245,287 280,332 280,381C280,435 249,467 182,491C126,512 106,526 106,553C106,575 121,599 167,599C208,599 236,585 249,577l16,49C247,636 219,647 182,648l0,56l-45,0l0,-59C77,635 41,596 41,545C41,490 80,463 146,439C193,421 214,405 214,375C214,345 187,324 145,324C109,324 76,336 52,351l-17,-51C58,286 96,274 134,274l0,-59z"
   id="glyph534" />
<glyph
   unicode=""
   horiz-adv-x="317"
   d="M179,392l0,61C245,464 280,509 280,557C280,612 249,643 182,668C126,689 106,702 106,729C106,751 121,775 167,775C208,775 236,761 249,754l16,49C247,813 219,823 182,824l0,56l-45,0l0,-59C77,812 41,772 41,721C41,667 80,640 146,615C193,598 214,581 214,552C214,522 187,501 145,501C109,501 76,512 52,528l-17,-51C58,462 96,451 134,450l0,-58z"
   id="glyph536" />
<glyph
   unicode=""
   horiz-adv-x="530"
   d="M295,-81l0,82C391,15 444,76 444,139C444,204 398,247 298,279C212,308 189,326 189,362C189,399 231,423 285,423C333,423 378,407 401,393l24,60C400,467 355,483 301,485l0,83l-57,0l0,-86C159,472 101,422 101,356C101,288 151,253 254,218C325,194 354,174 354,134C354,90 306,63 248,63C200,63 143,79 114,99l-24,-61C124,16 184,0 238,-1l0,-80z"
   id="glyph538" />
<glyph
   unicode="₫"
   horiz-adv-x="513"
   d="M89,98l0,-59l337,0l0,59M346,664l0,-68l-127,0l0,-49l127,0l0,-86l-2,0C325,489 288,512 236,512C143,512 67,442 68,327C68,223 136,153 226,153C286,153 329,180 351,218l2,0l3,-57l69,0C423,184 422,219 422,250l0,297l62,0l0,49l-62,0l0,68M346,311C346,302 344,292 342,284C331,240 290,213 246,213C182,213 147,265 147,331C147,402 185,453 250,453C297,453 333,421 343,384C345,377 346,366 346,358z"
   id="glyph540" />
<glyph
   unicode=""
   horiz-adv-x="513"
   d="M346,664l0,-68l-127,0l0,-49l127,0l0,-86l-2,0C325,489 288,512 236,512C143,512 67,442 68,327C68,223 136,153 226,153C286,153 329,180 351,218l2,0l3,-57l69,0C423,184 422,219 422,250l0,297l62,0l0,49l-62,0l0,68M346,311C346,302 344,292 342,284C331,240 290,213 246,213C182,213 147,265 147,331C147,402 185,453 250,453C297,453 333,421 343,384C345,377 346,366 346,358z"
   id="glyph542" />
<glyph
   unicode="˙"
   horiz-adv-x="300"
   d="M140,570C169,570 189,594 189,621C189,650 168,673 140,673C111,673 89,650 89,621C89,594 110,570 140,570z"
   id="glyph544" />
<glyph
   unicode=""
   horiz-adv-x="300"
   d="M151,721C179,721 200,746 200,772C200,798 179,822 152,822C123,822 101,798 101,772C101,746 123,721 151,721z"
   id="glyph546" />
<glyph
   unicode="ı"
   horiz-adv-x="234"
   d="M161,0l0,484l-88,0l0,-484z"
   id="glyph548" />
<glyph
   unicode="e"
   horiz-adv-x="501"
   d="M462,226C463,235 465,249 465,267C465,356 423,495 265,495C124,495 38,380 38,234C38,88 127,-10 276,-10C353,-10 406,6 437,20l-15,63C389,69 351,58 288,58C200,58 124,107 122,226M123,289C130,350 169,432 258,432C357,432 381,345 380,289z"
   id="glyph550" />
<glyph
   unicode="é"
   horiz-adv-x="501"
   d="M462,226C463,235 465,249 465,267C465,356 423,495 265,495C124,495 38,380 38,234C38,88 127,-10 276,-10C353,-10 406,6 437,20l-15,63C389,69 351,58 288,58C200,58 124,107 122,226M123,289C130,350 169,432 258,432C357,432 381,345 380,289M304,693l-88,-143l63,0l122,143z"
   id="glyph552" />
<glyph
   unicode="ĕ"
   horiz-adv-x="501"
   d="M462,226C463,235 465,249 465,267C465,356 423,495 265,495C124,495 38,380 38,234C38,88 127,-10 276,-10C353,-10 406,6 437,20l-15,63C389,69 351,58 288,58C200,58 124,107 122,226M123,289C130,350 169,432 258,432C357,432 381,345 380,289M129,682C129,620 165,558 253,558C328,558 377,608 377,682l-52,0C322,649 300,613 253,613C212,613 187,643 181,682z"
   id="glyph554" />
<glyph
   unicode="ě"
   horiz-adv-x="501"
   d="M462,226C463,235 465,249 465,267C465,356 423,495 265,495C124,495 38,380 38,234C38,88 127,-10 276,-10C353,-10 406,6 437,20l-15,63C389,69 351,58 288,58C200,58 124,107 122,226M123,289C130,350 169,432 258,432C357,432 381,345 380,289M285,550l94,143l-65,0l-60,-95l-2,0l-59,95l-67,0l96,-143z"
   id="glyph556" />
<glyph
   unicode="ê"
   horiz-adv-x="501"
   d="M462,226C463,235 465,249 465,267C465,356 423,495 265,495C124,495 38,380 38,234C38,88 127,-10 276,-10C353,-10 406,6 437,20l-15,63C389,69 351,58 288,58C200,58 124,107 122,226M123,289C130,350 169,432 258,432C357,432 381,345 380,289M232,693l-95,-143l66,0l58,95l2,0l58,-95l67,0l-96,143z"
   id="glyph558" />
<glyph
   unicode="ë"
   horiz-adv-x="501"
   d="M462,226C463,235 465,249 465,267C465,356 423,495 265,495C124,495 38,380 38,234C38,88 127,-10 276,-10C353,-10 406,6 437,20l-15,63C389,69 351,58 288,58C200,58 124,107 122,226M123,289C130,350 169,432 258,432C357,432 381,345 380,289M176,570C205,570 225,594 225,621C225,650 204,672 176,672C148,672 125,649 125,621C125,594 146,570 176,570M361,570C390,570 410,594 410,621C410,650 389,672 361,672C333,672 311,649 311,621C311,594 331,570 361,570z"
   id="glyph560" />
<glyph
   unicode="ė"
   horiz-adv-x="501"
   d="M462,226C463,235 465,249 465,267C465,356 423,495 265,495C124,495 38,380 38,234C38,88 127,-10 276,-10C353,-10 406,6 437,20l-15,63C389,69 351,58 288,58C200,58 124,107 122,226M123,289C130,350 169,432 258,432C357,432 381,345 380,289M255,570C284,570 304,594 304,621C304,650 283,673 255,673C226,673 204,650 204,621C204,594 225,570 255,570z"
   id="glyph562" />
<glyph
   unicode="è"
   horiz-adv-x="501"
   d="M462,226C463,235 465,249 465,267C465,356 423,495 265,495C124,495 38,380 38,234C38,88 127,-10 276,-10C353,-10 406,6 437,20l-15,63C389,69 351,58 288,58C200,58 124,107 122,226M123,289C130,350 169,432 258,432C357,432 381,345 380,289M135,693l122,-143l63,0l-88,143z"
   id="glyph564" />
<glyph
   unicode="8"
   horiz-adv-x="513"
   d="M255,-11C379,-11 476,65 476,178C476,257 426,314 345,346l0,3C425,387 452,446 452,501C452,582 389,661 263,661C149,661 62,591 62,488C62,432 93,376 165,342l1,-3C86,305 37,247 37,165C37,70 119,-11 255,-11M257,53C174,53 124,111 127,177C127,239 168,289 244,311C332,286 387,248 387,169C387,102 336,53 257,53M258,598C337,598 368,544 368,492C368,433 325,393 269,374C194,394 145,429 145,494C145,550 185,598 258,598z"
   id="glyph566" />
<glyph
   unicode=""
   horiz-adv-x="328"
   d="M167,395C94,395 38,352 38,290C38,255 58,223 100,203l0,-2C53,181 24,149 24,101C24,46 72,-5 162,-5C245,-5 304,41 304,110C304,158 271,191 226,208l0,2C271,230 289,265 289,298C289,347 249,395 167,395M164,42C118,42 91,74 91,109C91,142 115,169 157,181C204,168 236,148 236,105C236,69 208,42 164,42M165,349C208,349 226,319 226,291C226,259 202,237 171,228C128,239 101,258 101,293C101,323 123,349 165,349z"
   id="glyph568" />
<glyph
   unicode=""
   horiz-adv-x="513"
   d="M255,-11C379,-11 476,65 476,178C476,257 426,314 345,346l0,3C425,387 452,446 452,501C452,582 389,661 263,661C149,661 62,591 62,488C62,432 93,376 165,342l1,-3C86,305 37,247 37,165C37,70 119,-11 255,-11M257,53C174,53 124,111 127,177C127,239 168,289 244,311C332,286 387,248 387,169C387,102 336,53 257,53M258,598C337,598 368,544 368,492C368,433 325,393 269,374C194,394 145,429 145,494C145,550 185,598 258,598z"
   id="glyph570" />
<glyph
   unicode="₈"
   horiz-adv-x="328"
   d="M167,248C94,248 38,205 38,143C38,108 58,76 100,56l0,-2C53,34 24,2 24,-46C24,-101 72,-152 162,-152C245,-152 304,-106 304,-37C304,11 271,44 226,61l0,2C271,83 289,118 289,151C289,200 249,248 167,248M164,-105C118,-105 91,-73 91,-38C91,-5 115,22 157,34C204,21 236,1 236,-42C236,-78 208,-105 164,-105M165,202C208,202 226,172 226,144C226,112 202,90 171,81C128,92 101,111 101,146C101,176 123,202 165,202z"
   id="glyph572" />
<glyph
   unicode=""
   horiz-adv-x="328"
   d="M167,661C94,661 38,618 38,556C38,521 58,489 100,469l0,-2C53,447 24,415 24,367C24,312 72,261 162,261C245,261 304,307 304,376C304,424 271,457 226,474l0,2C271,496 289,531 289,564C289,613 249,661 167,661M164,308C118,308 91,340 91,375C91,408 115,435 157,447C204,434 236,414 236,371C236,335 208,308 164,308M165,615C208,615 226,585 226,557C226,525 202,503 171,494C128,505 101,524 101,559C101,589 123,615 165,615z"
   id="glyph574" />
<glyph
   unicode=""
   horiz-adv-x="513"
   d="M343,320C414,354 449,398 449,456C449,540 375,607 262,607C151,607 65,541 65,445C65,382 109,340 166,316l0,-3C92,280 41,228 41,155C41,58 128,-11 254,-11C374,-11 472,58 472,166C472,237 419,290 343,317M261,547C315,547 367,515 367,452C367,396 324,360 270,344C195,364 150,398 150,452C150,510 200,547 261,547M255,52C177,52 129,99 129,164C129,219 174,265 240,287C331,263 382,221 382,158C382,95 326,52 255,52z"
   id="glyph576" />
<glyph
   unicode="⁸"
   horiz-adv-x="328"
   d="M167,838C94,838 38,795 38,732C38,698 58,665 100,646l0,-2C53,624 24,591 24,543C24,489 72,438 162,438C245,438 304,484 304,552C304,600 271,633 226,650l0,2C271,672 289,707 289,741C289,790 249,838 167,838M164,485C118,485 91,516 91,551C91,585 115,612 157,623C204,611 236,591 236,547C236,512 208,485 164,485M165,791C208,791 226,762 226,734C226,701 202,680 171,670C128,681 101,701 101,736C101,765 123,791 165,791z"
   id="glyph578" />
<glyph
   unicode=""
   horiz-adv-x="530"
   d="M350,320C421,354 456,398 456,456C456,540 381,607 269,607C158,607 72,541 72,445C72,382 116,340 173,316l0,-3C99,280 48,228 48,155C48,58 134,-11 261,-11C381,-11 479,58 479,166C479,237 426,290 350,317M268,547C322,547 373,515 373,452C373,396 330,360 277,344C202,364 157,398 157,452C157,510 207,547 268,547M262,52C184,52 136,99 136,164C136,219 181,265 247,287C338,263 389,221 389,158C389,95 333,52 262,52z"
   id="glyph580" />
<glyph
   unicode="…"
   horiz-adv-x="1000"
   d="M167,-11C203,-11 226,16 226,52C226,89 203,115 167,115C132,115 108,89 108,52C107,16 132,-11 167,-11M500,-11C536,-11 560,16 560,52C559,89 536,115 501,115C466,115 441,89 441,52C440,16 465,-11 500,-11M833,-11C870,-11 893,16 893,52C893,89 869,115 834,115C799,115 774,89 774,52C774,16 798,-11 833,-11z"
   id="glyph582" />
<glyph
   unicode="ē"
   horiz-adv-x="501"
   d="M462,226C463,235 465,249 465,267C465,356 423,495 265,495C124,495 38,380 38,234C38,88 127,-10 276,-10C353,-10 406,6 437,20l-15,63C389,69 351,58 288,58C200,58 124,107 122,226M123,289C130,350 169,432 258,432C357,432 381,345 380,289M141,643l0,-57l225,0l0,57z"
   id="glyph584" />
<glyph
   unicode="—"
   horiz-adv-x="1000"
   d="M30,284l0,-60l940,0l0,60z"
   id="glyph586" />
<glyph
   unicode=""
   horiz-adv-x="1000"
   d="M30,359l0,-60l940,0l0,60z"
   id="glyph588" />
<glyph
   unicode="–"
   horiz-adv-x="500"
   d="M30,284l0,-60l440,0l0,60z"
   id="glyph590" />
<glyph
   unicode=""
   horiz-adv-x="500"
   d="M30,359l0,-60l440,0l0,60z"
   id="glyph592" />
<glyph
   unicode="ŋ"
   horiz-adv-x="555"
   d="M73,0l88,0l0,291C161,306 163,321 167,332C182,381 227,422 285,422C368,422 397,357 397,279l0,-228C397,-42 357,-93 278,-109l17,-70C402,-164 485,-95 485,59l0,230C485,455 381,495 314,495C234,495 178,450 154,404l-2,0l-5,80l-78,0C72,444 73,403 73,353z"
   id="glyph594" />
<glyph
   unicode="ę"
   horiz-adv-x="501"
   d="M385,-136C371,-142 352,-146 338,-146C317,-146 297,-133 297,-104C297,-63 352,-14 391,3C400,6 422,13 437,20l-15,63C389,69 351,58 288,58C200,58 124,107 122,226l340,0C463,235 465,249 465,267C465,356 423,495 265,495C124,495 38,380 38,234C38,89 127,-10 274,-10C284,-10 292,-10 301,-9l0,-1C269,-33 228,-77 228,-126C228,-176 264,-205 318,-205C348,-205 377,-197 399,-181M123,289C130,350 169,432 258,432C357,432 381,345 380,289z"
   id="glyph596" />
<glyph
   unicode="ε"
   horiz-adv-x="440"
   d="M404,93C375,76 315,56 262,56C191,56 131,87 131,144C131,202 196,226 283,226l61,0l0,63l-58,0C210,289 151,310 151,358C151,402 196,430 263,430C312,430 364,413 384,400l19,58C368,482 319,495 256,495C127,495 63,428 63,364C63,316 95,276 159,262l0,-5C88,246 39,196 39,136C39,27 146,-11 243,-11C311,-11 383,8 420,33z"
   id="glyph598" />
<glyph
   unicode="έ"
   horiz-adv-x="440"
   d="M404,93C375,76 315,56 262,56C191,56 131,87 131,144C131,202 196,226 283,226l61,0l0,63l-58,0C210,289 151,310 151,358C151,402 196,430 263,430C312,430 364,413 384,400l19,58C368,482 319,495 256,495C127,495 63,428 63,364C63,316 95,276 159,262l0,-5C88,246 39,196 39,136C39,27 146,-11 243,-11C311,-11 383,8 420,33M256,686l-54,-143l60,0l83,143z"
   id="glyph600" />
<glyph
   unicode="="
   horiz-adv-x="596"
   d="M556,337l0,60l-516,0l0,-60M556,141l0,60l-516,0l0,-60z"
   id="glyph602" />
<glyph
   unicode="℮"
   horiz-adv-x="817"
   d="M782,316C782,319 782,322 782,325C782,511 615,661 409,661C203,661 35,511 35,325C35,139 203,-11 409,-11C529,-11 637,41 705,120l-55,0C592,52 506,9 410,9C320,9 238,47 181,108C176,114 172,121 172,129l0,183C172,315 174,316 177,316M646,340C646,337 644,335 641,335l-464,0C174,335 172,337 172,340l0,180C172,529 176,537 182,543C240,603 320,641 410,641C498,641 578,604 636,546C642,540 646,533 646,524z"
   id="glyph604" />
<glyph
   unicode="η"
   horiz-adv-x="555"
   d="M161,0l0,291C161,306 163,321 167,332C182,381 227,422 285,422C368,422 397,357 397,279l0,-300C397,-85 400,-168 412,-198l83,0C485,-158 485,-74 485,-18l0,307C485,455 381,495 314,495C234,495 178,450 154,404l-2,0C152,435 147,465 138,484l-79,0C70,451 73,402 73,353l0,-353z"
   id="glyph606" />
<glyph
   unicode="ή"
   horiz-adv-x="555"
   d="M161,0l0,291C161,306 163,321 167,332C182,381 227,422 285,422C368,422 397,357 397,279l0,-300C397,-85 400,-168 412,-198l83,0C485,-158 485,-74 485,-18l0,307C485,455 381,495 314,495C234,495 178,450 154,404l-2,0C152,435 147,465 138,484l-79,0C70,451 73,402 73,353l0,-353M301,686l-54,-143l60,0l83,143z"
   id="glyph608" />
<glyph
   unicode="ð"
   horiz-adv-x="541"
   d="M267,55C186,55 127,135 127,237C127,317 167,424 271,424C322,424 355,402 377,377C402,346 411,306 411,243C411,133 355,55 267,55M116,507l142,66C309,535 347,492 376,444l-2,-3C336,477 300,484 263,484C148,484 38,393 38,236C38,85 136,-11 267,-11C383,-11 502,67 501,253C501,327 486,391 459,447C430,507 386,561 331,606l106,50l-21,44l-128,-61C245,670 195,698 147,720l-38,-55C146,647 183,627 213,605l-116,-55z"
   id="glyph610" />
<glyph
   unicode="!"
   horiz-adv-x="230"
   d="M149,194l14,480l-96,0l14,-480M115,-11C151,-11 174,16 174,51C174,87 151,113 115,113C81,113 56,87 56,51C56,16 80,-11 115,-11z"
   id="glyph612" />
<glyph
   unicode="¡"
   horiz-adv-x="230"
   d="M164,-198l-15,477l-68,0l-14,-477M116,488C81,488 56,462 56,426C56,391 80,364 115,364C151,364 174,391 174,426C174,462 151,488 116,488z"
   id="glyph614" />
<glyph
   unicode=""
   horiz-adv-x="230"
   d="M164,-3l-15,477l-68,0l-14,-477M116,683C81,683 56,657 56,620C56,585 80,558 115,558C151,558 174,585 174,620C174,657 151,683 116,683z"
   id="glyph616" />
<glyph
   unicode="f"
   horiz-adv-x="292"
   d="M169,0l0,417l117,0l0,67l-117,0l0,26C169,584 188,650 263,650C288,650 306,645 319,639l12,68C314,714 287,721 256,721C215,721 171,708 138,676C97,637 82,575 82,507l0,-23l-68,0l0,-67l68,0l0,-417z"
   id="glyph618" />
<glyph
   unicode="ﬀ"
   horiz-adv-x="583"
   d="M460,0l0,417l116,0l0,67l-117,0l0,26C459,584 479,650 553,650C579,650 596,645 610,639l11,68C604,714 578,721 546,721C506,721 462,708 429,676C388,637 372,575 372,507l0,-23l-203,0l0,21C169,581 188,640 257,640C277,640 296,634 309,628l18,65C312,701 286,710 258,710C204,710 164,693 136,665C98,627 82,568 82,500l0,-16l-68,0l0,-67l68,0l0,-417l87,0l0,417l203,0l0,-417z"
   id="glyph620" />
<glyph
   unicode="ﬃ"
   horiz-adv-x="815"
   d="M705,690C679,708 629,721 585,721C449,721 373,638 373,510l0,-26l-204,0l0,19C169,545 177,589 201,615C216,631 236,641 264,641C287,641 310,632 325,624l24,65C331,698 297,710 264,710C210,710 168,692 140,663C98,622 82,563 82,502l0,-18l-68,0l0,-67l68,0l0,-417l87,0l0,417l204,0l0,-417l88,0l0,417l193,0l0,-417l88,0l0,484l-282,0l0,24C460,585 488,650 581,650C621,650 657,638 679,624z"
   id="glyph622" />
<glyph
   unicode=""
   horiz-adv-x="809"
   d="M705,690C679,708 629,721 585,721C449,721 373,638 373,510l0,-26l-204,0l0,19C169,545 177,589 201,615C216,631 236,641 264,641C287,641 310,632 325,624l24,65C331,698 297,710 264,710C210,710 168,692 140,663C98,622 82,563 82,502l0,-18l-68,0l0,-67l68,0l0,-417l87,0l0,417l204,0l0,-417l88,0l0,417l193,0l0,-338C654,-37 645,-75 621,-103C600,-126 565,-137 525,-140l9,-69C581,-209 645,-193 684,-154C727,-110 742,-49 742,45l0,439l-282,0l0,24C460,585 488,650 581,650C621,650 657,638 679,624z"
   id="glyph624" />
<glyph
   unicode="ﬄ"
   horiz-adv-x="815"
   d="M349,692C334,699 301,710 269,710C214,710 169,692 138,662C96,621 82,559 82,496l0,-12l-68,0l0,-67l68,0l0,-417l87,0l0,417l204,0l0,-417l88,0l0,417l113,0l0,67l-114,0l0,24C460,586 491,653 582,653C617,653 639,648 655,640l0,-640l87,0l0,689C705,709 653,721 597,721C529,721 479,704 442,672C397,632 373,572 373,505l0,-21l-204,0l0,20C169,548 177,589 201,615C216,631 237,641 266,641C287,641 308,635 326,626z"
   id="glyph626" />
<glyph
   unicode=""
   horiz-adv-x="522"
   d="M169,0l0,417l194,0l0,-338C363,-37 353,-75 329,-103C308,-126 274,-137 233,-140l9,-69C289,-209 354,-193 392,-154C435,-110 450,-49 450,45l0,439l-281,0l0,24C169,585 196,650 289,650C332,650 370,637 391,622l25,67C391,707 338,721 293,721C157,721 82,638 82,510l0,-26l-68,0l0,-67l68,0l0,-417z"
   id="glyph628" />
<glyph
   unicode="ﬁ"
   horiz-adv-x="523"
   d="M169,0l0,417l194,0l0,-417l87,0l0,484l-281,0l0,24C169,585 196,650 289,650C332,650 370,637 391,622l25,67C391,707 338,721 293,721C157,721 82,638 82,510l0,-26l-68,0l0,-67l68,0l0,-417z"
   id="glyph630" />
<glyph
   unicode="5"
   horiz-adv-x="513"
   d="M433,650l-311,0l-42,-312C104,341 133,345 170,345C300,345 356,285 357,201C357,114 286,60 203,60C144,60 91,80 64,96l-22,-67C73,9 133,-11 204,-11C345,-11 446,84 446,211C446,293 404,349 353,378C313,402 263,413 213,413C189,413 175,411 160,409l25,167l248,0z"
   id="glyph632" />
<glyph
   unicode=""
   horiz-adv-x="308"
   d="M268,390l-202,0l-26,-191C55,200 74,203 97,203C178,203 210,170 210,123C210,76 167,47 122,47C84,47 50,59 33,69l-14,-50C39,7 80,-5 123,-5C216,-5 279,52 279,129C279,178 254,213 223,230C197,246 164,252 131,252C118,252 108,251 100,250l13,85l155,0z"
   id="glyph634" />
<glyph
   unicode=""
   horiz-adv-x="460"
   d="M406,650l-311,0l-42,-312C77,341 106,345 143,345C273,345 329,285 330,201C330,114 259,60 176,60C117,60 64,80 37,96l-22,-67C46,9 106,-11 177,-11C318,-11 419,84 419,211C419,293 376,349 326,378C286,402 236,413 186,413C162,413 148,411 133,409l25,167l248,0z"
   id="glyph636" />
<glyph
   unicode="₅"
   horiz-adv-x="308"
   d="M268,243l-202,0l-26,-191C55,53 74,56 97,56C178,56 210,23 210,-24C210,-71 167,-100 122,-100C84,-100 50,-88 33,-78l-14,-50C39,-140 80,-152 123,-152C216,-152 279,-95 279,-18C279,31 254,66 223,83C197,99 164,105 131,105C118,105 108,104 100,103l13,85l155,0z"
   id="glyph638" />
<glyph
   unicode=""
   horiz-adv-x="308"
   d="M268,656l-202,0l-26,-191C55,466 74,469 97,469C178,469 210,436 210,389C210,342 167,313 122,313C84,313 50,325 33,335l-14,-50C39,273 80,261 123,261C216,261 279,318 279,395C279,444 254,479 223,496C197,512 164,518 131,518C118,518 108,517 100,516l13,85l155,0z"
   id="glyph640" />
<glyph
   unicode=""
   horiz-adv-x="441"
   d="M36,-98C61,-108 106,-116 150,-116C299,-116 402,-35 402,88C402,131 386,172 356,201C303,252 218,264 135,262l30,150l217,0l11,72l-287,0l-52,-287C164,205 243,193 282,154C301,135 313,110 313,81C313,-3 234,-48 149,-48C111,-48 70,-42 47,-35z"
   id="glyph642" />
<glyph
   unicode="⁵"
   horiz-adv-x="308"
   d="M268,833l-202,0l-26,-192C55,643 74,645 97,645C178,645 210,612 210,566C210,518 167,490 122,490C84,490 50,502 33,511l-14,-50C39,450 80,438 123,438C216,438 279,495 279,572C279,621 254,655 223,672C197,688 164,694 131,694C118,694 108,694 100,693l13,84l155,0z"
   id="glyph644" />
<glyph
   unicode=""
   horiz-adv-x="530"
   d="M78,-98C103,-108 148,-116 192,-116C341,-116 444,-35 444,88C444,131 428,172 398,201C345,252 260,264 178,262l29,150l217,0l11,72l-287,0l-51,-287C206,205 285,193 324,154C344,135 355,110 355,81C355,-3 276,-48 191,-48C153,-48 112,-42 89,-35z"
   id="glyph646" />
<glyph
   unicode="ﬂ"
   horiz-adv-x="523"
   d="M169,0l0,417l113,0l0,67l-113,0l0,24C169,586 199,653 291,653C325,653 348,648 363,640l0,-640l87,0l0,689C414,709 361,721 305,721C238,721 188,704 150,672C105,632 82,572 82,505l0,-21l-68,0l0,-67l68,0l0,-417z"
   id="glyph648" />
<glyph
   unicode="ƒ"
   horiz-adv-x="513"
   d="M111,338l92,0l-23,-197C168,39 145,-16 83,-16C62,-16 44,-13 27,-5l-16,-63C28,-77 56,-84 89,-84C206,-84 247,4 263,133l24,205l128,0l0,63l-120,0l6,52C309,527 339,592 407,592C427,592 444,588 459,582l16,64C461,654 437,660 407,661C272,661 228,546 216,447l-6,-46l-99,0z"
   id="glyph650" />
<glyph
   unicode=""
   horiz-adv-x="530"
   d="M128,282l92,0l-20,-174C188,5 164,-49 103,-50C82,-49 64,-46 47,-38l-16,-63C47,-110 75,-117 108,-117C226,-118 267,-29 282,100l22,182l128,0l0,58l-121,0l7,59C326,473 356,538 424,538C445,538 461,533 476,528l17,64C479,599 454,607 424,607C290,608 245,492 233,393l-6,-53l-99,0z"
   id="glyph652" />
<glyph
   unicode="4"
   horiz-adv-x="513"
   d="M400,0l0,177l91,0l0,69l-91,0l0,404l-95,0l-290,-415l0,-58l302,0l0,-177M104,246l0,2l159,221C281,499 297,527 317,565l3,0C318,531 317,497 317,463l0,-217z"
   id="glyph654" />
<glyph
   unicode=""
   horiz-adv-x="347"
   d="M272,0l0,103l56,0l0,49l-56,0l0,240l-79,0l-177,-249l0,-40l189,0l0,-103M205,152l-119,0l-1,2l87,120C184,292 194,310 206,333l2,0C207,313 205,292 205,270z"
   id="glyph656" />
<glyph
   unicode=""
   horiz-adv-x="503"
   d="M396,0l0,177l91,0l0,69l-91,0l0,404l-95,0l-290,-415l0,-58l302,0l0,-177M100,246l0,2l159,221C277,499 292,527 313,565l3,0C314,531 313,497 313,463l0,-217z"
   id="glyph658" />
<glyph
   unicode="₄"
   horiz-adv-x="347"
   d="M272,-147l0,103l56,0l0,49l-56,0l0,240l-79,0l-177,-249l0,-40l189,0l0,-103M205,5l-119,0l-1,2l87,120C184,145 194,163 206,186l2,0C207,166 205,145 205,123z"
   id="glyph660" />
<glyph
   unicode=""
   horiz-adv-x="347"
   d="M272,266l0,103l56,0l0,49l-56,0l0,240l-79,0l-177,-249l0,-40l189,0l0,-103M205,418l-119,0l-1,2l87,120C184,558 194,576 206,599l2,0C207,579 205,558 205,536z"
   id="glyph662" />
<glyph
   unicode=""
   horiz-adv-x="502"
   d="M483,50l0,67l-91,0l0,374l-95,0l-279,-384l0,-57l292,0l0,-165l82,0l0,165M310,117l-203,0l-2,3l150,198C274,347 293,380 309,412l4,-1C310,380 310,350 310,317z"
   id="glyph664" />
<glyph
   unicode="⁴"
   horiz-adv-x="347"
   d="M272,443l0,102l56,0l0,50l-56,0l0,240l-79,0l-177,-249l0,-41l189,0l0,-102M205,595l-119,0l-1,1l87,121C184,735 194,752 206,776l2,-1C207,756 205,734 205,712z"
   id="glyph666" />
<glyph
   unicode=""
   horiz-adv-x="530"
   d="M497,50l0,67l-91,0l0,374l-95,0l-279,-384l0,-57l292,0l0,-165l82,0l0,165M324,117l-203,0l-2,3l150,198C288,347 307,380 323,412l4,-1C324,380 324,350 324,317z"
   id="glyph668" />
<glyph
   unicode="⁄"
   horiz-adv-x="121"
   d="M-101,-11l380,672l-57,0l-379,-672z"
   id="glyph670" />
<glyph
   unicode="g"
   horiz-adv-x="559"
   d="M413,484l-4,-73l-2,0C386,451 340,495 256,495C145,495 38,402 38,238C38,104 124,2 244,2C319,2 371,38 398,83l2,0l0,-54C400,-93 334,-140 244,-140C184,-140 134,-122 102,-102l-22,-67C119,-195 183,-209 241,-209C302,-209 370,-195 417,-151C464,-109 486,-41 486,70l0,281C486,410 488,449 490,484M399,206C399,191 397,174 392,159C373,103 324,69 270,69C175,69 127,148 127,243C127,355 187,426 271,426C335,426 378,384 394,333C398,321 399,308 399,293z"
   id="glyph672" />
<glyph
   unicode=""
   horiz-adv-x="559"
   d="M413,484l-4,-73l-2,0C386,451 340,495 256,495C145,495 38,402 38,238C38,104 124,2 244,2C319,2 371,38 398,83l2,0l0,-54C400,-93 334,-140 244,-140C184,-140 134,-122 102,-102l-22,-67C119,-195 183,-209 241,-209C302,-209 370,-195 417,-151C464,-109 486,-41 486,70l0,281C486,410 488,449 490,484M399,206C399,191 397,174 392,159C373,103 324,69 270,69C175,69 127,148 127,243C127,355 187,426 271,426C335,426 378,384 394,333C398,321 399,308 399,293M205,567C207,595 215,612 231,612C243,612 254,606 274,594C294,583 313,574 335,574C382,574 404,608 403,675l-47,0C354,641 345,632 329,632C317,632 303,640 287,649C264,662 246,671 225,671C182,671 155,632 157,567z"
   id="glyph674" />
<glyph
   unicode="γ"
   horiz-adv-x="464"
   d="M269,-198C269,-130 269,-55 266,2C266,11 266,18 272,26C365,167 443,327 443,451C443,463 442,475 440,484l-83,0C357,475 358,465 358,450C358,331 288,188 244,107l-4,0C210,256 137,418 93,484l-99,0C43,409 129,246 165,86C188,-10 186,-106 183,-198z"
   id="glyph676" />
<glyph
   unicode="ğ"
   horiz-adv-x="559"
   d="M413,484l-4,-73l-2,0C386,451 340,495 256,495C145,495 38,402 38,238C38,104 124,2 244,2C319,2 371,38 398,83l2,0l0,-54C400,-93 334,-140 244,-140C184,-140 134,-122 102,-102l-22,-67C119,-195 183,-209 241,-209C302,-209 370,-195 417,-151C464,-109 486,-41 486,70l0,281C486,410 488,449 490,484M399,206C399,191 397,174 392,159C373,103 324,69 270,69C175,69 127,148 127,243C127,355 187,426 271,426C335,426 378,384 394,333C398,321 399,308 399,293M148,682C148,620 184,558 272,558C347,558 396,608 396,682l-52,0C341,649 319,613 272,613C231,613 206,643 200,682z"
   id="glyph678" />
<glyph
   unicode="ĝ"
   horiz-adv-x="559"
   d="M413,484l-4,-73l-2,0C386,451 340,495 256,495C145,495 38,402 38,238C38,104 124,2 244,2C319,2 371,38 398,83l2,0l0,-54C400,-93 334,-140 244,-140C184,-140 134,-122 102,-102l-22,-67C119,-195 183,-209 241,-209C302,-209 370,-195 417,-151C464,-109 486,-41 486,70l0,281C486,410 488,449 490,484M399,206C399,191 397,174 392,159C373,103 324,69 270,69C175,69 127,148 127,243C127,355 187,426 271,426C335,426 378,384 394,333C398,321 399,308 399,293M248,697l-94,-144l65,0l58,95l2,0l58,-95l68,0l-96,144z"
   id="glyph680" />
<glyph
   unicode="ġ"
   horiz-adv-x="559"
   d="M413,484l-4,-73l-2,0C386,451 340,495 256,495C145,495 38,402 38,238C38,104 124,2 244,2C319,2 371,38 398,83l2,0l0,-54C400,-93 334,-140 244,-140C184,-140 134,-122 102,-102l-22,-67C119,-195 183,-209 241,-209C302,-209 370,-195 417,-151C464,-109 486,-41 486,70l0,281C486,410 488,449 490,484M399,206C399,191 397,174 392,159C373,103 324,69 270,69C175,69 127,148 127,243C127,355 187,426 271,426C335,426 378,384 394,333C398,321 399,308 399,293M279,573C308,573 328,597 328,624C328,653 307,676 279,676C250,676 228,653 228,624C228,597 249,573 279,573z"
   id="glyph682" />
<glyph
   unicode="ß"
   horiz-adv-x="548"
   d="M161,0l0,456C161,598 204,652 281,652C343,652 385,612 385,543C385,526 381,512 376,500C319,472 287,428 287,377C287,321 323,284 365,244C401,211 419,183 419,141C419,95 385,57 321,57C291,57 263,64 237,77l-16,-67C250,-5 290,-11 327,-11C438,-11 506,54 506,148C506,220 465,262 425,302C394,334 374,355 374,389C374,423 401,451 446,470C457,486 469,517 469,552C469,661 386,721 291,721C230,721 182,704 144,670C100,630 73,566 73,452l0,-452z"
   id="glyph684" />
<glyph
   unicode="`"
   horiz-adv-x="300"
   d="M22,693l122,-143l62,0l-87,143z"
   id="glyph686" />
<glyph
   unicode=""
   horiz-adv-x="300"
   d="M-2,827l127,-116l72,0l-93,116z"
   id="glyph688" />
<glyph
   unicode="&gt;"
   horiz-adv-x="596"
   d="M530,294l-464,238l0,-69l394,-196l0,-2l-394,-196l0,-69l464,238z"
   id="glyph690" />
<glyph
   unicode="≥"
   horiz-adv-x="596"
   d="M530,292l0,59l-464,192l0,-66l382,-155l0,-2l-382,-154l0,-67M528,0l0,58l-462,0l0,-58z"
   id="glyph692" />
<glyph
   unicode="«"
   horiz-adv-x="419"
   d="M232,436l-71,0l-132,-184l132,-184l71,0l-134,184M396,436l-71,0l-132,-184l132,-184l71,0l-134,184z"
   id="glyph694" />
<glyph
   unicode=""
   horiz-adv-x="419"
   d="M232,511l-71,0l-132,-184l132,-184l71,0l-134,184M396,511l-71,0l-132,-184l132,-184l71,0l-134,184z"
   id="glyph696" />
<glyph
   unicode="»"
   horiz-adv-x="419"
   d="M157,252l-133,-184l70,0l133,184l-133,184l-71,0M320,252l-133,-184l70,0l133,184l-133,184l-71,0z"
   id="glyph698" />
<glyph
   unicode=""
   horiz-adv-x="419"
   d="M157,327l-133,-184l70,0l133,184l-133,184l-71,0M320,327l-133,-184l70,0l133,184l-133,184l-71,0z"
   id="glyph700" />
<glyph
   unicode="‹"
   horiz-adv-x="255"
   d="M232,436l-71,0l-132,-184l132,-184l71,0l-134,184z"
   id="glyph702" />
<glyph
   unicode=""
   horiz-adv-x="255"
   d="M232,511l-71,0l-132,-184l132,-184l71,0l-134,184z"
   id="glyph704" />
<glyph
   unicode="›"
   horiz-adv-x="255"
   d="M157,252l-134,-184l71,0l133,184l-134,184l-70,0z"
   id="glyph706" />
<glyph
   unicode=""
   horiz-adv-x="255"
   d="M157,327l-134,-184l71,0l133,184l-134,184l-70,0z"
   id="glyph708" />
<glyph
   unicode="h"
   horiz-adv-x="555"
   d="M73,0l88,0l0,292C161,309 162,322 167,334C183,382 228,422 285,422C368,422 397,356 397,278l0,-278l88,0l0,288C485,455 381,495 316,495C283,495 252,485 226,470C199,455 177,433 163,408l-2,0l0,302l-88,0z"
   id="glyph710" />
<glyph
   unicode="ħ"
   horiz-adv-x="555"
   d="M485,0l0,288C485,455 381,495 316,495C283,495 252,485 226,470C199,455 177,433 163,408l-2,0l0,144l193,0l0,55l-193,0l0,103l-88,0l0,-103l-77,0l0,-55l77,0l0,-552l88,0l0,292C161,309 162,322 167,334C183,382 228,422 285,422C368,422 397,356 397,278l0,-278z"
   id="glyph712" />
<glyph
   unicode="ĥ"
   horiz-adv-x="555"
   d="M73,0l88,0l0,292C161,309 162,322 167,334C183,382 228,422 285,422C368,422 397,356 397,278l0,-278l88,0l0,288C485,455 381,495 316,495C283,495 252,485 226,470C199,455 177,433 163,408l-2,0l0,302l-88,0M86,843l-102,-114l71,0l64,69l2,0l63,-69l74,0l-105,114z"
   id="glyph714" />
<glyph
   unicode="˝"
   horiz-adv-x="300"
   d="M123,693l-79,-137l55,0l110,137M267,693l-79,-137l55,0l110,137z"
   id="glyph716" />
<glyph
   unicode=""
   horiz-adv-x="300"
   d="M117,827l-80,-112l64,0l111,112M264,827l-80,-112l64,0l112,112z"
   id="glyph718" />
<glyph
   unicode="-"
   horiz-adv-x="307"
   d="M30,303l0,-65l247,0l0,65z"
   id="glyph720" />
<glyph
   unicode=""
   horiz-adv-x="307"
   d="M30,378l0,-65l247,0l0,65z"
   id="glyph722" />
<glyph
   unicode=""
   horiz-adv-x="191"
   d="M18,208l0,-48l155,0l0,48z"
   id="glyph724" />
<glyph
   unicode=""
   horiz-adv-x="191"
   d="M18,61l0,-48l155,0l0,48z"
   id="glyph726" />
<glyph
   unicode=""
   horiz-adv-x="191"
   d="M18,474l0,-48l155,0l0,48z"
   id="glyph728" />
<glyph
   unicode=""
   horiz-adv-x="191"
   d="M18,650l0,-48l155,0l0,48z"
   id="glyph730" />
<glyph
   unicode="i"
   horiz-adv-x="234"
   d="M161,0l0,484l-88,0l0,-484M117,675C85,675 62,651 62,620C62,590 84,566 115,566C150,566 172,590 171,620C171,651 150,675 117,675z"
   id="glyph732" />
<glyph
   unicode="í"
   horiz-adv-x="234"
   d="M161,0l0,484l-88,0l0,-484M155,693l-88,-143l63,0l122,143z"
   id="glyph734" />
<glyph
   unicode="ĭ"
   horiz-adv-x="234"
   d="M161,0l0,484l-88,0l0,-484M-4,682C-4,620 32,558 120,558C195,558 244,608 244,682l-52,0C189,649 167,613 120,613C79,613 54,643 48,682z"
   id="glyph736" />
<glyph
   unicode="î"
   horiz-adv-x="234"
   d="M161,0l0,484l-88,0l0,-484M86,693l-94,-143l65,0l58,95l2,0l58,-95l68,0l-96,143z"
   id="glyph738" />
<glyph
   unicode="ï"
   horiz-adv-x="234"
   d="M161,0l0,484l-88,0l0,-484M25,570C54,570 74,594 74,621C74,650 53,672 25,672C-3,672 -26,649 -26,621C-26,594 -5,570 25,570M210,570C239,570 259,594 259,621C259,650 238,672 210,672C182,672 160,649 160,621C160,594 180,570 210,570z"
   id="glyph740" />
<glyph
   unicode="ì"
   horiz-adv-x="234"
   d="M161,0l0,484l-88,0l0,-484M-28,693l123,-143l62,0l-88,143z"
   id="glyph742" />
<glyph
   unicode="ĳ"
   horiz-adv-x="477"
   d="M161,0l0,484l-88,0l0,-484M117,675C85,675 62,651 62,620C62,590 84,566 115,566C150,566 172,590 171,620C171,651 150,675 117,675M198,-209C245,-209 309,-193 348,-154C391,-110 406,-49 406,45l0,439l-88,0l0,-405C318,-37 308,-75 284,-103C263,-126 229,-137 188,-140M363,675C330,675 307,651 307,620C307,591 328,566 361,566C396,566 416,591 416,620C416,651 395,675 363,675z"
   id="glyph744" />
<glyph
   unicode="ī"
   horiz-adv-x="234"
   d="M161,0l0,484l-88,0l0,-484M5,643l0,-57l225,0l0,57z"
   id="glyph746" />
<glyph
   unicode="∞"
   horiz-adv-x="728"
   d="M541,116C629,116 693,185 693,264C693,350 634,412 549,412C468,412 415,356 364,305C316,353 261,412 187,412C99,412 35,343 35,264C35,178 95,116 179,116C260,116 313,172 364,223C412,175 467,116 541,116M542,176C484,176 443,228 404,264C442,303 488,352 545,352C594,352 630,315 630,264C630,217 592,176 542,176M183,176C134,176 98,213 98,264C98,311 136,352 186,352C244,352 285,300 324,264C286,225 240,176 183,176z"
   id="glyph748" />
<glyph
   unicode="∫"
   horiz-adv-x="316"
   d="M306,788C296,792 280,795 261,795C227,795 196,784 172,758C136,719 120,663 120,562C120,415 132,237 132,86C132,-10 118,-47 101,-68C89,-83 73,-89 57,-89C43,-89 30,-86 22,-83l-12,-58C19,-146 41,-150 64,-150C102,-150 137,-134 159,-102C183,-70 201,-12 201,86C201,237 189,411 189,556C189,645 199,689 219,714C230,729 247,736 265,736C275,736 286,734 295,732z"
   id="glyph750" />
<glyph
   unicode="į"
   horiz-adv-x="234"
   d="M116,570C151,570 173,596 173,626C173,657 151,682 117,682C84,682 61,657 61,626C61,596 83,570 116,570M161,484l-88,0l0,-484C55,-27 26,-74 26,-123C26,-179 63,-209 118,-209C144,-209 178,-202 199,-186l-13,45C174,-146 160,-150 140,-150C111,-150 89,-132 89,-98C89,-62 116,-21 131,0l30,0z"
   id="glyph752" />
<glyph
   unicode="ι"
   horiz-adv-x="236"
   d="M161,484l-88,0l0,-376C73,12 112,-11 163,-11C178,-11 193,-9 203,-6l5,64C170,56 161,74 161,117z"
   id="glyph754" />
<glyph
   unicode="ϊ"
   horiz-adv-x="236"
   d="M161,484l-88,0l0,-376C73,12 112,-11 163,-11C178,-11 193,-9 203,-6l5,64C170,56 161,74 161,117M28,557C57,557 77,580 77,607C77,636 56,658 28,658C0,658 -23,636 -23,607C-23,580 -2,557 28,557M213,557C243,557 262,580 262,607C262,636 242,658 214,658C185,658 163,636 163,607C163,580 183,557 213,557z"
   id="glyph756" />
<glyph
   unicode="ΐ"
   horiz-adv-x="236"
   d="M161,484l-88,0l0,-376C73,12 112,-11 163,-11C178,-11 193,-9 203,-6l5,64C170,56 161,74 161,117M107,697l-22,-157l48,0l49,157M5,560C32,560 51,582 51,608C51,635 31,655 6,655C-21,655 -42,634 -42,608C-42,582 -23,560 5,560M247,560C275,560 293,582 293,608C293,635 274,655 247,655C221,655 200,634 200,608C200,582 219,560 247,560z"
   id="glyph758" />
<glyph
   unicode="ί"
   horiz-adv-x="236"
   d="M161,484l-88,0l0,-376C73,12 112,-11 163,-11C178,-11 193,-9 203,-6l5,64C170,56 161,74 161,117M133,687l-53,-143l59,0l83,143z"
   id="glyph760" />
<glyph
   unicode="ĩ"
   horiz-adv-x="234"
   d="M161,0l0,484l-88,0l0,-484M42,567C44,595 52,612 68,612C80,612 91,606 111,594C132,583 151,574 172,574C219,574 242,608 241,675l-47,0C192,641 182,632 166,632C154,632 140,640 124,649C101,662 84,671 62,671C19,671 -8,632 -6,567z"
   id="glyph762" />
<glyph
   unicode="j"
   horiz-adv-x="243"
   d="M-36,-209C11,-209 75,-193 114,-154C157,-110 172,-49 172,45l0,439l-88,0l0,-405C84,-37 75,-75 51,-103C30,-126 -5,-137 -45,-140M129,675C96,675 73,651 73,620C73,591 94,566 127,566C162,566 183,591 182,620C182,651 161,675 129,675z"
   id="glyph764" />
<glyph
   unicode="ĵ"
   horiz-adv-x="243"
   d="M-36,-209C11,-209 75,-193 114,-154C157,-110 172,-49 172,45l0,439l-88,0l0,-405C84,-37 75,-75 51,-103C30,-126 -5,-137 -45,-140M91,686l-94,-143l65,0l58,95l2,0l58,-95l67,0l-95,143z"
   id="glyph766" />
<glyph
   unicode="k"
   horiz-adv-x="469"
   d="M160,710l-87,0l0,-710l87,0l0,182l45,50l167,-232l107,0l-213,285l187,199l-106,0l-142,-167C191,300 174,279 162,262l-2,0z"
   id="glyph768" />
<glyph
   unicode="κ"
   horiz-adv-x="493"
   d="M161,0l0,215l8,0C215,214 260,167 309,103l76,-103l102,0l-88,121C350,186 298,248 250,259l0,3C335,342 412,417 480,480l0,4l-103,0C320,426 252,351 165,269l-4,0l0,133C161,442 155,473 147,484l-85,0C70,466 73,418 73,379l0,-379z"
   id="glyph770" />
<glyph
   unicode="ĸ"
   horiz-adv-x="469"
   d="M160,484l-87,0l0,-484l87,0l0,182l45,50l167,-232l107,0l-213,285l187,199l-106,0l-142,-167C191,300 174,279 162,262l-2,0z"
   id="glyph772" />
<glyph
   unicode="l"
   horiz-adv-x="236"
   d="M73,0l88,0l0,710l-88,0z"
   id="glyph774" />
<glyph
   unicode="ĺ"
   horiz-adv-x="236"
   d="M73,0l88,0l0,710l-88,0M154,856l-93,-117l72,0l127,117z"
   id="glyph776" />
<glyph
   unicode="λ"
   horiz-adv-x="472"
   d="M364,0l93,0l-185,492C220,630 175,721 80,721C68,721 54,720 46,717l-8,-68C44,650 50,650 55,650C114,650 150,583 181,498C186,486 188,477 188,471C188,466 186,459 182,448l-175,-448l92,0l99,280C209,313 222,350 229,382l5,0C244,343 255,310 266,277z"
   id="glyph778" />
<glyph
   unicode="ľ"
   horiz-adv-x="244"
   d="M240,522C255,535 304,571 304,644C304,679 286,708 269,719l-63,-14C223,690 237,665 237,640C237,599 217,571 201,551M73,0l88,0l0,710l-88,0z"
   id="glyph780" />
<glyph
   unicode="ŀ"
   horiz-adv-x="272"
   d="M253,335C280,335 299,359 299,385C299,413 279,435 253,435C226,435 205,413 205,385C205,359 225,335 253,335M73,0l88,0l0,710l-88,0z"
   id="glyph782" />
<glyph
   unicode="&lt;"
   horiz-adv-x="596"
   d="M66,239l464,-239l0,69l-391,196l0,2l391,196l0,69l-464,-239z"
   id="glyph784" />
<glyph
   unicode="≤"
   horiz-adv-x="596"
   d="M530,99l0,67l-382,154l0,2l382,155l0,66l-464,-192l0,-59M530,0l0,58l-462,0l0,-58z"
   id="glyph786" />
<glyph
   unicode="¬"
   horiz-adv-x="596"
   d="M40,399l0,-60l452,0l0,-218l64,0l0,278z"
   id="glyph788" />
<glyph
   unicode="◊"
   horiz-adv-x="522"
   d="M477,325l-182,355l-69,0l-181,-355l181,-356l69,0M401,323l-128,-263C270,53 266,44 263,37l-2,0C259,44 254,53 251,60l-131,266l128,264C252,596 256,605 258,613l2,0C263,605 267,596 271,590z"
   id="glyph790" />
<glyph
   unicode="ł"
   horiz-adv-x="242"
   d="M165,0l0,355l71,61l0,70l-71,-61l0,285l-88,0l0,-352l-68,-59l0,-69l68,58l0,-288z"
   id="glyph792" />
<glyph
   unicode="m"
   horiz-adv-x="834"
   d="M73,0l86,0l0,292C159,307 161,322 166,335C180,379 220,423 275,423C342,423 376,367 376,290l0,-290l86,0l0,299C462,315 465,331 469,343C484,386 523,423 573,423C644,423 678,367 678,274l0,-274l86,0l0,285C764,453 669,495 605,495C559,495 527,483 498,461C478,446 459,425 444,398l-2,0C421,455 371,495 305,495C225,495 180,452 153,406l-3,0l-4,78l-77,0C72,444 73,403 73,353z"
   id="glyph794" />
<glyph
   unicode=""
   horiz-adv-x="834"
   d="M73,0l86,0l0,292C159,307 161,322 166,335C180,379 220,423 275,423C342,423 376,367 376,290l0,-290l86,0l0,299C462,315 465,331 469,343C484,386 523,423 573,423C644,423 678,367 678,274l0,-274l86,0l0,285C764,453 669,495 605,495C559,495 527,483 498,461C478,446 459,425 444,398l-2,0C421,455 371,495 305,495C225,495 180,452 153,406l-3,0l-4,78l-77,0C72,444 73,403 73,353M386,693l-94,-143l65,0l58,95l2,0l58,-95l68,0l-96,143z"
   id="glyph796" />
<glyph
   unicode="¯"
   horiz-adv-x="300"
   d="M38,643l0,-57l225,0l0,57z"
   id="glyph798" />
<glyph
   unicode=""
   horiz-adv-x="300"
   d="M31,788l0,-55l239,0l0,55z"
   id="glyph800" />
<glyph
   unicode="−"
   horiz-adv-x="596"
   d="M40,297l0,-60l516,0l0,60z"
   id="glyph802" />
<glyph
   unicode="µ"
   horiz-adv-x="553"
   d="M403,75C411,13 446,-11 489,-11C503,-11 509,-10 519,-7l7,64C491,59 480,80 480,133l0,351l-87,0l0,-297C393,171 390,155 385,142C369,103 327,61 269,61C192,61 160,123 160,198l0,286l-87,0l0,-504C73,-97 77,-168 87,-198l79,0C156,-158 155,-69 155,-16l0,60C176,7 217,-9 261,-9C333,-9 380,37 400,75z"
   id="glyph804" />
<glyph
   unicode="×"
   horiz-adv-x="596"
   d="M40,482l214,-219l-214,-219l44,-44l214,219l214,-219l44,44l-215,219l215,219l-44,44l-214,-219l-214,219z"
   id="glyph806" />
<glyph
   unicode="n"
   horiz-adv-x="555"
   d="M73,0l88,0l0,291C161,306 163,321 167,332C182,381 227,422 285,422C368,422 397,357 397,279l0,-279l88,0l0,289C485,455 381,495 314,495C234,495 178,450 154,404l-2,0l-5,80l-78,0C72,444 73,403 73,353z"
   id="glyph808" />
<glyph
   unicode=""
   horiz-adv-x="555"
   d="M73,0l88,0l0,291C161,306 163,321 167,332C182,381 227,422 285,422C368,422 397,357 397,279l0,-279l88,0l0,289C485,455 381,495 314,495C234,495 178,450 154,404l-2,0l-5,80l-78,0C72,444 73,403 73,353M246,693l-94,-143l65,0l58,95l2,0l58,-95l68,0l-96,143z"
   id="glyph810" />
<glyph
   unicode="ń"
   horiz-adv-x="555"
   d="M73,0l88,0l0,291C161,306 163,321 167,332C182,381 227,422 285,422C368,422 397,357 397,279l0,-279l88,0l0,289C485,455 381,495 314,495C234,495 178,450 154,404l-2,0l-5,80l-78,0C72,444 73,403 73,353M318,693l-88,-143l63,0l122,143z"
   id="glyph812" />
<glyph
   unicode="ŉ"
   horiz-adv-x="555"
   d="M56,536C72,548 123,584 123,651C123,686 105,713 88,723l-64,-17C41,692 55,670 55,647C55,609 35,584 18,565M73,0l88,0l0,291C161,306 163,321 167,332C182,381 227,422 285,422C368,422 397,357 397,279l0,-279l88,0l0,289C485,455 381,495 314,495C234,495 178,450 154,404l-2,0l-5,80l-78,0C72,444 73,403 73,353z"
   id="glyph814" />
<glyph
   unicode="ň"
   horiz-adv-x="555"
   d="M73,0l88,0l0,291C161,306 163,321 167,332C182,381 227,422 285,422C368,422 397,357 397,279l0,-279l88,0l0,289C485,455 381,495 314,495C234,495 178,450 154,404l-2,0l-5,80l-78,0C72,444 73,403 73,353M310,550l94,143l-66,0l-59,-95l-2,0l-59,95l-67,0l96,-143z"
   id="glyph816" />
<glyph
   unicode="9"
   horiz-adv-x="513"
   d="M96,-10C117,-11 145,-10 177,-5C247,3 316,33 366,82C430,144 478,244 478,387C478,553 396,661 263,661C130,661 41,553 41,430C41,319 116,231 233,231C298,231 350,257 386,301l3,0C377,224 346,167 303,128C266,93 218,72 167,65C137,62 115,60 96,62M256,594C348,594 389,509 389,398C389,384 386,374 381,366C358,327 312,298 253,298C177,298 128,355 128,436C128,528 181,594 256,594z"
   id="glyph818" />
<glyph
   unicode=""
   horiz-adv-x="327"
   d="M58,-4C69,-5 87,-5 104,-3C155,2 202,19 235,50C275,87 304,147 304,230C304,326 254,395 164,395C81,395 23,331 23,257C23,187 73,137 144,137C183,137 213,151 234,175l1,0C228,135 210,104 184,83C161,64 131,53 100,49C84,48 69,47 58,48M161,345C214,345 236,298 236,241C236,233 235,226 232,221C219,201 194,185 161,185C117,185 90,218 90,260C90,308 120,345 161,345z"
   id="glyph820" />
<glyph
   unicode=""
   horiz-adv-x="517"
   d="M96,-10C117,-11 145,-10 177,-5C247,3 316,33 366,82C430,144 478,244 478,387C478,553 396,661 263,661C130,661 41,553 41,430C41,319 116,231 233,231C298,231 350,257 386,301l3,0C377,224 346,167 303,128C266,93 218,72 167,65C137,62 115,60 96,62M256,594C348,594 389,509 389,398C389,384 386,374 381,366C358,327 312,298 253,298C177,298 128,355 128,436C128,528 181,594 256,594z"
   id="glyph822" />
<glyph
   unicode="₉"
   horiz-adv-x="327"
   d="M58,-151C69,-152 87,-152 104,-150C155,-145 202,-128 235,-97C275,-60 304,0 304,83C304,179 254,248 164,248C81,248 23,184 23,110C23,40 73,-10 144,-10C183,-10 213,4 234,28l1,0C228,-12 210,-43 184,-64C161,-83 131,-94 100,-98C84,-99 69,-100 58,-99M161,198C214,198 236,151 236,94C236,86 235,79 232,74C219,54 194,38 161,38C117,38 90,71 90,113C90,161 120,198 161,198z"
   id="glyph824" />
<glyph
   unicode=""
   horiz-adv-x="327"
   d="M58,262C69,261 87,261 104,263C155,268 202,285 235,316C275,353 304,413 304,496C304,592 254,661 164,661C81,661 23,597 23,523C23,453 73,403 144,403C183,403 213,417 234,441l1,0C228,401 210,370 184,349C161,330 131,319 100,315C84,314 69,313 58,314M161,611C214,611 236,564 236,507C236,499 235,492 232,487C219,467 194,451 161,451C117,451 90,484 90,526C90,574 120,611 161,611z"
   id="glyph826" />
<glyph
   unicode=""
   horiz-adv-x="520"
   d="M82,-116C323,-107 472,37 472,255C472,408 378,495 260,495C138,495 43,403 43,282C43,162 129,91 230,91C298,91 353,125 373,158l2,0C348,40 247,-44 76,-51M252,153C187,153 131,196 131,288C131,382 195,427 256,427C326,427 385,368 385,278C385,253 379,231 370,218C351,183 303,153 252,153z"
   id="glyph828" />
<glyph
   unicode="⁹"
   horiz-adv-x="327"
   d="M58,438C69,437 87,437 104,440C155,444 202,461 235,492C275,529 304,589 304,672C304,768 254,838 164,838C81,838 23,774 23,699C23,629 73,579 144,579C183,579 213,594 234,618l1,-1C228,577 210,547 184,525C161,506 131,495 100,492C84,490 69,490 58,491M161,787C214,787 236,741 236,684C236,675 235,669 232,664C219,643 194,627 161,627C117,627 90,660 90,702C90,751 120,787 161,787z"
   id="glyph830" />
<glyph
   unicode=""
   horiz-adv-x="530"
   d="M89,-116C329,-107 479,37 479,255C479,408 385,495 266,495C145,495 50,403 50,282C50,162 136,91 237,91C305,91 360,125 380,158l2,0C354,40 254,-44 83,-51M259,153C194,153 137,196 137,288C137,382 202,427 263,427C333,427 392,368 392,278C392,253 386,231 376,218C357,183 310,153 259,153z"
   id="glyph832" />
<glyph
   unicode="≠"
   horiz-adv-x="596"
   d="M556,140l0,60l-271,0l88,138l183,0l0,60l-145,0l79,122l-65,0l-76,-122l-309,0l0,-60l271,0l-89,-138l-182,0l0,-60l144,0l-79,-122l65,0l76,122z"
   id="glyph834" />
<glyph
   unicode="ñ"
   horiz-adv-x="555"
   d="M73,0l88,0l0,291C161,306 163,321 167,332C182,381 227,422 285,422C368,422 397,357 397,279l0,-279l88,0l0,289C485,455 381,495 314,495C234,495 178,450 154,404l-2,0l-5,80l-78,0C72,444 73,403 73,353M203,567C205,595 213,612 229,612C241,612 252,606 272,594C293,583 312,574 333,574C380,574 403,608 402,675l-47,0C353,641 343,632 327,632C315,632 301,640 285,649C262,662 245,671 223,671C180,671 153,632 155,567z"
   id="glyph836" />
<glyph
   unicode="ν"
   horiz-adv-x="469"
   d="M4,484l177,-484l83,0C352,147 445,311 445,448C445,461 443,474 442,484l-83,0C360,470 360,455 360,439C360,327 275,164 235,86l-3,0C218,128 206,169 190,212l-93,272z"
   id="glyph838" />
<glyph
   unicode="#"
   horiz-adv-x="497"
   d="M188,255l19,145l104,0l-19,-145M153,0l26,196l104,0l-26,-196l60,0l26,196l95,0l0,59l-86,0l18,145l91,0l0,59l-82,0l25,191l-59,0l-26,-191l-104,0l25,191l-58,0l-26,-191l-95,0l0,-59l86,0l-19,-145l-91,0l0,-59l82,0l-26,-196z"
   id="glyph840" />
<glyph
   unicode=""
   horiz-adv-x="530"
   d="M205,226l19,145l103,0l-18,-145M174,-3l22,170l104,0l-23,-170l60,0l23,170l95,0l0,59l-86,0l18,145l91,0l0,59l-82,0l21,165l-59,0l-22,-165l-104,0l22,165l-59,0l-22,-165l-95,0l0,-59l86,0l-19,-145l-91,0l0,-59l82,0l-22,-170z"
   id="glyph842" />
<glyph
   unicode="o"
   horiz-adv-x="549"
   d="M278,495C144,495 38,400 38,238C38,85 139,-11 270,-11C387,-11 511,67 511,246C511,394 417,495 278,495M276,429C380,429 421,325 421,243C421,134 358,55 274,55C188,55 127,135 127,241C127,333 172,429 276,429z"
   id="glyph844" />
<glyph
   unicode="ó"
   horiz-adv-x="549"
   d="M278,495C144,495 38,400 38,238C38,85 139,-11 270,-11C387,-11 511,67 511,246C511,394 417,495 278,495M276,429C380,429 421,325 421,243C421,134 358,55 274,55C188,55 127,135 127,241C127,333 172,429 276,429M309,693l-88,-143l63,0l122,143z"
   id="glyph846" />
<glyph
   unicode="ŏ"
   horiz-adv-x="549"
   d="M278,495C144,495 38,400 38,238C38,85 139,-11 270,-11C387,-11 511,67 511,246C511,394 417,495 278,495M276,429C380,429 421,325 421,243C421,134 358,55 274,55C188,55 127,135 127,241C127,333 172,429 276,429M150,682C150,620 186,558 274,558C349,558 398,608 398,682l-52,0C343,649 321,613 274,613C233,613 208,643 202,682z"
   id="glyph848" />
<glyph
   unicode="ô"
   horiz-adv-x="549"
   d="M278,495C144,495 38,400 38,238C38,85 139,-11 270,-11C387,-11 511,67 511,246C511,394 417,495 278,495M276,429C380,429 421,325 421,243C421,134 358,55 274,55C188,55 127,135 127,241C127,333 172,429 276,429M243,693l-94,-143l65,0l58,95l2,0l58,-95l68,0l-96,143z"
   id="glyph850" />
<glyph
   unicode="ö"
   horiz-adv-x="549"
   d="M278,495C144,495 38,400 38,238C38,85 139,-11 270,-11C387,-11 511,67 511,246C511,394 417,495 278,495M276,429C380,429 421,325 421,243C421,134 358,55 274,55C188,55 127,135 127,241C127,333 172,429 276,429M182,570C211,570 231,594 231,621C231,650 210,672 182,672C154,672 131,649 131,621C131,594 152,570 182,570M367,570C396,570 416,594 416,621C416,650 395,672 367,672C339,672 317,649 317,621C317,594 337,570 367,570z"
   id="glyph852" />
<glyph
   unicode="œ"
   horiz-adv-x="863"
   d="M824,227C826,236 827,251 827,268C827,354 786,495 631,495C556,495 491,456 455,379l-2,0C423,453 352,495 270,495C140,495 38,396 38,239C38,86 136,-11 264,-11C339,-11 415,25 451,103l3,0C492,24 561,-11 645,-11C698,-11 763,0 802,22l-16,63C753,71 716,58 656,58C564,58 496,117 495,227M271,429C371,429 413,334 413,242C413,131 356,55 271,55C187,55 127,136 127,241C127,324 165,429 271,429M495,290C500,351 537,431 624,431C720,431 743,344 742,290z"
   id="glyph854" />
<glyph
   unicode="˛"
   horiz-adv-x="300"
   d="M123,4C99,-22 63,-70 63,-119C63,-175 101,-205 157,-205C182,-205 217,-198 237,-182l-14,45C211,-142 195,-146 177,-146C148,-146 127,-128 127,-96C127,-58 165,-15 180,4z"
   id="glyph856" />
<glyph
   unicode=""
   horiz-adv-x="300"
   d="M123,4C99,-22 63,-70 63,-119C63,-175 101,-205 157,-205C182,-205 217,-198 237,-182l-14,45C211,-142 195,-146 177,-146C148,-146 127,-128 127,-96C127,-58 165,-15 180,4z"
   id="glyph858" />
<glyph
   unicode="ò"
   horiz-adv-x="549"
   d="M278,495C144,495 38,400 38,238C38,85 139,-11 270,-11C387,-11 511,67 511,246C511,394 417,495 278,495M276,429C380,429 421,325 421,243C421,134 358,55 274,55C188,55 127,135 127,241C127,333 172,429 276,429M145,693l122,-143l62,0l-87,143z"
   id="glyph860" />
<glyph
   unicode="ơ"
   horiz-adv-x="553"
   d="M276,429C380,429 421,325 421,243C421,134 358,55 274,55C188,55 127,135 127,241C127,333 172,429 276,429M470,554C479,537 486,517 486,495C486,469 472,455 446,455C415,455 385,474 361,481C334,490 308,495 278,495C144,495 38,400 38,238C38,85 139,-11 270,-11C387,-11 511,67 511,246C511,311 493,366 461,406C522,403 554,439 554,493C554,521 547,545 537,566z"
   id="glyph862" />
<glyph
   unicode="ő"
   horiz-adv-x="549"
   d="M278,495C144,495 38,400 38,238C38,85 139,-11 270,-11C387,-11 511,67 511,246C511,394 417,495 278,495M276,429C380,429 421,325 421,243C421,134 358,55 274,55C188,55 127,135 127,241C127,333 172,429 276,429M238,693l-79,-137l55,0l110,137M382,693l-79,-137l55,0l111,137z"
   id="glyph864" />
<glyph
   unicode="ō"
   horiz-adv-x="549"
   d="M278,495C144,495 38,400 38,238C38,85 139,-11 270,-11C387,-11 511,67 511,246C511,394 417,495 278,495M276,429C380,429 421,325 421,243C421,134 358,55 274,55C188,55 127,135 127,241C127,333 172,429 276,429M162,643l0,-57l225,0l0,57z"
   id="glyph866" />
<glyph
   unicode="ω"
   horiz-adv-x="694"
   d="M388,356l-83,0l2,-185C307,111 272,62 227,62C181,62 124,111 124,246C124,349 159,433 204,481l0,3l-81,0C80,442 38,353 38,244C38,60 131,-11 215,-11C274,-11 320,22 343,75l4,0C367,22 414,-11 473,-11C565,-11 656,72 656,252C656,363 616,447 573,484l-83,0l0,-3C536,436 570,349 570,254C570,124 519,62 469,62C421,62 386,110 386,172z"
   id="glyph868" />
<glyph
   unicode="ώ"
   horiz-adv-x="694"
   d="M388,356l-83,0l2,-185C307,111 272,62 227,62C181,62 124,111 124,246C124,349 159,433 204,481l0,3l-81,0C80,442 38,353 38,244C38,60 131,-11 215,-11C274,-11 320,22 343,75l4,0C367,22 414,-11 473,-11C565,-11 656,72 656,252C656,363 616,447 573,484l-83,0l0,-3C536,436 570,349 570,254C570,124 519,62 469,62C421,62 386,110 386,172M360,686l-53,-143l59,0l83,143z"
   id="glyph870" />
<glyph
   unicode="ο"
   horiz-adv-x="549"
   d="M278,495C144,495 38,400 38,238C38,85 139,-11 270,-11C387,-11 511,67 511,246C511,394 417,495 278,495M276,429C380,429 421,325 421,243C421,134 358,55 274,55C188,55 127,135 127,241C127,333 172,429 276,429z"
   id="glyph872" />
<glyph
   unicode="ό"
   horiz-adv-x="549"
   d="M278,495C144,495 38,400 38,238C38,85 139,-11 270,-11C387,-11 511,67 511,246C511,394 417,495 278,495M276,429C380,429 421,325 421,243C421,134 358,55 274,55C188,55 127,135 127,241C127,333 172,429 276,429M289,686l-54,-143l60,0l83,143z"
   id="glyph874" />
<glyph
   unicode="1"
   horiz-adv-x="513"
   d="M236,0l85,0l0,650l-75,0l-142,-76l17,-67l113,61l2,0z"
   id="glyph876" />
<glyph
   unicode=""
   horiz-adv-x="244"
   d="M177,0l0,390l-61,0l-94,-44l11,-52l72,35l2,0l0,-329z"
   id="glyph878" />
<glyph
   unicode=""
   horiz-adv-x="326"
   d="M151,0l85,0l0,650l-75,0l-142,-76l17,-67l113,61l2,0z"
   id="glyph880" />
<glyph
   unicode="₁"
   horiz-adv-x="244"
   d="M177,-147l0,390l-61,0l-94,-44l11,-52l72,35l2,0l0,-329z"
   id="glyph882" />
<glyph
   unicode=""
   horiz-adv-x="244"
   d="M177,266l0,390l-61,0l-94,-44l11,-52l72,35l2,0l0,-329z"
   id="glyph884" />
<glyph
   unicode=""
   horiz-adv-x="362"
   d="M263,0l0,486l-73,0l-164,-75l16,-65l135,63l2,0l0,-409z"
   id="glyph886" />
<glyph
   unicode=""
   horiz-adv-x="530"
   d="M366,0l0,486l-73,0l-215,-93l15,-65l186,84l2,0l0,-412z"
   id="glyph888" />
<glyph
   unicode="½"
   horiz-adv-x="759"
   d="M184,266l0,390l-62,0l-93,-44l11,-52l72,35l2,0l0,-329M175,-11l380,672l-57,0l-379,-672M440,0l270,0l0,55l-171,0l0,2l31,28C646,152 703,207 703,282C703,336 665,395 570,395C520,395 475,376 448,353l21,-45C488,321 518,339 553,339C605,339 629,307 629,269C629,218 586,171 503,96l-63,-59z"
   id="glyph890" />
<glyph
   unicode="¼"
   horiz-adv-x="759"
   d="M198,266l0,390l-61,0l-94,-44l11,-52l72,35l2,0l0,-329M194,-11l380,672l-56,0l-380,-672M664,0l0,103l55,0l0,49l-55,0l0,240l-79,0l-178,-249l0,-40l189,0l0,-103M596,152l-119,0l0,2l86,120C575,292 585,310 597,333l2,0C598,313 596,292 596,270z"
   id="glyph892" />
<glyph
   unicode="¹"
   horiz-adv-x="244"
   d="M177,443l0,390l-61,0l-94,-44l11,-52l72,34l2,0l0,-328z"
   id="glyph894" />
<glyph
   unicode="ª"
   horiz-adv-x="346"
   d="M305,266C301,290 299,317 299,344l0,107C299,523 272,591 172,591C129,591 87,579 58,558l16,-43C97,533 128,542 160,542C224,542 234,496 234,480l0,-10C106,473 33,428 33,356C33,304 70,261 136,261C183,261 218,284 237,308l2,0l6,-42M235,372C235,365 231,355 225,345C212,326 187,309 157,309C126,309 99,327 99,360C99,417 172,428 235,427z"
   id="glyph896" />
<glyph
   unicode="º"
   horiz-adv-x="355"
   d="M179,591C93,591 18,527 18,423C18,325 88,261 177,261C254,261 336,313 337,428C337,522 276,591 179,591M177,541C243,541 270,476 270,426C270,357 231,311 178,311C128,311 85,359 85,425C85,479 113,541 177,541z"
   id="glyph898" />
<glyph
   unicode="ø"
   horiz-adv-x="549"
   d="M276,495C144,495 38,400 38,239C38,160 66,96 113,52l-42,-60l37,-30l43,61C186,0 230,-11 275,-11C388,-11 511,68 511,246C511,321 485,386 438,431l42,62l-39,27l-42,-60C363,483 320,495 276,495M161,119l-2,1C134,155 123,199 123,241C123,329 166,429 274,429C309,429 337,418 359,400M389,361l2,0C417,323 425,276 425,243C425,134 364,55 272,55C242,55 214,63 191,83z"
   id="glyph900" />
<glyph
   unicode="ǿ"
   horiz-adv-x="549"
   d="M276,495C144,495 38,400 38,239C38,160 66,96 113,52l-42,-60l37,-30l43,61C186,0 230,-11 275,-11C388,-11 511,68 511,246C511,321 485,386 438,431l42,62l-39,27l-42,-60C363,483 320,495 276,495M161,119l-2,1C134,155 123,199 123,241C123,329 166,429 274,429C309,429 337,418 359,400M389,361l2,0C417,323 425,276 425,243C425,134 364,55 272,55C242,55 214,63 191,83M315,693l-88,-143l63,0l122,143z"
   id="glyph902" />
<glyph
   unicode="õ"
   horiz-adv-x="549"
   d="M278,495C144,495 38,400 38,238C38,85 139,-11 270,-11C387,-11 511,67 511,246C511,394 417,495 278,495M276,429C380,429 421,325 421,243C421,134 358,55 274,55C188,55 127,135 127,241C127,333 172,429 276,429M199,567C201,595 209,612 225,612C237,612 248,606 268,594C289,583 308,574 329,574C376,574 399,608 398,675l-47,0C349,641 339,632 323,632C311,632 297,640 281,649C258,662 241,671 219,671C176,671 149,632 151,567z"
   id="glyph904" />
<glyph
   unicode="p"
   horiz-adv-x="569"
   d="M73,-198l87,0l0,263l2,0C191,17 247,-11 311,-11C425,-11 531,75 531,249C531,396 443,495 326,495C247,495 190,460 154,401l-2,0l-4,83l-79,0C71,438 73,388 73,326M160,280C160,292 163,305 166,316C183,382 239,425 299,425C392,425 443,342 443,245C443,134 389,58 296,58C233,58 180,100 164,161C162,172 160,184 160,197z"
   id="glyph906" />
<glyph
   unicode="¶"
   horiz-adv-x="512"
   d="M293,-49l0,664l71,0l0,-664l62,0l0,716C401,673 362,676 309,676C90,676 34,559 34,456C34,328 144,264 223,264l7,0l0,-313z"
   id="glyph908" />
<glyph
   unicode="("
   horiz-adv-x="284"
   d="M195,694C132,610 65,482 64,285C64,90 132,-38 195,-121l69,0C193,-21 138,107 138,285C138,466 191,596 264,694z"
   id="glyph910" />
<glyph
   unicode=""
   horiz-adv-x="284"
   d="M195,734C132,650 65,521 64,325C64,130 132,2 195,-81l69,0C193,19 138,146 138,324C138,506 191,635 264,734z"
   id="glyph912" />
<glyph
   unicode=""
   horiz-adv-x="180"
   d="M117,425C81,377 40,299 40,182C40,67 81,-10 117,-58l51,0C129,0 96,76 96,182C96,290 128,368 168,425z"
   id="glyph914" />
<glyph
   unicode="₍"
   horiz-adv-x="180"
   d="M117,278C81,230 40,152 40,35C40,-80 81,-157 117,-205l51,0C129,-147 96,-71 96,35C96,143 128,221 168,278z"
   id="glyph916" />
<glyph
   unicode=""
   horiz-adv-x="180"
   d="M117,691C81,643 40,565 40,448C40,333 81,256 117,208l51,0C129,266 96,342 96,448C96,556 128,634 168,691z"
   id="glyph918" />
<glyph
   unicode="⁽"
   horiz-adv-x="180"
   d="M117,868C81,819 40,741 40,625C40,509 81,433 117,384l51,0C129,443 96,519 96,625C96,732 128,811 168,868z"
   id="glyph920" />
<glyph
   unicode=")"
   horiz-adv-x="284"
   d="M88,-121C152,-36 219,91 219,287C219,484 152,612 88,694l-68,0C92,595 146,467 146,288C146,108 91,-22 20,-121z"
   id="glyph922" />
<glyph
   unicode=""
   horiz-adv-x="284"
   d="M88,-81C152,3 219,131 219,327C219,523 152,652 88,734l-68,0C92,634 146,507 146,327C146,147 91,18 20,-81z"
   id="glyph924" />
<glyph
   unicode=""
   horiz-adv-x="180"
   d="M64,-58C100,-9 141,68 141,184C141,300 100,377 64,425l-51,0C52,367 85,290 85,184C85,77 52,0 13,-58z"
   id="glyph926" />
<glyph
   unicode="₎"
   horiz-adv-x="180"
   d="M64,-205C100,-156 141,-79 141,37C141,153 100,230 64,278l-51,0C52,220 85,143 85,37C85,-70 52,-147 13,-205z"
   id="glyph928" />
<glyph
   unicode=""
   horiz-adv-x="180"
   d="M64,208C100,257 141,334 141,450C141,566 100,643 64,691l-51,0C52,633 85,556 85,450C85,343 52,266 13,208z"
   id="glyph930" />
<glyph
   unicode="⁾"
   horiz-adv-x="180"
   d="M64,384C100,434 141,511 141,626C141,743 100,820 64,868l-51,0C52,810 85,732 85,626C85,520 52,443 13,384z"
   id="glyph932" />
<glyph
   unicode="∂"
   horiz-adv-x="530"
   d="M86,614C113,633 158,654 223,654C317,654 410,565 410,389C410,378 410,366 409,356l-1,0C387,395 328,443 245,443C122,443 26,335 26,199C26,93 90,-11 225,-11C366,-11 494,118 494,372C494,602 369,726 231,726C146,726 91,697 58,673M232,61C162,61 114,113 114,201C114,299 179,373 259,373C328,373 381,326 400,277C386,163 322,61 232,61z"
   id="glyph934" />
<glyph
   unicode="%"
   horiz-adv-x="792"
   d="M187,661C101,661 30,588 30,458C31,327 101,262 182,262C266,262 338,330 338,467C338,591 278,661 187,661M184,608C245,608 268,542 268,463C268,377 242,315 184,315C129,315 98,378 100,461C100,543 129,608 184,608M232,-11l382,672l-56,0l-382,-672M611,392C525,392 454,319 454,188C455,58 525,-7 606,-7C689,-7 761,61 761,198C761,322 702,392 611,392M608,339C669,339 692,273 692,194C692,108 666,46 608,46C554,46 522,109 523,192C523,274 553,339 608,339z"
   id="glyph936" />
<glyph
   unicode=""
   horiz-adv-x="818"
   d="M184,603C98,603 27,530 27,400C28,269 98,204 179,204C263,204 335,272 335,409C335,533 275,603 184,603M182,550C243,550 265,484 265,405C265,319 240,257 181,257C127,257 96,321 97,403C97,485 127,550 182,550M261,-12l351,620l-55,0l-352,-620M640,392C554,392 482,319 483,188C483,58 554,-7 635,-7C718,-7 790,61 790,198C790,322 731,392 640,392M637,339C698,339 721,273 721,194C721,108 695,46 637,46C583,46 551,109 552,192C553,274 582,339 637,339z"
   id="glyph938" />
<glyph
   unicode="."
   horiz-adv-x="207"
   d="M111,-11C148,-11 171,16 171,52C171,89 147,115 112,115C77,115 52,89 52,52C52,16 76,-11 111,-11z"
   id="glyph940" />
<glyph
   unicode=""
   horiz-adv-x="131"
   d="M65,-5C92,-5 109,15 109,40C109,67 92,85 66,85C40,85 21,67 21,40C21,15 39,-5 65,-5z"
   id="glyph942" />
<glyph
   unicode=""
   horiz-adv-x="131"
   d="M65,-152C92,-152 109,-132 109,-107C109,-80 92,-62 66,-62C40,-62 21,-80 21,-107C21,-132 39,-152 65,-152z"
   id="glyph944" />
<glyph
   unicode=""
   horiz-adv-x="131"
   d="M65,261C92,261 109,281 109,306C109,333 92,351 66,351C40,351 21,333 21,306C21,281 39,261 65,261z"
   id="glyph946" />
<glyph
   unicode=""
   horiz-adv-x="131"
   d="M65,438C92,438 109,457 109,483C109,509 92,528 66,528C40,528 21,509 21,483C21,457 39,438 65,438z"
   id="glyph948" />
<glyph
   unicode="·"
   horiz-adv-x="207"
   d="M103,200C139,200 163,227 163,263C162,300 139,326 104,326C69,326 44,299 44,263C43,227 68,200 103,200z"
   id="glyph950" />
<glyph
   unicode=""
   horiz-adv-x="207"
   d="M103,275C139,275 163,302 163,338C162,375 139,401 104,401C69,401 44,374 44,338C43,302 68,275 103,275z"
   id="glyph952" />
<glyph
   unicode="‰"
   horiz-adv-x="1156"
   d="M611,392C525,392 454,319 454,188C455,58 525,-7 606,-7C689,-7 761,61 761,198C761,322 702,392 611,392M608,339C669,339 692,273 692,194C692,108 666,46 608,46C553,46 522,109 523,192C523,274 553,339 608,339M975,392C889,392 818,319 818,188C819,58 889,-7 970,-7C1054,-7 1126,61 1126,198C1126,322 1066,392 975,392M973,339C1034,339 1056,273 1056,194C1056,108 1031,46 972,46C917,46 886,109 888,192C888,274 918,339 973,339M187,661C101,661 30,588 30,458C31,327 101,262 182,262C266,262 338,330 338,467C338,591 278,661 187,661M184,608C245,608 268,542 268,463C268,377 242,315 184,315C129,315 98,378 100,461C100,543 129,608 184,608M232,-11l382,672l-56,0l-382,-672z"
   id="glyph954" />
<glyph
   unicode="φ"
   horiz-adv-x="642"
   d="M204,495C138,467 38,383 38,244C38,74 162,-1 282,-10l0,-188l81,0l0,188C485,2 603,89 603,255C603,403 500,494 405,494C339,494 282,452 282,348l0,-294C177,70 125,150 125,246C125,350 187,414 238,446M363,362C363,408 380,430 405,430C461,430 519,352 519,253C519,141 458,67 363,54z"
   id="glyph956" />
<glyph
   unicode="π"
   horiz-adv-x="555"
   d="M520,415l10,69l-378,0C75,484 35,473 13,458l12,-52C50,413 85,415 124,415C120,287 92,95 56,0l84,0C175,80 204,288 208,415l159,0l0,-280C367,58 374,15 382,0l85,0C460,25 453,65 453,144l0,271z"
   id="glyph958" />
<glyph
   unicode="+"
   horiz-adv-x="596"
   d="M266,532l0,-235l-226,0l0,-60l226,0l0,-237l64,0l0,237l226,0l0,60l-226,0l0,235z"
   id="glyph960" />
<glyph
   unicode="±"
   horiz-adv-x="596"
   d="M266,572l0,-195l-226,0l0,-60l226,0l0,-200l64,0l0,200l226,0l0,60l-226,0l0,195M40,60l0,-60l516,0l0,60z"
   id="glyph962" />
<glyph
   unicode="∏"
   horiz-adv-x="615"
   d="M605,577l0,73l-596,0l0,-73l93,0l0,-667l83,0l0,667l244,0l0,-667l83,0l0,667z"
   id="glyph964" />
<glyph
   unicode="ψ"
   horiz-adv-x="655"
   d="M295,-198l81,0l0,187C548,-2 609,149 609,293C609,383 590,452 570,484l-81,0C502,463 525,386 525,286C525,147 463,57 376,53l0,558l-80,0l0,-558C220,58 152,106 152,248l0,145C152,443 148,473 140,484l-81,0C66,459 67,416 67,371l0,-131C67,53 172,-3 295,-11z"
   id="glyph966" />
<glyph
   unicode="q"
   horiz-adv-x="563"
   d="M403,-198l88,0l0,549C491,401 492,443 494,484l-83,0l-3,-73l-2,0C382,458 332,495 257,495C155,495 38,415 38,234C38,87 130,-11 243,-11C321,-11 375,27 401,75l2,0M403,197C403,184 400,167 396,155C376,94 327,59 270,59C173,59 127,143 127,239C127,348 182,425 273,425C339,425 386,379 399,325C402,314 403,300 403,288z"
   id="glyph968" />
<glyph
   unicode="?"
   horiz-adv-x="406"
   d="M219,191l-1,26C215,268 231,312 275,364C323,421 361,470 361,538C361,614 309,685 194,685C141,685 84,669 51,645l24,-63C100,601 140,613 176,613C239,612 271,578 271,527C271,482 246,443 201,390C151,330 133,271 139,217l2,-26M178,-11C215,-11 238,16 238,51C238,88 214,114 179,114C144,114 119,88 119,51C119,16 143,-11 178,-11z"
   id="glyph970" />
<glyph
   unicode="¿"
   horiz-adv-x="406"
   d="M237,489C202,489 178,463 178,427C178,392 201,364 237,364C273,364 296,392 296,427C296,463 273,489 237,489M197,285l1,-26C201,208 185,166 142,113C93,57 55,9 55,-59C55,-135 108,-206 222,-206C275,-206 332,-189 366,-166l-24,64C316,-122 276,-133 241,-133C177,-133 146,-99 146,-48C146,-3 170,34 215,88C265,148 284,205 278,259l-3,26z"
   id="glyph972" />
<glyph
   unicode=""
   horiz-adv-x="406"
   d="M237,685C202,685 178,659 178,622C178,587 201,560 237,560C273,560 296,587 296,622C296,659 273,685 237,685M197,480l1,-25C201,404 185,361 142,309C93,252 55,204 55,137C55,61 108,-10 222,-10C275,-10 332,7 366,30l-24,64C316,74 276,62 241,62C177,63 146,97 146,148C146,193 170,230 215,283C265,343 284,401 278,454l-3,26z"
   id="glyph974" />
<glyph
   unicode="&quot;"
   horiz-adv-x="337"
   d="M51,685l16,-240l54,0l17,240M200,685l17,-240l53,0l17,240z"
   id="glyph976" />
<glyph
   unicode="„"
   horiz-adv-x="356"
   d="M76,-111C103,-65 147,42 169,126l-90,-10C68,45 42,-59 20,-118M224,-111C252,-65 295,42 318,126l-91,-10C216,45 190,-59 168,-118z"
   id="glyph978" />
<glyph
   unicode="“"
   horiz-adv-x="354"
   d="M125,451C136,523 162,626 184,685l-56,-6C100,633 57,525 34,441M273,451C284,523 310,626 332,685l-56,-6C249,633 205,525 183,441z"
   id="glyph980" />
<glyph
   unicode="”"
   horiz-adv-x="354"
   d="M93,676C82,604 55,500 34,441l56,7C117,494 160,601 183,685M241,676C230,604 204,500 182,441l56,7C265,494 308,601 331,685z"
   id="glyph982" />
<glyph
   unicode="‘"
   horiz-adv-x="207"
   d="M125,451C136,523 163,626 184,685l-56,-6C101,633 58,525 35,441z"
   id="glyph984" />
<glyph
   unicode="’"
   horiz-adv-x="207"
   d="M93,676C82,604 56,500 34,441l56,7C118,494 161,601 184,685z"
   id="glyph986" />
<glyph
   unicode="‚"
   horiz-adv-x="207"
   d="M76,-111C104,-65 147,42 170,126l-91,-10C69,45 42,-59 21,-118z"
   id="glyph988" />
<glyph
   unicode="'"
   horiz-adv-x="188"
   d="M51,685l16,-240l54,0l17,240z"
   id="glyph990" />
<glyph
   unicode="r"
   horiz-adv-x="327"
   d="M73,0l87,0l0,258C160,273 162,287 164,299C176,365 220,412 282,412C294,412 303,411 312,409l0,83C304,494 297,495 287,495C228,495 175,454 153,389l-4,0l-3,95l-77,0C72,439 73,390 73,333z"
   id="glyph992" />
<glyph
   unicode="ŕ"
   horiz-adv-x="327"
   d="M73,0l87,0l0,258C160,273 162,287 164,299C176,365 220,412 282,412C294,412 303,411 312,409l0,83C304,494 297,495 287,495C228,495 175,454 153,389l-4,0l-3,95l-77,0C72,439 73,390 73,333M216,693l-87,-143l62,0l122,143z"
   id="glyph994" />
<glyph
   unicode="√"
   horiz-adv-x="562"
   d="M579,827l-66,0l-186,-766C322,39 317,13 314,-4l-2,0C308,15 301,39 293,60l-123,346l-138,-58l19,-47l75,32l159,-428l64,0z"
   id="glyph996" />
<glyph
   unicode="ř"
   horiz-adv-x="327"
   d="M73,0l87,0l0,258C160,273 162,287 164,299C176,365 220,412 282,412C294,412 303,411 312,409l0,83C304,494 297,495 287,495C228,495 175,454 153,389l-4,0l-3,95l-77,0C72,439 73,390 73,333M214,550l94,143l-66,0l-59,-95l-2,0l-59,95l-68,0l96,-143z"
   id="glyph998" />
<glyph
   unicode="®"
   horiz-adv-x="419"
   d="M184,501l18,0C223,501 233,493 236,475C241,456 244,441 249,435l41,0C286,441 283,451 278,476C273,498 264,510 248,516l0,2C268,524 282,538 282,556C282,572 275,585 266,592C254,599 240,604 209,604C182,604 161,602 146,599l0,-164l38,0M185,575C189,576 196,577 206,577C230,577 241,567 241,552C241,535 224,528 203,528l-18,0M210,685C116,685 41,612 41,521C41,428 116,355 210,355C305,355 378,428 378,521C378,612 305,685 210,685M210,652C283,652 336,593 336,520C336,448 283,390 211,390C137,390 83,448 83,521C83,593 137,652 210,652z"
   id="glyph1000" />
<glyph
   unicode="ρ"
   horiz-adv-x="563"
   d="M163,-198C156,-158 155,-74 155,-18l0,78l3,0C186,15 241,-11 304,-11C418,-11 525,78 525,249C525,394 439,495 304,495C231,495 175,463 138,423C100,383 68,327 68,202l0,-224C68,-97 70,-168 79,-198M155,231C155,365 228,422 297,422C387,422 437,342 437,247C437,138 383,58 290,58C228,58 175,100 159,155C156,166 155,178 155,190z"
   id="glyph1002" />
<glyph
   unicode="˚"
   horiz-adv-x="300"
   d="M142,537C199,537 242,576 242,629C242,682 203,723 143,723C80,723 41,681 41,628C41,577 82,537 142,537M141,574C112,574 92,602 92,628C92,659 110,685 141,685C173,685 193,660 193,630C193,600 173,574 141,574z"
   id="glyph1004" />
<glyph
   unicode=""
   horiz-adv-x="400"
   d="M202,877C140,877 101,836 101,786C101,737 141,698 202,698C260,698 301,736 301,786C301,837 263,877 202,877M200,840C230,840 249,816 249,787C249,758 230,735 200,735C172,735 153,760 153,786C153,815 170,840 200,840z"
   id="glyph1006" />
<glyph
   unicode="s"
   horiz-adv-x="396"
   d="M39,23C73,3 122,-10 175,-10C290,-10 356,50 356,135C356,207 313,249 229,281C166,305 137,323 137,363C137,399 166,429 218,429C263,429 298,413 317,401l22,64C312,481 269,495 220,495C116,495 53,431 53,353C53,295 94,247 181,216C246,192 271,169 271,127C271,87 241,55 177,55C133,55 87,73 61,90z"
   id="glyph1008" />
<glyph
   unicode="ś"
   horiz-adv-x="396"
   d="M39,23C73,3 122,-10 175,-10C290,-10 356,50 356,135C356,207 313,249 229,281C166,305 137,323 137,363C137,399 166,429 218,429C263,429 298,413 317,401l22,64C312,481 269,495 220,495C116,495 53,431 53,353C53,295 94,247 181,216C246,192 271,169 271,127C271,87 241,55 177,55C133,55 87,73 61,90M244,693l-88,-143l63,0l122,143z"
   id="glyph1010" />
<glyph
   unicode="š"
   horiz-adv-x="396"
   d="M39,23C73,3 122,-10 175,-10C290,-10 356,50 356,135C356,207 313,249 229,281C166,305 137,323 137,363C137,399 166,429 218,429C263,429 298,413 317,401l22,64C312,481 269,495 220,495C116,495 53,431 53,353C53,295 94,247 181,216C246,192 271,169 271,127C271,87 241,55 177,55C133,55 87,73 61,90M235,550l94,143l-66,0l-59,-95l-2,0l-59,95l-68,0l96,-143z"
   id="glyph1012" />
<glyph
   unicode="ŝ"
   horiz-adv-x="396"
   d="M39,23C73,3 122,-10 175,-10C290,-10 356,50 356,135C356,207 313,249 229,281C166,305 137,323 137,363C137,399 166,429 218,429C263,429 298,413 317,401l22,64C312,481 269,495 220,495C116,495 53,431 53,353C53,295 94,247 181,216C246,192 271,169 271,127C271,87 241,55 177,55C133,55 87,73 61,90M169,693l-94,-143l65,0l58,95l2,0l58,-95l68,0l-96,143z"
   id="glyph1014" />
<glyph
   unicode="§"
   horiz-adv-x="519"
   d="M130,351C130,381 144,406 176,429C208,410 259,393 299,378C364,355 388,323 388,285C388,254 375,226 350,208C327,223 287,238 236,256C157,285 130,315 130,351M418,650C384,669 336,683 280,683C177,683 95,629 95,541C96,507 112,473 132,457C79,423 59,378 59,340C59,254 130,217 233,182C326,150 355,125 355,78C355,25 307,-4 243,-4C184,-4 135,20 111,37l-24,-57C125,-48 183,-62 244,-62C337,-62 434,-17 434,88C434,129 413,162 396,176C436,207 461,245 461,297C461,387 390,425 298,455C223,480 173,499 173,551C173,596 218,625 277,625C331,625 371,609 397,593z"
   id="glyph1016" />
<glyph
   unicode=";"
   horiz-adv-x="207"
   d="M78,-117C106,-70 150,41 174,126l-97,-10C66,43 39,-64 17,-123M119,342C155,342 178,369 178,404C178,441 155,467 119,467C85,467 60,441 60,404C60,369 84,342 119,342z"
   id="glyph1018" />
<glyph
   unicode="7"
   horiz-adv-x="513"
   d="M57,650l0,-73l318,0l0,-2l-282,-575l91,0l283,592l0,58z"
   id="glyph1020" />
<glyph
   unicode=""
   horiz-adv-x="294"
   d="M19,390l0,-55l192,0l0,-1l-171,-334l71,0l171,347l0,43z"
   id="glyph1022" />
<glyph
   unicode=""
   horiz-adv-x="412"
   d="M1,650l0,-73l318,0l0,-2l-281,-575l90,0l283,592l0,58z"
   id="glyph1024" />
<glyph
   unicode="₇"
   horiz-adv-x="294"
   d="M19,243l0,-55l192,0l0,-1l-171,-334l71,0l171,347l0,43z"
   id="glyph1026" />
<glyph
   unicode=""
   horiz-adv-x="294"
   d="M19,656l0,-55l192,0l0,-1l-171,-334l71,0l171,347l0,43z"
   id="glyph1028" />
<glyph
   unicode=""
   horiz-adv-x="428"
   d="M405,484l-388,0l0,-73l298,0l0,-2C262,269 122,19 40,-100l82,-15C223,41 343,265 405,428z"
   id="glyph1030" />
<glyph
   unicode="⁷"
   horiz-adv-x="294"
   d="M19,833l0,-55l192,0l0,-1l-171,-334l71,0l171,347l0,43z"
   id="glyph1032" />
<glyph
   unicode=""
   horiz-adv-x="530"
   d="M454,484l-387,0l0,-73l297,0l0,-2C311,269 171,19 89,-100l82,-15C272,41 392,265 454,428z"
   id="glyph1034" />
<glyph
   unicode="σ"
   horiz-adv-x="554"
   d="M542,495l-255,0C141,494 38,399 38,237C38,84 139,-11 270,-11C380,-11 502,67 502,245C502,318 469,389 412,428l0,4C483,429 515,428 539,428M272,55C188,55 127,135 127,241C127,333 172,429 273,429C373,429 415,327 415,245C415,135 352,55 272,55z"
   id="glyph1036" />
<glyph
   unicode="6"
   horiz-adv-x="513"
   d="M416,660C400,660 378,659 352,655C270,645 198,612 144,559C80,495 34,394 34,266C34,97 125,-11 264,-11C399,-11 480,99 480,218C480,345 399,428 284,428C212,428 158,394 127,353l-3,0C139,460 212,561 350,584C375,588 398,589 416,588M264,57C172,57 123,136 121,243C121,259 125,272 131,282C155,329 204,362 257,362C338,362 391,306 391,213C391,120 340,57 264,57z"
   id="glyph1038" />
<glyph
   unicode=""
   horiz-adv-x="332"
   d="M267,394C257,395 243,394 227,392C171,387 125,368 91,335C50,297 23,236 23,162C23,65 78,-5 171,-5C251,-5 309,57 309,134C309,209 259,259 187,259C145,259 112,240 93,218l-1,0C102,278 147,329 227,340C241,342 256,342 267,342M170,46C117,46 89,91 89,145C89,154 91,160 94,166C107,192 134,211 165,211C212,211 241,179 241,130C241,82 212,46 170,46z"
   id="glyph1040" />
<glyph
   unicode=""
   horiz-adv-x="515"
   d="M418,660C402,660 380,659 354,655C272,645 200,612 146,559C82,495 36,394 36,266C36,97 127,-11 266,-11C401,-11 482,99 482,218C482,345 401,428 286,428C214,428 160,394 129,353l-3,0C141,460 214,561 352,584C377,588 400,589 418,588M266,57C174,57 125,136 123,243C123,259 127,272 133,282C157,329 206,362 259,362C340,362 393,306 393,213C393,120 342,57 266,57z"
   id="glyph1042" />
<glyph
   unicode="₆"
   horiz-adv-x="332"
   d="M267,247C257,248 243,247 227,245C171,240 125,221 91,188C50,150 23,89 23,15C23,-82 78,-152 171,-152C251,-152 309,-90 309,-13C309,62 259,112 187,112C145,112 112,93 93,71l-1,0C102,131 147,182 227,193C241,195 256,195 267,195M170,-101C117,-101 89,-56 89,-2C89,7 91,13 94,19C107,45 134,64 165,64C212,64 241,32 241,-17C241,-65 212,-101 170,-101z"
   id="glyph1044" />
<glyph
   unicode=""
   horiz-adv-x="332"
   d="M267,660C257,661 243,660 227,658C171,653 125,634 91,601C50,563 23,502 23,428C23,331 78,261 171,261C251,261 309,323 309,400C309,475 259,525 187,525C145,525 112,506 93,484l-1,0C102,544 147,595 227,606C241,608 256,608 267,608M170,312C117,312 89,357 89,411C89,420 91,426 94,432C107,458 134,477 165,477C212,477 241,445 241,396C241,348 212,312 170,312z"
   id="glyph1046" />
<glyph
   unicode=""
   horiz-adv-x="520"
   d="M432,606C192,593 47,442 47,235C47,88 136,-11 269,-11C373,-11 477,68 477,202C477,321 392,394 290,394C221,394 169,357 144,321l-3,0C164,435 258,530 438,541M269,56C188,56 135,125 135,206C135,239 143,263 168,288C186,308 223,331 268,331C341,331 390,280 390,198C390,103 328,56 269,56z"
   id="glyph1048" />
<glyph
   unicode="⁶"
   horiz-adv-x="332"
   d="M267,837C257,837 243,836 227,835C171,829 125,811 91,777C50,739 23,679 23,605C23,507 78,438 171,438C251,438 309,500 309,576C309,652 259,702 187,702C145,702 112,682 93,660l-1,0C102,720 147,772 227,783C241,785 256,784 267,784M170,488C117,488 89,533 89,587C89,596 91,603 94,609C107,634 134,654 165,654C212,654 241,621 241,572C241,524 212,488 170,488z"
   id="glyph1050" />
<glyph
   unicode=""
   horiz-adv-x="530"
   d="M441,606C202,593 56,442 56,235C56,88 145,-11 278,-11C382,-11 486,68 486,202C486,321 401,394 300,394C230,394 179,357 153,321l-3,0C173,435 267,530 447,541M278,56C197,56 145,125 145,206C145,239 152,263 177,288C196,308 232,331 278,331C350,331 399,280 399,198C399,103 338,56 278,56z"
   id="glyph1052" />
<glyph
   unicode="/"
   horiz-adv-x="343"
   d="M66,-40l280,725l-68,0l-279,-725z"
   id="glyph1054" />
<glyph
   unicode=" "
   horiz-adv-x="212"
   id="glyph1056" />
<glyph
   unicode=""
   horiz-adv-x="300"
   d="M151,-80C122,-80 99,-103 99,-131C99,-159 121,-183 149,-183C179,-183 200,-159 200,-131C200,-103 178,-80 151,-80z"
   id="glyph1058" />
<glyph
   unicode=""
   horiz-adv-x="300"
   d="M151,-181C179,-181 200,-156 200,-130C200,-104 179,-80 152,-80C123,-80 101,-104 101,-130C101,-156 123,-181 151,-181z"
   id="glyph1060" />
<glyph
   unicode=""
   horiz-adv-x="300"
   d="M161,530C184,575 236,591 236,647C236,691 199,722 152,722C102,722 72,691 54,655l34,-20C100,653 115,670 137,670C155,670 170,657 170,636C170,599 126,586 114,542z"
   id="glyph1062" />
<glyph
   unicode=""
   horiz-adv-x="300"
   d="M169,709C195,755 240,766 240,817C240,858 203,889 157,889C106,889 76,858 58,822l34,-20C103,819 120,837 141,837C161,837 174,825 174,806C174,773 138,765 122,722z"
   id="glyph1064" />
<glyph
   unicode=""
   horiz-adv-x="300"
   d="M-2,685l116,-141l56,0l-81,141M149,685l116,-141l55,0l-80,141z"
   id="glyph1066" />
<glyph
   unicode=""
   horiz-adv-x="300"
   d="M-45,828l128,-117l67,0l-92,117M129,828l127,-117l67,0l-91,117z"
   id="glyph1068" />
<glyph
   unicode=""
   horiz-adv-x="300"
   d="M173,433l31,0C266,433 303,470 303,520C303,547 296,572 285,592l-67,-11C229,563 235,542 235,523C235,498 223,484 188,484l-15,0z"
   id="glyph1070" />
<glyph
   unicode=""
   horiz-adv-x="300"
   d="M173,621l30,0C270,621 303,656 303,707C303,736 296,760 286,782l-68,-12C229,752 235,731 235,712C235,686 223,674 188,674l-15,0z"
   id="glyph1072" />
<glyph
   unicode=""
   horiz-adv-x="300"
   d="M93,-222C155,-218 222,-188 222,-114C222,-82 202,-54 182,-41l-65,-14C135,-69 151,-92 151,-115C151,-155 115,-175 76,-181z"
   id="glyph1074" />
<glyph
   unicode=""
   horiz-adv-x="300"
   d="M93,-222C155,-218 222,-188 222,-114C222,-81 202,-54 182,-41l-65,-14C135,-69 151,-92 151,-115C151,-155 115,-174 76,-181z"
   id="glyph1076" />
<glyph
   unicode="£"
   horiz-adv-x="513"
   d="M471,0l0,73l-298,0l0,2C207,104 231,140 242,183C251,219 249,257 246,295l136,0l0,63l-144,0C232,390 226,422 226,465C226,536 258,590 336,590C378,590 407,580 425,570l20,66C424,649 388,661 336,661C225,661 144,584 144,466C144,427 150,388 155,358l-93,0l0,-63l103,0C169,269 170,249 170,225C170,150 123,84 56,50l0,-50z"
   id="glyph1078" />
<glyph
   unicode=""
   horiz-adv-x="530"
   d="M479,0l0,71l-292,0l0,2C223,97 249,137 250,189C250,199 249,211 248,222l138,0l0,55l-149,0C233,296 230,317 230,338C230,415 266,464 339,464C379,464 411,454 429,443l19,65C426,521 389,533 339,533C224,533 147,454 147,339C147,319 151,298 155,277l-86,0l0,-55l97,0C169,207 170,192 170,177C170,124 129,78 63,50l0,-50z"
   id="glyph1080" />
<glyph
   unicode="∑"
   horiz-adv-x="507"
   d="M514,-90l0,73l-392,0l0,3l234,295l-222,293l0,4l349,0l0,72l-461,0l0,-59l238,-313l-251,-316l0,-52z"
   id="glyph1082" />
<glyph
   unicode="t"
   horiz-adv-x="331"
   d="M93,600l0,-116l-75,0l0,-67l75,0l0,-264C93,96 102,53 127,27C148,3 181,-10 222,-10C256,-10 283,-5 300,2l-4,66C285,65 268,62 245,62C196,62 179,96 179,156l0,261l126,0l0,67l-126,0l0,139z"
   id="glyph1084" />
<glyph
   unicode="τ"
   horiz-adv-x="413"
   d="M321,60C315,59 308,59 300,59C270,59 244,75 244,141l0,274l150,0l11,69l-279,0C47,484 11,470 -6,458l12,-51C27,411 53,415 104,415l53,0l0,-276C157,37 191,-11 269,-11C287,-11 307,-8 317,-3z"
   id="glyph1086" />
<glyph
   unicode="ŧ"
   horiz-adv-x="331"
   d="M305,417l0,67l-126,0l0,139l-86,-23l0,-116l-75,0l0,-67l75,0l0,-115l-67,0l0,-54l67,0l0,-95C93,96 102,53 127,27C148,3 181,-10 222,-10C256,-10 283,-5 300,2l-4,66C285,65 268,62 245,62C196,62 179,96 179,156l0,92l98,0l0,54l-98,0l0,115z"
   id="glyph1088" />
<glyph
   unicode="ť"
   horiz-adv-x="339"
   d="M277,541C301,551 357,585 357,653C357,685 339,711 322,722l-63,-13C275,695 289,673 289,650C289,614 268,589 251,576M93,600l0,-116l-75,0l0,-67l75,0l0,-264C93,96 102,53 127,27C148,3 181,-10 222,-10C256,-10 283,-5 300,2l-4,66C285,65 268,62 245,62C196,62 179,96 179,156l0,261l126,0l0,67l-126,0l0,139z"
   id="glyph1090" />
<glyph
   unicode="θ"
   horiz-adv-x="534"
   d="M269,-11C424,-11 497,136 497,361C497,576 426,721 272,721C121,721 38,565 38,361C38,114 126,-11 269,-11M125,399C125,535 178,656 267,656C364,656 409,541 410,399M410,333C410,170 365,54 271,54C185,54 125,155 125,333z"
   id="glyph1092" />
<glyph
   unicode="þ"
   horiz-adv-x="569"
   d="M73,710l0,-908l87,0l0,263l2,0C193,17 247,-11 311,-11C421,-11 531,71 531,248C531,398 441,496 327,495C248,495 195,460 162,407l-2,0l0,303M160,280C160,296 165,315 170,329C191,388 244,425 300,425C390,425 443,343 443,247C443,131 385,58 298,58C240,58 189,92 170,147C164,160 160,177 160,191z"
   id="glyph1094" />
<glyph
   unicode="3"
   horiz-adv-x="513"
   d="M42,33C74,12 138,-11 211,-11C367,-11 448,80 448,184C448,275 383,335 303,351l0,2C383,382 423,439 423,506C423,585 365,661 237,661C167,661 101,636 67,611l23,-64C118,567 168,590 220,590C301,590 334,544 334,492C334,415 253,382 189,382l-49,0l0,-66l49,0C274,316 356,277 357,186C358,132 323,60 210,60C149,60 91,85 66,101z"
   id="glyph1096" />
<glyph
   unicode=""
   horiz-adv-x="305"
   d="M45,317C61,328 94,343 130,343C175,343 193,318 193,294C192,247 139,230 102,230l-28,0l0,-46l27,0C154,184 207,164 207,114C208,83 181,47 120,47C82,47 43,62 27,73l-18,-50C31,8 75,-5 123,-5C225,-5 281,50 281,112C281,163 243,201 188,209l0,2C236,227 265,261 265,301C265,349 229,395 143,395C94,395 51,379 28,364z"
   id="glyph1098" />
<glyph
   unicode=""
   horiz-adv-x="450"
   d="M7,33C39,12 103,-11 176,-11C331,-11 413,80 413,184C413,275 348,335 268,351l0,2C347,382 388,439 388,506C388,585 330,661 201,661C132,661 65,636 31,611l24,-64C83,567 133,590 185,590C266,590 299,544 299,492C299,415 218,382 154,382l-49,0l0,-66l49,0C239,316 321,277 322,186C323,132 287,60 175,60C113,60 55,85 31,101z"
   id="glyph1100" />
<glyph
   unicode="₃"
   horiz-adv-x="305"
   d="M45,170C61,181 94,196 130,196C175,196 193,171 193,147C192,100 139,83 102,83l-28,0l0,-46l27,0C154,37 207,17 207,-33C208,-64 181,-100 120,-100C82,-100 43,-85 27,-74l-18,-50C31,-139 75,-152 123,-152C225,-152 281,-97 281,-35C281,16 243,54 188,62l0,2C236,80 265,114 265,154C265,202 229,248 143,248C94,248 51,232 28,217z"
   id="glyph1102" />
<glyph
   unicode=""
   horiz-adv-x="305"
   d="M45,583C61,594 94,609 130,609C175,609 193,584 193,560C192,513 139,496 102,496l-28,0l0,-46l27,0C154,450 207,430 207,380C208,349 181,313 120,313C82,313 43,328 27,339l-18,-50C31,274 75,261 123,261C225,261 281,316 281,378C281,429 243,467 188,475l0,2C236,493 265,527 265,567C265,615 229,661 143,661C94,661 51,645 28,630z"
   id="glyph1104" />
<glyph
   unicode=""
   horiz-adv-x="433"
   d="M17,-96C40,-106 92,-116 144,-116C279,-116 396,-40 396,75C396,160 328,208 249,219l0,3C317,242 367,292 367,360C367,444 295,495 193,495C127,495 64,471 33,450l18,-59C75,404 123,426 174,426C239,426 279,399 279,345C279,283 209,247 116,240l-19,-2l2,-64C111,175 131,176 154,176C246,176 306,137 306,74C306,1 236,-47 137,-47C95,-47 53,-40 28,-31z"
   id="glyph1106" />
<glyph
   unicode=""
   horiz-adv-x="530"
   d="M62,-96C84,-106 137,-116 189,-116C324,-116 440,-40 440,75C440,160 372,208 293,219l0,3C361,242 411,292 411,360C411,444 339,495 238,495C172,495 108,471 77,450l18,-59C119,404 168,426 219,426C283,426 324,399 324,345C324,283 254,247 160,240l-19,-2l2,-64C156,175 176,176 198,176C290,176 350,137 350,74C350,1 280,-47 181,-47C139,-47 97,-40 72,-31z"
   id="glyph1108" />
<glyph
   unicode="¾"
   horiz-adv-x="759"
   d="M66,583C82,594 115,609 151,609C196,609 214,584 214,560C214,513 160,496 123,496l-28,0l0,-46l28,0C175,450 228,430 229,380C229,349 203,313 141,313C103,313 64,328 48,339l-18,-50C53,274 96,261 145,261C247,261 302,316 302,378C302,429 264,467 210,475l0,2C257,493 286,527 286,567C286,615 250,661 164,661C115,661 72,645 49,630M231,-11l380,672l-56,0l-380,-672M674,0l0,103l56,0l0,49l-56,0l0,240l-79,0l-177,-249l0,-40l189,0l0,-103M607,152l-119,0l-1,2l87,120C586,292 596,310 608,333l2,0C609,313 607,292 607,270z"
   id="glyph1110" />
<glyph
   unicode="³"
   horiz-adv-x="305"
   d="M45,759C61,770 94,786 130,786C175,786 193,761 193,736C192,690 139,673 102,673l-28,0l0,-46l27,0C154,627 207,607 207,556C208,525 181,489 120,489C82,489 43,505 27,515l-18,-50C31,450 75,438 123,438C225,438 281,493 281,555C281,605 243,644 188,651l0,2C236,670 265,703 265,743C265,792 229,838 143,838C94,838 51,821 28,806z"
   id="glyph1112" />
<glyph
   unicode="˜"
   horiz-adv-x="300"
   d="M75,567C77,595 85,612 101,612C113,612 124,606 144,594C165,583 184,574 205,574C252,574 275,608 274,675l-47,0C225,641 215,632 199,632C187,632 173,640 157,649C134,662 117,671 95,671C52,671 25,632 27,567z"
   id="glyph1114" />
<glyph
   unicode=""
   horiz-adv-x="300"
   d="M73,715C75,742 83,759 99,759C113,759 127,750 146,740C168,729 186,721 207,721C253,721 275,755 274,818l-46,0C225,786 216,779 201,779C185,779 169,788 153,797C132,808 116,817 94,817C50,817 24,776 26,715z"
   id="glyph1116" />
<glyph
   unicode="΄"
   horiz-adv-x="301"
   d="M137,694l-54,-143l60,0l83,143z"
   id="glyph1118" />
<glyph
   unicode=""
   horiz-adv-x="301"
   d="M119,674l-8,-155l52,0l35,155z"
   id="glyph1120" />
<glyph
   unicode="™"
   horiz-adv-x="619"
   d="M30,674l0,-45l87,0l0,-227l54,0l0,227l87,0l0,45M606,402l-21,272l-78,0l-47,-134C454,520 448,497 441,472l-1,0C433,500 428,520 422,541l-47,133l-81,0l-20,-272l52,0l10,160C337,587 338,613 338,638l3,0C347,614 355,582 360,561l49,-155l56,0l49,151C522,582 530,614 537,638l3,0C541,609 541,583 542,562l10,-160z"
   id="glyph1122" />
<glyph
   unicode="2"
   horiz-adv-x="513"
   d="M460,0l0,73l-292,0l0,2l52,48C357,255 444,352 444,472C444,565 385,661 245,661C170,661 106,633 61,595l28,-62C119,558 168,588 227,588C324,588 356,527 356,461C355,363 280,279 114,121l-69,-67l0,-54z"
   id="glyph1124" />
<glyph
   unicode=""
   horiz-adv-x="311"
   d="M12,0l270,0l0,55l-171,0l0,2l31,28C218,152 275,207 275,282C275,336 236,395 142,395C92,395 47,376 20,353l21,-45C60,321 90,339 125,339C177,339 201,307 201,269C201,218 158,171 75,96l-63,-59z"
   id="glyph1126" />
<glyph
   unicode=""
   horiz-adv-x="447"
   d="M418,0l0,73l-291,0l0,2l51,48C315,255 402,352 402,472C402,565 343,661 203,661C128,661 64,633 20,595l28,-62C78,558 126,588 186,588C283,588 314,527 314,461C314,363 238,279 72,121l-69,-67l0,-54z"
   id="glyph1128" />
<glyph
   unicode="₂"
   horiz-adv-x="311"
   d="M12,-147l270,0l0,55l-171,0l0,2l31,28C218,5 275,60 275,135C275,189 236,248 142,248C92,248 47,229 20,206l21,-45C60,174 90,192 125,192C177,192 201,160 201,122C201,71 158,24 75,-51l-63,-59z"
   id="glyph1130" />
<glyph
   unicode=""
   horiz-adv-x="311"
   d="M12,266l270,0l0,55l-171,0l0,2l31,28C218,418 275,473 275,548C275,602 236,661 142,661C92,661 47,642 20,619l21,-45C60,587 90,605 125,605C177,605 201,573 201,535C201,484 158,437 75,362l-63,-59z"
   id="glyph1132" />
<glyph
   unicode=""
   horiz-adv-x="448"
   d="M420,0l0,70l-182,0C213,70 181,69 157,66l0,3l51,37C313,180 385,248 385,340C385,438 313,495 211,495C131,495 65,460 30,433l23,-57C88,401 137,424 189,424C251,424 297,393 297,328C297,248 223,181 72,82l-48,-34l0,-48z"
   id="glyph1134" />
<glyph
   unicode=""
   horiz-adv-x="530"
   d="M462,0l0,70l-181,0C255,70 224,69 199,66l0,3l51,37C355,180 427,248 427,340C427,438 355,495 254,495C173,495 108,460 72,433l24,-57C130,401 180,424 231,424C294,424 339,393 339,328C339,248 265,181 115,82l-49,-34l0,-48z"
   id="glyph1136" />
<glyph
   unicode="²"
   horiz-adv-x="311"
   d="M12,443l270,0l0,55l-171,0l0,2l31,28C218,594 275,649 275,725C275,778 236,838 142,838C92,838 47,818 20,796l21,-46C60,764 90,781 125,781C177,781 201,750 201,712C201,661 158,614 75,538l-63,-58z"
   id="glyph1138" />
<glyph
   unicode="u"
   horiz-adv-x="551"
   d="M478,484l-88,0l0,-297C390,171 387,155 382,142C366,103 325,62 266,62C186,62 158,124 158,216l0,268l-88,0l0,-283C70,31 161,-11 237,-11C323,-11 374,40 397,79l2,0l5,-79l78,0C479,38 478,82 478,132z"
   id="glyph1140" />
<glyph
   unicode="ú"
   horiz-adv-x="551"
   d="M478,484l-88,0l0,-297C390,171 387,155 382,142C366,103 325,62 266,62C186,62 158,124 158,216l0,268l-88,0l0,-283C70,31 161,-11 237,-11C323,-11 374,40 397,79l2,0l5,-79l78,0C479,38 478,82 478,132M321,693l-88,-143l63,0l122,143z"
   id="glyph1142" />
<glyph
   unicode="ŭ"
   horiz-adv-x="551"
   d="M478,484l-88,0l0,-297C390,171 387,155 382,142C366,103 325,62 266,62C186,62 158,124 158,216l0,268l-88,0l0,-283C70,31 161,-11 237,-11C323,-11 374,40 397,79l2,0l5,-79l78,0C479,38 478,82 478,132M151,682C151,620 187,558 275,558C350,558 399,608 399,682l-52,0C344,649 322,613 275,613C234,613 209,643 203,682z"
   id="glyph1144" />
<glyph
   unicode="û"
   horiz-adv-x="551"
   d="M478,484l-88,0l0,-297C390,171 387,155 382,142C366,103 325,62 266,62C186,62 158,124 158,216l0,268l-88,0l0,-283C70,31 161,-11 237,-11C323,-11 374,40 397,79l2,0l5,-79l78,0C479,38 478,82 478,132M244,693l-94,-143l66,0l58,95l2,0l58,-95l67,0l-96,143z"
   id="glyph1146" />
<glyph
   unicode="ü"
   horiz-adv-x="551"
   d="M478,484l-88,0l0,-297C390,171 387,155 382,142C366,103 325,62 266,62C186,62 158,124 158,216l0,268l-88,0l0,-283C70,31 161,-11 237,-11C323,-11 374,40 397,79l2,0l5,-79l78,0C479,38 478,82 478,132M186,570C215,570 235,594 235,621C235,650 214,672 186,672C158,672 135,649 135,621C135,594 156,570 186,570M371,570C400,570 420,594 420,621C420,650 399,672 371,672C343,672 321,649 321,621C321,594 341,570 371,570z"
   id="glyph1148" />
<glyph
   unicode="ù"
   horiz-adv-x="551"
   d="M478,484l-88,0l0,-297C390,171 387,155 382,142C366,103 325,62 266,62C186,62 158,124 158,216l0,268l-88,0l0,-283C70,31 161,-11 237,-11C323,-11 374,40 397,79l2,0l5,-79l78,0C479,38 478,82 478,132M140,693l122,-143l63,0l-88,143z"
   id="glyph1150" />
<glyph
   unicode="ư"
   horiz-adv-x="551"
   d="M489,581C499,563 506,542 506,523C506,498 494,484 459,484l-69,0l0,-297C390,171 387,155 382,142C366,103 325,62 266,62C186,62 158,124 158,216l0,268l-88,0l0,-283C70,31 161,-11 237,-11C323,-11 374,40 397,79l2,0l5,-79l78,0C479,38 478,82 478,132l0,303l11,1C538,438 574,470 574,520C574,547 567,572 556,592z"
   id="glyph1152" />
<glyph
   unicode="ű"
   horiz-adv-x="551"
   d="M478,484l-88,0l0,-297C390,171 387,155 382,142C366,103 325,62 266,62C186,62 158,124 158,216l0,268l-88,0l0,-283C70,31 161,-11 237,-11C323,-11 374,40 397,79l2,0l5,-79l78,0C479,38 478,82 478,132M246,693l-79,-137l55,0l110,137M390,693l-79,-137l55,0l110,137z"
   id="glyph1154" />
<glyph
   unicode="ū"
   horiz-adv-x="551"
   d="M478,484l-88,0l0,-297C390,171 387,155 382,142C366,103 325,62 266,62C186,62 158,124 158,216l0,268l-88,0l0,-283C70,31 161,-11 237,-11C323,-11 374,40 397,79l2,0l5,-79l78,0C479,38 478,82 478,132M163,643l0,-57l225,0l0,57z"
   id="glyph1156" />
<glyph
   unicode="_"
   horiz-adv-x="500"
   d="M0,-75l0,-50l500,0l0,50z"
   id="glyph1158" />
<glyph
   unicode=" "
   horiz-adv-x="212"
   id="glyph1160" />
<glyph
   unicode="­"
   horiz-adv-x="307"
   d="M30,303l0,-65l247,0l0,65z"
   id="glyph1162" />
<glyph
   unicode="Ģ"
   horiz-adv-x="646"
   d="M589,354l-222,0l0,-70l137,0l0,-201C484,73 445,65 388,65C231,65 128,166 128,337C128,506 235,608 399,608C467,608 512,595 548,579l21,71C540,664 479,681 401,681C175,681 37,534 36,333C36,228 72,138 130,82C196,19 280,-7 382,-7C473,-7 550,16 589,30M298,-222C359,-218 426,-188 426,-114C426,-81 407,-54 387,-41l-65,-14C339,-69 356,-92 356,-115C356,-155 319,-174 281,-181z"
   id="glyph1164" />
<glyph
   unicode="ģ"
   horiz-adv-x="559"
   d="M338,709C277,706 209,677 209,606C209,575 229,548 249,535l63,13C294,563 277,584 277,607C277,647 314,666 355,672M413,484l-4,-73l-2,0C386,451 340,495 256,495C145,495 38,402 38,238C38,104 124,2 244,2C319,2 371,38 398,83l2,0l0,-54C400,-93 334,-140 244,-140C184,-140 134,-122 102,-102l-22,-67C119,-195 183,-209 241,-209C302,-209 370,-195 417,-151C464,-109 486,-41 486,70l0,281C486,410 488,449 490,484M399,206C399,191 397,174 392,159C373,103 324,69 270,69C175,69 127,148 127,243C127,355 187,426 271,426C335,426 378,384 394,333C398,321 399,308 399,293z"
   id="glyph1166" />
<glyph
   unicode="Ķ"
   horiz-adv-x="542"
   d="M76,0l87,0l0,257l64,74l222,-331l103,0l-263,388l244,286l-108,0l-206,-253C202,399 184,375 166,349l-3,0l0,325l-87,0M215,-220C277,-216 344,-186 344,-113C344,-80 324,-52 304,-39l-65,-14C257,-67 273,-90 273,-114C273,-153 237,-173 198,-179z"
   id="glyph1168" />
<glyph
   unicode="ķ"
   horiz-adv-x="469"
   d="M160,710l-87,0l0,-710l87,0l0,182l45,50l167,-232l107,0l-213,285l187,199l-106,0l-142,-167C191,300 174,279 162,262l-2,0M177,-222C239,-218 306,-188 306,-114C306,-82 287,-54 267,-41l-66,-14C219,-69 235,-92 235,-115C235,-155 199,-175 160,-181z"
   id="glyph1170" />
<glyph
   unicode="Ļ"
   horiz-adv-x="472"
   d="M76,0l375,0l0,73l-288,0l0,601l-87,0M189,-222C251,-218 318,-188 318,-114C318,-81 299,-54 279,-41l-66,-14C231,-69 248,-92 248,-115C248,-155 211,-174 173,-181z"
   id="glyph1172" />
<glyph
   unicode="ļ"
   horiz-adv-x="236"
   d="M73,0l88,0l0,710l-88,0M52,-222C114,-218 181,-188 181,-114C181,-82 161,-54 141,-41l-65,-14C94,-69 110,-92 110,-115C110,-155 74,-175 35,-181z"
   id="glyph1174" />
<glyph
   unicode="Ņ"
   horiz-adv-x="658"
   d="M158,0l0,288C158,400 156,481 151,566l3,1C188,494 233,417 280,342l214,-342l88,0l0,674l-82,0l0,-282C500,287 502,205 510,115l-2,-1C476,183 437,254 387,333l-216,341l-95,0l0,-674M270,-221C331,-217 398,-187 398,-114C398,-81 379,-53 359,-40l-65,-14C311,-68 328,-91 328,-115C328,-154 291,-174 253,-180z"
   id="glyph1176" />
<glyph
   unicode="ņ"
   horiz-adv-x="555"
   d="M73,0l88,0l0,291C161,306 163,321 167,332C182,381 227,422 285,422C368,422 397,357 397,279l0,-279l88,0l0,289C485,455 381,495 314,495C234,495 178,450 154,404l-2,0l-5,80l-78,0C72,444 73,403 73,353M221,-220C283,-217 350,-186 350,-113C350,-80 330,-52 310,-39l-65,-14C263,-68 279,-90 279,-114C279,-154 243,-173 204,-179z"
   id="glyph1178" />
<glyph
   unicode="Ŗ"
   horiz-adv-x="538"
   d="M76,0l87,0l0,292l82,0C324,289 360,254 380,161C399,77 414,19 425,0l90,0C501,26 485,91 463,185C447,255 416,303 364,321l0,3C435,348 491,407 491,496C491,548 472,594 438,624C396,662 336,679 243,679C183,679 120,674 76,665M163,604C177,608 207,612 249,612C341,611 404,573 404,486C404,409 345,358 252,358l-89,0M212,-215C273,-211 340,-181 340,-107C340,-74 321,-47 301,-34l-65,-14C253,-62 270,-85 270,-108C270,-148 233,-167 195,-174z"
   id="glyph1180" />
<glyph
   unicode="ŗ"
   horiz-adv-x="327"
   d="M73,0l87,0l0,258C160,273 162,287 164,299C176,365 220,412 282,412C294,412 303,411 312,409l0,83C304,494 297,495 287,495C228,495 175,454 153,389l-4,0l-3,95l-77,0C72,439 73,390 73,333M60,-222C122,-218 189,-188 189,-114C189,-82 170,-54 150,-41l-66,-14C102,-69 118,-92 118,-115C118,-155 82,-175 43,-181z"
   id="glyph1182" />
<glyph
   unicode="Ş"
   horiz-adv-x="493"
   d="M423,652C393,669 343,685 274,685C143,685 56,607 56,502C56,407 124,350 234,311C325,276 361,240 361,177C361,109 309,62 220,62C160,62 103,82 64,106l-22,-73C78,9 149,-10 214,-10C215,-10 217,-10 218,-10l-40,-74C225,-89 256,-100 256,-127C256,-148 237,-157 214,-157C193,-157 174,-152 159,-144l-15,-45C162,-199 190,-206 216,-206C267,-206 318,-183 318,-125C318,-84 286,-57 248,-50l27,45C393,15 450,94 450,184C450,283 392,338 278,382C185,418 144,449 144,512C144,558 179,613 271,613C332,613 377,593 399,581z"
   id="glyph1184" />
<glyph
   unicode=""
   horiz-adv-x="493"
   d="M423,652C393,669 343,685 274,685C143,685 56,607 56,502C56,407 124,350 234,311C325,276 361,240 361,177C361,109 309,62 220,62C160,62 103,82 64,106l-22,-73C78,9 149,-10 214,-10C215,-10 217,-10 218,-10l-40,-74C225,-89 256,-100 256,-127C256,-148 237,-157 214,-157C193,-157 174,-152 159,-144l-15,-45C162,-199 190,-206 216,-206C267,-206 318,-183 318,-125C318,-84 286,-57 248,-50l27,45C393,15 450,94 450,184C450,283 392,338 278,382C185,418 144,449 144,512C144,558 179,613 271,613C332,613 377,593 399,581z"
   id="glyph1186" />
<glyph
   unicode="ş"
   horiz-adv-x="396"
   d="M339,465C312,481 269,495 220,495C116,495 53,431 53,353C53,295 94,247 181,216C246,192 271,169 271,127C271,87 241,55 177,55C133,55 87,73 61,90l-22,-67C72,3 120,-9 171,-10l-40,-71C178,-85 208,-97 209,-123C209,-147 188,-155 166,-155C148,-155 128,-150 112,-140l-15,-43C114,-193 141,-200 165,-200C221,-200 269,-178 269,-119C269,-81 236,-55 199,-50l28,45C310,10 356,64 356,135C356,207 313,249 229,281C166,305 137,323 137,363C137,399 166,429 218,429C263,429 298,413 317,401z"
   id="glyph1188" />
<glyph
   unicode=""
   horiz-adv-x="396"
   d="M339,465C312,481 269,495 220,495C116,495 53,431 53,353C53,295 94,247 181,216C246,192 271,169 271,127C271,87 241,55 177,55C133,55 87,73 61,90l-22,-67C72,3 120,-9 171,-10l-40,-71C178,-85 208,-97 209,-123C209,-147 188,-155 166,-155C148,-155 128,-150 112,-140l-15,-43C114,-193 140,-200 165,-200C220,-200 269,-178 269,-119C269,-81 236,-55 199,-50l28,45C310,10 356,64 356,135C356,207 313,249 229,281C166,305 137,323 137,363C137,399 166,429 218,429C263,429 298,413 317,401z"
   id="glyph1190" />
<glyph
   unicode="Ţ"
   horiz-adv-x="497"
   d="M292,0l0,600l206,0l0,74l-499,0l0,-74l205,0l0,-600l17,0l-45,-84C223,-89 254,-100 254,-127C254,-148 235,-157 212,-157C190,-157 172,-152 157,-144l-15,-45C160,-199 188,-206 213,-206C265,-206 316,-183 316,-125C316,-84 284,-57 246,-50l30,50z"
   id="glyph1192" />
<glyph
   unicode="ţ"
   horiz-adv-x="331"
   d="M305,417l0,67l-126,0l0,139l-86,-23l0,-116l-75,0l0,-67l75,0l0,-264C93,96 102,53 127,27C138,14 154,4 172,-2l-45,-79C174,-85 204,-97 205,-123C205,-147 184,-155 162,-155C144,-155 124,-150 108,-140l-15,-43C110,-193 136,-200 161,-200C216,-200 265,-178 265,-119C265,-81 232,-55 195,-50l25,40C221,-10 221,-10 222,-10C256,-10 283,-5 300,2l-4,66C285,65 268,62 245,62C196,62 179,96 179,156l0,261z"
   id="glyph1194" />
<glyph
   unicode="Ș"
   horiz-adv-x="493"
   d="M42,33C78,9 149,-10 214,-10C373,-10 450,80 450,184C450,283 392,338 278,382C185,418 144,449 144,512C144,558 179,613 271,613C332,613 377,593 399,581l24,71C393,669 343,685 274,685C143,685 56,607 56,502C56,407 124,350 234,311C325,276 361,240 361,177C361,109 309,62 220,62C160,62 103,82 64,106M185,-222C247,-218 314,-188 314,-114C314,-81 295,-54 275,-41l-66,-14C227,-69 244,-92 244,-115C244,-155 207,-174 169,-181z"
   id="glyph1196" />
<glyph
   unicode="ș"
   horiz-adv-x="396"
   d="M39,23C73,3 122,-10 175,-10C290,-10 356,50 356,135C356,207 313,249 229,281C166,305 137,323 137,363C137,399 166,429 218,429C263,429 298,413 317,401l22,64C312,481 269,495 220,495C116,495 53,431 53,353C53,295 94,247 181,216C246,192 271,169 271,127C271,87 241,55 177,55C133,55 87,73 61,90M136,-222C198,-218 265,-188 265,-114C265,-82 246,-54 226,-41l-66,-14C178,-69 194,-92 194,-115C194,-155 158,-175 119,-181z"
   id="glyph1198" />
<glyph
   unicode="Ț"
   horiz-adv-x="497"
   d="M204,0l88,0l0,600l206,0l0,74l-499,0l0,-74l205,0M180,-222C242,-218 309,-188 309,-114C309,-81 289,-54 269,-41l-65,-14C222,-69 238,-92 238,-115C238,-155 202,-174 163,-181z"
   id="glyph1200" />
<glyph
   unicode="ț"
   horiz-adv-x="331"
   d="M93,600l0,-116l-75,0l0,-67l75,0l0,-264C93,96 102,53 127,27C148,3 181,-10 222,-10C256,-10 283,-5 300,2l-4,66C285,65 268,62 245,62C196,62 179,96 179,156l0,261l126,0l0,67l-126,0l0,139M122,-227C184,-223 251,-193 251,-120C251,-87 231,-59 211,-46l-65,-14C164,-74 180,-97 180,-121C180,-160 144,-180 105,-186z"
   id="glyph1202" />
<glyph
   unicode="Ȝ"
   horiz-adv-x="480"
   d="M63,-115C293,-88 441,34 441,188C441,295 363,361 262,371l0,3C330,405 385,463 385,538C385,625 311,685 202,685C134,685 63,658 31,638l18,-59C74,592 132,615 186,615C251,615 297,579 297,524C297,445 209,384 96,358l12,-62C142,307 181,314 202,314C296,315 349,256 349,182C349,64 212,-22 52,-46z"
   id="glyph1204" />
<glyph
   unicode="ȝ"
   horiz-adv-x="427"
   d="M44,-209C277,-190 400,-73 400,57C400,145 337,204 245,214l0,3C308,242 351,291 351,357C351,441 284,495 183,495C118,495 57,470 20,446l18,-58C62,401 111,426 162,426C226,426 266,394 266,342C266,269 188,229 81,204l13,-63C121,149 154,156 182,156C271,156 310,106 310,47C310,-108 73,-138 35,-141z"
   id="glyph1206" />
<glyph
   unicode="Ȳ"
   horiz-adv-x="541"
   d="M314,0l0,287l226,387l-99,0l-97,-186C318,437 295,393 276,349l-2,0C253,396 233,437 207,488l-95,186l-99,0l213,-388l0,-286M151,788l0,-55l239,0l0,55z"
   id="glyph1208" />
<glyph
   unicode="ȳ"
   horiz-adv-x="471"
   d="M9,484l179,-446C192,27 194,20 194,15C194,10 191,3 187,-6C167,-51 137,-85 113,-104C87,-126 58,-140 36,-147l22,-74C80,-217 123,-202 166,-164C226,-112 269,-27 332,139l132,345l-93,0l-96,-284C263,165 253,128 244,99l-2,0C234,128 222,166 211,198l-106,286M124,643l0,-57l225,0l0,57z"
   id="glyph1210" />
<glyph
   unicode="ˉ"
   horiz-adv-x="300"
   d="M38,643l0,-57l225,0l0,57z"
   id="glyph1212" />
<glyph
   unicode=";"
   horiz-adv-x="207"
   d="M78,-117C106,-70 150,41 174,126l-97,-10C66,43 39,-64 17,-123M119,342C155,342 178,369 178,404C178,441 155,467 119,467C85,467 60,441 60,404C60,369 84,342 119,342z"
   id="glyph1214" />
<glyph
   unicode="Δ"
   horiz-adv-x="620"
   d="M25,0l566,0l0,50l-232,624l-99,0l-235,-625M118,73l141,384C276,504 294,560 304,594l3,0C319,551 340,491 357,444l137,-371z"
   id="glyph1216" />
<glyph
   unicode="Ω"
   horiz-adv-x="705"
   d="M284,0l0,55C204,105 134,225 134,351C134,483 213,614 355,614C498,614 571,475 571,352C571,217 502,110 422,55l0,-55l253,0l0,69l-147,0l0,4C595,129 661,228 661,366C661,544 544,685 357,685C178,685 43,550 43,358C43,228 108,128 175,73l0,-4l-145,0l0,-69z"
   id="glyph1218" />
<glyph
   unicode="μ"
   horiz-adv-x="553"
   d="M403,75C411,13 446,-11 489,-11C503,-11 509,-10 519,-7l7,64C491,59 480,80 480,133l0,351l-87,0l0,-297C393,171 390,155 385,142C369,103 327,61 269,61C192,61 160,123 160,198l0,286l-87,0l0,-504C73,-97 77,-168 87,-198l79,0C156,-158 155,-69 155,-16l0,60C176,7 217,-9 261,-9C333,-9 380,37 400,75z"
   id="glyph1220" />
<glyph
   unicode="ς"
   horiz-adv-x="417"
   d="M408,473C383,487 342,495 299,495C131,495 38,364 38,234C38,104 119,33 220,4C250,-4 286,-11 319,-17C317,-41 300,-103 286,-126l59,-18C371,-111 403,-26 403,29C403,39 400,42 393,44C347,51 312,57 264,70C177,96 127,147 127,242C127,341 195,427 299,427C337,427 364,419 388,409z"
   id="glyph1222" />
<glyph
   unicode="Ё"
   horiz-adv-x="492"
   d="M425,388l-262,0l0,213l277,0l0,73l-364,0l0,-674l379,0l0,73l-292,0l0,243l262,0M163,721C192,721 211,744 211,772C211,800 191,822 163,822C135,822 113,799 113,772C113,744 133,721 163,721M348,721C378,721 397,744 397,772C397,800 377,822 348,822C320,822 299,799 299,772C299,744 319,721 348,721z"
   id="glyph1224" />
<glyph
   unicode="Ђ"
   horiz-adv-x="665"
   d="M-1,674l0,-73l187,0l0,-601l87,0l0,338C303,360 343,377 387,377C438,377 474,355 500,316C523,280 534,230 534,170C534,95 516,37 487,-1C458,-40 416,-61 377,-71l16,-68C437,-132 490,-110 532,-63C591,-13 625,75 625,178C625,246 611,314 574,366C537,418 485,450 411,450C359,450 308,429 276,409l-3,0l0,192l244,0l0,73z"
   id="glyph1226" />
<glyph
   unicode="Ѓ"
   horiz-adv-x="433"
   d="M76,674l0,-674l87,0l0,601l271,0l0,73M283,827l-93,-117l72,0l127,117z"
   id="glyph1228" />
<glyph
   unicode="Є"
   horiz-adv-x="576"
   d="M544,653C520,665 472,685 387,685C168,685 36,526 36,336C36,118 180,-11 371,-11C451,-11 510,6 543,22l-16,67C488,72 439,62 387,62C233,62 135,173 131,309l345,0l0,70l-346,0C144,509 237,613 390,613C442,613 490,601 523,585z"
   id="glyph1230" />
<glyph
   unicode="Ѕ"
   horiz-adv-x="493"
   d="M42,33C78,9 149,-10 214,-10C373,-10 450,80 450,184C450,283 392,338 278,382C185,418 144,449 144,512C144,558 179,613 271,613C332,613 377,593 399,581l24,71C393,669 343,685 274,685C143,685 56,607 56,502C56,407 124,350 234,311C325,276 361,240 361,177C361,109 309,62 220,62C160,62 103,82 64,106z"
   id="glyph1232" />
<glyph
   unicode="І"
   horiz-adv-x="239"
   d="M76,674l0,-674l87,0l0,674z"
   id="glyph1234" />
<glyph
   unicode="Ї"
   horiz-adv-x="239"
   d="M76,674l0,-674l87,0l0,674M28,721C57,721 76,744 76,772C76,800 56,822 28,822C0,822 -22,799 -22,772C-22,744 -2,721 28,721M213,721C243,721 262,744 262,772C262,800 242,822 214,822C185,822 164,799 164,772C164,744 184,721 213,721z"
   id="glyph1236" />
<glyph
   unicode="Ј"
   horiz-adv-x="370"
   d="M214,230C214,98 168,63 90,63C61,63 35,69 17,76l-13,-71C26,-4 65,-11 97,-11C213,-11 301,44 301,223l0,451l-87,0z"
   id="glyph1238" />
<glyph
   unicode="Љ"
   horiz-adv-x="881"
   d="M125,674l0,-284C125,282 120,151 66,99C50,83 22,67 -6,62l13,-70C43,-8 84,8 108,24C202,89 209,251 209,397l0,204l205,0l0,-599C443,-2 488,-6 549,-6C642,-6 730,15 786,69C820,104 842,152 842,215C842,364 718,425 583,425C561,425 522,423 501,420l0,254M501,353C523,355 550,357 571,357C665,357 751,318 751,213C751,111 668,62 571,62C543,62 522,63 501,66z"
   id="glyph1240" />
<glyph
   unicode="Њ"
   horiz-adv-x="897"
   d="M76,674l0,-674l87,0l0,331l267,0l0,-329C459,-2 504,-6 566,-6C662,-6 746,13 801,68C836,102 858,149 858,214C858,356 741,416 609,416C574,416 538,414 517,411l0,263l-87,0l0,-269l-267,0l0,269M517,344C536,346 560,348 591,348C684,348 767,310 767,211C767,107 683,62 588,62C559,62 537,63 517,67z"
   id="glyph1242" />
<glyph
   unicode="Ћ"
   horiz-adv-x="675"
   d="M-1,674l0,-73l184,0l0,-601l88,0l0,340C303,363 355,383 398,383C436,383 463,371 484,349C507,324 516,289 516,239l0,-239l88,0l0,251C604,318 587,371 551,408C522,437 482,454 426,454C369,454 311,431 273,408l-2,0l0,193l235,0l0,73z"
   id="glyph1244" />
<glyph
   unicode="Ќ"
   horiz-adv-x="542"
   d="M76,674l0,-674l86,0l0,309l28,0C304,309 347,248 378,159C396,106 415,46 439,0l94,0C503,60 484,122 459,191C424,282 381,350 270,365l255,309l-105,0l-231,-299l-27,0l0,299M318,822l-92,-117l71,0l128,117z"
   id="glyph1246" />
<glyph
   unicode="Ў"
   horiz-adv-x="521"
   d="M2,674l224,-454C234,204 236,194 229,179C208,131 167,64 97,63C82,63 72,64 65,66l-9,-71C67,-9 83,-11 105,-11C165,-11 214,17 258,72C305,135 347,238 384,328l141,346l-92,0l-105,-284C311,342 298,303 286,268l-2,0C268,308 252,347 235,387l-134,287M133,817C138,751 177,709 259,709C344,709 384,750 389,817l-67,0C318,784 307,755 261,755C214,755 204,786 200,817z"
   id="glyph1248" />
<glyph
   unicode="Џ"
   horiz-adv-x="635"
   d="M76,674l0,-674l199,0l7,-174l72,0l8,174l199,0l0,674l-87,0l0,-601l-311,0l0,601z"
   id="glyph1250" />
<glyph
   unicode="А"
   horiz-adv-x="612"
   d="M424,212l72,-212l93,0l-230,674l-105,0l-229,-674l90,0l70,212M203,280l66,195C282,516 293,557 303,597l2,0C315,558 325,518 340,474l66,-194z"
   id="glyph1252" />
<glyph
   unicode="Б"
   horiz-adv-x="546"
   d="M76,674l0,-672C105,-2 151,-6 212,-6C304,-6 395,15 450,69C485,104 506,152 506,215C506,294 471,347 420,380C373,411 310,425 246,425C224,425 184,423 163,420l0,181l291,0l0,73M163,353C185,355 212,357 232,357C280,357 325,347 360,323C393,300 415,265 415,213C415,171 401,138 378,114C345,79 290,62 236,62C206,62 183,63 163,67z"
   id="glyph1254" />
<glyph
   unicode="В"
   horiz-adv-x="542"
   d="M76,2C105,-2 151,-6 211,-6C321,-6 397,14 444,57C478,90 501,134 501,192C501,292 426,345 362,361l0,2C433,389 476,446 476,511C476,564 455,604 420,630C378,664 322,679 235,679C174,679 114,673 76,665M163,606C177,609 200,612 240,612C328,612 388,581 388,502C388,437 334,389 242,389l-79,0M163,323l72,0C330,323 409,285 409,193C409,95 326,62 236,62C205,62 180,63 163,66z"
   id="glyph1256" />
<glyph
   unicode="Г"
   horiz-adv-x="433"
   d="M76,674l0,-674l87,0l0,601l271,0l0,73z"
   id="glyph1258" />
<glyph
   unicode="Д"
   horiz-adv-x="630"
   d="M160,674l0,-171C160,387 151,297 128,219C112,166 87,117 62,71l-51,-2l6,-231l68,0l6,162l425,0l6,-162l68,0l6,231l-59,2l0,603M241,602l209,0l0,-530l-298,0C172,108 193,153 207,200C231,276 241,367 241,475z"
   id="glyph1260" />
<glyph
   unicode="Е"
   horiz-adv-x="492"
   d="M425,388l-262,0l0,213l277,0l0,73l-364,0l0,-674l379,0l0,73l-292,0l0,243l262,0z"
   id="glyph1262" />
<glyph
   unicode="Ж"
   horiz-adv-x="801"
   d="M21,674l239,-310C155,351 112,285 78,190C56,127 40,62 11,0l89,0C122,45 138,110 154,158C186,250 220,309 328,309l30,0l0,-309l85,0l0,309l29,0C580,309 614,250 645,158C662,110 678,45 701,0l89,0C762,62 746,127 723,191C690,287 647,353 541,364l239,310l-102,0l-208,-299l-27,0l0,299l-85,0l0,-299l-26,0l-209,299z"
   id="glyph1264" />
<glyph
   unicode="З"
   horiz-adv-x="492"
   d="M74,570C110,593 163,614 214,614C287,614 335,576 335,508C335,439 266,384 177,384l-40,0l0,-66l40,0C263,318 360,289 360,188C360,114 305,60 205,60C150,60 90,80 54,101l-23,-68C82,2 146,-11 207,-11C330,-11 451,45 451,185C451,282 382,344 287,354l0,2C366,374 426,437 426,520C426,624 345,685 228,685C155,685 96,664 50,634z"
   id="glyph1266" />
<glyph
   unicode="И"
   horiz-adv-x="658"
   d="M76,674l0,-674l93,0l211,335C426,410 472,488 505,562l3,-1C501,476 500,396 500,287l0,-287l82,0l0,674l-87,0l-218,-347C228,247 186,174 152,104l-2,1C156,195 158,283 158,390l0,284z"
   id="glyph1268" />
<glyph
   unicode="Й"
   horiz-adv-x="658"
   d="M76,674l0,-674l93,0l211,335C426,410 472,488 505,562l3,-1C501,476 500,396 500,287l0,-287l82,0l0,674l-87,0l-218,-347C228,247 186,174 152,104l-2,1C156,195 158,283 158,390l0,284M201,815C206,749 245,708 327,708C412,708 452,749 457,815l-67,0C386,782 375,753 329,753C282,753 272,784 268,815z"
   id="glyph1270" />
<glyph
   unicode="К"
   horiz-adv-x="542"
   d="M76,674l0,-674l86,0l0,309l28,0C304,309 347,248 378,159C396,106 415,46 439,0l94,0C503,60 484,122 459,191C424,282 381,350 270,365l255,309l-105,0l-231,-299l-27,0l0,299z"
   id="glyph1272" />
<glyph
   unicode="Л"
   horiz-adv-x="594"
   d="M123,674l0,-284C123,282 118,151 64,98C48,83 20,67 -7,62l11,-70C43,-8 82,8 107,24C202,88 208,251 208,397l0,204l223,0l0,-601l88,0l0,674z"
   id="glyph1274" />
<glyph
   unicode="М"
   horiz-adv-x="804"
   d="M661,0l85,0l-42,674l-111,0l-120,-326C443,263 419,189 402,121l-3,0C382,191 359,265 331,348l-115,326l-111,0l-47,-674l83,0l18,289C165,390 170,503 172,587l2,0C193,507 220,420 252,325l109,-321l66,0l119,327C580,424 608,508 631,587l3,0C633,503 639,390 644,296z"
   id="glyph1276" />
<glyph
   unicode="Н"
   horiz-adv-x="652"
   d="M76,674l0,-674l87,0l0,316l326,0l0,-316l88,0l0,674l-88,0l0,-282l-326,0l0,282z"
   id="glyph1278" />
<glyph
   unicode="О"
   horiz-adv-x="689"
   d="M349,685C169,685 36,545 36,331C36,127 161,-11 339,-11C511,-11 652,112 652,344C652,544 533,685 349,685M345,614C490,614 560,474 560,340C560,187 482,60 344,60C207,60 129,189 129,333C129,481 201,614 345,614z"
   id="glyph1280" />
<glyph
   unicode="П"
   horiz-adv-x="639"
   d="M76,674l0,-674l87,0l0,601l313,0l0,-601l87,0l0,674z"
   id="glyph1282" />
<glyph
   unicode="Р"
   horiz-adv-x="532"
   d="M76,0l87,0l0,270C183,265 207,264 233,264C318,264 393,289 439,338C473,373 491,421 491,482C491,542 469,591 432,623C392,659 329,679 243,679C173,679 118,673 76,666M163,603C178,607 207,610 245,610C341,610 404,567 404,478C404,385 340,334 235,334C206,334 182,336 163,341z"
   id="glyph1284" />
<glyph
   unicode="С"
   horiz-adv-x="580"
   d="M529,91C494,74 440,63 387,63C223,63 128,169 128,334C128,511 233,612 391,612C447,612 494,600 527,584l21,71C525,667 472,685 388,685C179,685 36,542 36,331C36,110 179,-10 369,-10C451,-10 515,6 547,22z"
   id="glyph1286" />
<glyph
   unicode="Т"
   horiz-adv-x="497"
   d="M204,0l88,0l0,600l206,0l0,74l-499,0l0,-74l205,0z"
   id="glyph1288" />
<glyph
   unicode="У"
   horiz-adv-x="521"
   d="M2,674l224,-454C234,204 236,194 229,179C208,131 167,64 97,63C82,63 72,64 65,66l-9,-71C67,-9 83,-11 105,-11C165,-11 214,17 258,72C305,135 347,238 384,328l141,346l-92,0l-105,-284C311,342 298,303 286,268l-2,0C268,308 252,347 235,387l-134,287z"
   id="glyph1290" />
<glyph
   unicode="Ф"
   horiz-adv-x="725"
   d="M322,701l0,-60C192,633 36,554 36,333C36,120 179,45 320,36l0,-63l84,0l0,63C547,44 689,125 689,337C689,549 547,635 405,641l0,60M321,98C222,108 126,176 126,337C126,512 233,573 321,578M404,578C501,573 599,511 599,338C599,171 501,106 404,98z"
   id="glyph1292" />
<glyph
   unicode="Х"
   horiz-adv-x="571"
   d="M546,0l-210,346l205,328l-100,0l-92,-158C324,473 307,442 288,402l-3,0C267,438 248,472 223,516l-89,158l-101,0l198,-333l-206,-341l100,0l81,148C241,207 260,243 279,282l2,0C302,243 324,206 359,149l86,-149z"
   id="glyph1294" />
<glyph
   unicode="Ц"
   horiz-adv-x="652"
   d="M76,674l0,-674l462,0l6,-162l69,0l6,231l-59,2l0,603l-88,0l0,-601l-309,0l0,601z"
   id="glyph1296" />
<glyph
   unicode="Ч"
   horiz-adv-x="597"
   d="M71,674l0,-227C71,282 181,244 270,244C329,244 385,259 432,286l2,0l0,-286l88,0l0,674l-88,0l0,-320C399,332 348,316 301,316C206,316 158,368 158,460l0,214z"
   id="glyph1298" />
<glyph
   unicode="Ш"
   horiz-adv-x="847"
   d="M76,674l0,-674l696,0l0,674l-87,0l0,-601l-218,0l0,601l-86,0l0,-601l-219,0l0,601z"
   id="glyph1300" />
<glyph
   unicode="Щ"
   horiz-adv-x="864"
   d="M76,674l0,-674l675,0l5,-162l69,0l6,231l-59,2l0,603l-87,0l0,-601l-218,0l0,601l-86,0l0,-601l-219,0l0,601z"
   id="glyph1302" />
<glyph
   unicode="Ъ"
   horiz-adv-x="631"
   d="M-2,674l0,-72l173,0l0,-600C200,-2 246,-6 305,-6C395,-6 484,14 540,73C572,107 592,154 592,217C592,364 469,427 339,427C313,427 278,425 258,422l0,252M258,353C279,356 305,358 328,358C416,358 500,318 500,213C500,111 424,62 327,62C299,62 277,63 258,67z"
   id="glyph1304" />
<glyph
   unicode="Ы"
   horiz-adv-x="746"
   d="M76,674l0,-672C105,-2 151,-6 211,-6C302,-6 396,15 451,73C483,108 503,154 503,216C503,366 382,427 243,427C221,427 183,425 163,422l0,252M163,353C174,355 200,358 232,358C322,358 412,318 412,213C412,111 329,62 233,62C203,62 181,63 163,67M578,674l0,-674l88,0l0,674z"
   id="glyph1306" />
<glyph
   unicode="Ь"
   horiz-adv-x="545"
   d="M76,674l0,-672C105,-2 151,-6 212,-6C305,-6 399,15 454,73C486,108 506,154 506,217C506,366 384,427 246,427C223,427 183,425 163,422l0,252M163,353C185,356 212,358 234,358C330,358 415,318 415,212C415,109 332,62 235,62C205,62 183,63 163,67z"
   id="glyph1308" />
<glyph
   unicode="Э"
   horiz-adv-x="568"
   d="M123,310l315,0C432,170 343,62 194,62C144,62 88,75 49,93l-19,-69C78,2 139,-11 206,-11C385,-11 531,115 531,336C531,532 423,685 211,685C147,685 89,667 41,646l21,-67C105,598 152,613 206,613C345,613 426,510 437,380l-314,0z"
   id="glyph1310" />
<glyph
   unicode="Ю"
   horiz-adv-x="867"
   d="M76,674l0,-674l87,0l0,310l98,0C268,113 378,-11 541,-11C701,-11 831,110 831,344C831,544 725,685 550,685C391,685 281,571 263,383l-100,0l0,291M544,59C418,59 347,191 347,333C347,479 412,615 546,615C679,615 742,474 742,340C742,187 672,59 544,59z"
   id="glyph1312" />
<glyph
   unicode="Я"
   horiz-adv-x="543"
   d="M108,0C118,18 123,32 130,49C154,113 173,212 219,259C243,283 274,292 316,292l64,0l0,-292l87,0l0,665C423,674 363,679 306,679C221,679 155,661 113,627C75,596 51,549 51,490C51,398 117,338 200,324l0,-3C180,315 160,303 144,287C89,232 71,138 42,61C34,39 25,18 15,0M380,359C363,358 335,358 306,358C211,358 139,405 139,486C139,579 212,612 298,612C337,612 365,607 380,604z"
   id="glyph1314" />
<glyph
   unicode="а"
   horiz-adv-x="482"
   d="M421,0C415,33 413,74 413,116l0,181C413,394 377,495 229,495C168,495 110,478 70,452l20,-58C124,416 171,430 216,430C315,430 326,358 326,318l0,-10C139,309 35,245 35,128C35,58 85,-11 183,-11C252,-11 304,23 331,61l3,0l7,-61M328,163C328,154 326,144 323,135C309,94 269,54 206,54C161,54 123,81 123,138C123,232 232,249 328,247z"
   id="glyph1316" />
<glyph
   unicode="б"
   horiz-adv-x="528"
   d="M443,721C410,709 362,701 323,695C229,679 162,648 115,581C63,513 40,423 40,313C40,152 96,-11 266,-11C408,-11 490,87 490,245C490,399 403,484 284,484C215,484 147,445 116,375l-3,0C117,426 135,491 166,535C203,588 260,614 338,626C370,631 414,639 439,648M401,238C401,149 365,55 268,55C172,55 133,170 133,250C133,289 141,324 157,353C177,392 214,419 266,419C370,419 401,317 401,238z"
   id="glyph1318" />
<glyph
   unicode="в"
   horiz-adv-x="500"
   d="M71,0C97,-2 153,-6 207,-6C302,-6 462,10 462,137C462,207 410,247 339,257l0,2C394,271 440,308 440,368C440,476 306,489 225,489C168,489 105,484 71,478M155,424C176,426 194,428 223,428C311,428 353,405 353,357C353,300 286,281 221,281l-66,0M154,223l64,0C302,223 372,208 372,138C372,68 284,54 225,54C197,54 179,55 154,58z"
   id="glyph1320" />
<glyph
   unicode="г"
   horiz-adv-x="385"
   d="M71,484l0,-484l87,0l0,413l210,0l0,71z"
   id="glyph1322" />
<glyph
   unicode="д"
   horiz-adv-x="530"
   d="M125,484l0,-126C125,290 116,225 97,165C86,130 70,97 49,66l-41,-1l4,-219l69,0l4,154l335,0l4,-154l69,0l5,219l-50,1l0,418M203,417l159,0l0,-350l-223,0C154,94 168,124 178,157C194,211 203,273 203,337z"
   id="glyph1324" />
<glyph
   unicode="е"
   horiz-adv-x="501"
   d="M462,226C463,235 465,249 465,267C465,356 423,495 265,495C124,495 38,380 38,234C38,88 127,-10 276,-10C353,-10 406,6 437,20l-15,63C389,69 351,58 288,58C200,58 124,107 122,226M123,289C130,350 169,432 258,432C357,432 381,345 380,289z"
   id="glyph1326" />
<glyph
   unicode="ж"
   horiz-adv-x="667"
   d="M13,484l192,-220C132,256 89,213 59,135C42,90 26,39 6,0l85,0C108,30 121,68 137,110C167,189 208,214 276,214l16,0l0,-214l84,0l0,214l15,0C454,214 499,190 529,111C543,69 557,29 573,0l88,0C641,38 625,89 608,136C579,213 536,256 463,264l191,220l-101,0l-160,-211l-17,0l0,211l-84,0l0,-211l-18,0l-160,211z"
   id="glyph1328" />
<glyph
   unicode="з"
   horiz-adv-x="431"
   d="M113,221l44,0C230,221 298,203 298,138C298,90 252,55 179,55C133,55 86,69 51,88l-23,-59C71,5 128,-10 185,-10C287,-10 394,29 394,134C394,205 334,249 262,255l0,2C316,268 371,307 371,367C371,461 281,494 207,494C151,494 95,480 46,450l22,-54C102,417 146,430 185,430C240,430 279,403 279,360C279,315 229,281 155,281l-42,0z"
   id="glyph1330" />
<glyph
   unicode="и"
   horiz-adv-x="554"
   d="M71,484l0,-484l101,0C224,85 277,178 323,253C351,302 372,341 403,403l3,0C402,325 400,284 400,205l0,-205l84,0l0,484l-103,0l-151,-250C198,178 181,144 152,85l-3,1C153,155 154,203 154,280l0,204z"
   id="glyph1332" />
<glyph
   unicode="й"
   horiz-adv-x="554"
   d="M71,484l0,-484l101,0C224,85 277,178 323,253C351,302 372,341 403,403l3,0C402,325 400,284 400,205l0,-205l84,0l0,484l-103,0l-151,-250C198,178 181,144 152,85l-3,1C153,155 154,203 154,280l0,204M147,681C151,612 185,557 273,557C350,557 402,599 406,681l-63,0C338,637 318,605 275,605C235,605 214,638 211,681z"
   id="glyph1334" />
<glyph
   unicode="к"
   horiz-adv-x="479"
   d="M73,484l0,-484l87,0l0,213l17,0C259,213 304,177 337,99C352,59 369,21 382,0l92,0C452,39 435,86 422,118C384,205 337,257 259,265l211,219l-107,0l-182,-210l-21,0l0,210z"
   id="glyph1336" />
<glyph
   unicode="л"
   horiz-adv-x="507"
   d="M100,484l0,-195C100,181 95,113 50,80C38,70 19,63 2,60l9,-69C56,-9 83,2 107,21C170,62 183,153 183,289l0,126l166,0l0,-415l87,0l0,484z"
   id="glyph1338" />
<glyph
   unicode="м"
   horiz-adv-x="639"
   d="M42,0l81,0l12,229C138,282 141,346 143,403l4,0C159,358 180,288 195,242l86,-239l64,0l93,244C465,321 478,360 491,404l3,0C496,345 500,283 503,231l11,-231l84,0l-34,484l-109,0l-78,-211C358,220 331,143 320,107l-2,0C307,145 286,204 274,240l-88,244l-108,0z"
   id="glyph1340" />
<glyph
   unicode="н"
   horiz-adv-x="546"
   d="M71,484l0,-484l87,0l0,219l230,0l0,-219l87,0l0,484l-87,0l0,-195l-230,0l0,195z"
   id="glyph1342" />
<glyph
   unicode="о"
   horiz-adv-x="549"
   d="M278,495C144,495 38,400 38,238C38,85 139,-11 270,-11C387,-11 511,67 511,246C511,394 417,495 278,495M276,429C380,429 421,325 421,243C421,134 358,55 274,55C188,55 127,135 127,241C127,333 172,429 276,429z"
   id="glyph1344" />
<glyph
   unicode="п"
   horiz-adv-x="541"
   d="M71,484l0,-484l87,0l0,414l225,0l0,-414l88,0l0,484z"
   id="glyph1346" />
<glyph
   unicode="р"
   horiz-adv-x="569"
   d="M73,-198l87,0l0,263l2,0C191,17 247,-11 311,-11C425,-11 531,75 531,249C531,396 443,495 326,495C247,495 190,460 154,401l-2,0l-4,83l-79,0C71,438 73,388 73,326M160,280C160,292 163,305 166,316C183,382 239,425 299,425C392,425 443,342 443,245C443,134 389,58 296,58C233,58 180,100 164,161C162,172 160,184 160,197z"
   id="glyph1348" />
<glyph
   unicode="с"
   horiz-adv-x="448"
   d="M403,84C378,73 345,60 295,60C199,60 127,129 127,241C127,342 187,424 298,424C346,424 379,413 400,401l20,68C396,481 350,494 298,494C140,494 38,386 38,237C38,89 133,-10 279,-10C344,-10 395,6 418,18z"
   id="glyph1350" />
<glyph
   unicode="т"
   horiz-adv-x="411"
   d="M11,484l0,-70l151,0l0,-414l87,0l0,414l151,0l0,70z"
   id="glyph1352" />
<glyph
   unicode="у"
   horiz-adv-x="471"
   d="M9,484l179,-446C192,27 194,20 194,15C194,10 191,3 187,-6C167,-51 137,-85 113,-104C87,-126 58,-140 36,-147l22,-74C80,-217 123,-202 166,-164C226,-112 269,-27 332,139l132,345l-93,0l-96,-284C263,165 253,128 244,99l-2,0C234,128 222,166 211,198l-106,286z"
   id="glyph1354" />
<glyph
   unicode="ф"
   horiz-adv-x="641"
   d="M281,710l0,-217C145,482 38,398 38,238C38,87 141,-1 281,-10l0,-188l80,0l0,189C496,0 604,84 604,243C604,394 502,483 361,493l0,217M281,51C185,63 125,141 125,241C125,340 183,420 281,433M361,433C458,419 517,343 517,243C517,144 458,64 361,51z"
   id="glyph1356" />
<glyph
   unicode="х"
   horiz-adv-x="463"
   d="M16,484l164,-237l-172,-247l97,0l70,109C193,138 210,164 226,193l2,0C245,164 261,137 280,109l71,-109l100,0l-170,250l165,234l-95,0l-68,-103C267,355 251,330 235,301l-3,0C216,328 201,353 183,380l-69,104z"
   id="glyph1358" />
<glyph
   unicode="ц"
   horiz-adv-x="550"
   d="M71,484l0,-484l370,0l4,-154l68,0l5,219l-50,1l0,418l-87,0l0,-415l-223,0l0,415z"
   id="glyph1360" />
<glyph
   unicode="ч"
   horiz-adv-x="515"
   d="M65,484l0,-169C65,204 132,157 224,157C270,157 322,172 355,194l2,0l0,-194l87,0l0,484l-87,0l0,-228C330,236 291,222 253,222C176,222 153,264 153,325l0,159z"
   id="glyph1362" />
<glyph
   unicode="ш"
   horiz-adv-x="738"
   d="M71,484l0,-484l597,0l0,484l-87,0l0,-415l-169,0l0,415l-86,0l0,-415l-169,0l0,415z"
   id="glyph1364" />
<glyph
   unicode="щ"
   horiz-adv-x="749"
   d="M71,484l0,-484l569,0l4,-154l68,0l5,219l-49,1l0,418l-87,0l0,-415l-169,0l0,415l-86,0l0,-415l-169,0l0,415z"
   id="glyph1366" />
<glyph
   unicode="ъ"
   horiz-adv-x="579"
   d="M14,484l0,-69l143,0l0,-413C194,-2 239,-5 287,-5C358,-5 439,5 492,50C523,76 543,111 543,162C543,287 428,325 328,325C298,325 268,324 245,321l0,163M244,257C265,260 284,262 306,262C376,262 455,242 455,159C455,82 383,57 310,57C281,57 262,59 244,62z"
   id="glyph1368" />
<glyph
   unicode="ы"
   horiz-adv-x="665"
   d="M71,484l0,-482C107,-2 152,-5 201,-5C265,-5 343,6 396,51C427,77 446,112 446,163C446,282 341,325 237,325C205,325 177,323 158,319l0,165M158,257C176,260 198,262 223,262C289,262 359,238 359,160C359,85 286,57 219,57C194,57 175,59 158,61M507,484l0,-484l87,0l0,484z"
   id="glyph1370" />
<glyph
   unicode="ь"
   horiz-adv-x="498"
   d="M71,484l0,-482C107,-2 152,-5 201,-5C272,-5 358,6 411,51C442,77 462,112 462,162C462,291 347,325 238,325C212,325 178,324 158,320l0,164M158,257C178,260 198,262 221,262C286,262 374,244 374,160C374,79 289,57 223,57C194,57 175,59 158,61z"
   id="glyph1372" />
<glyph
   unicode="э"
   horiz-adv-x="464"
   d="M93,216l243,0C328,120 263,59 166,59C109,59 68,75 45,85l-17,-63C67,2 117,-11 169,-11C333,-11 426,99 426,240C426,319 401,383 360,426C317,471 254,495 184,495C133,495 77,481 35,457l19,-57C80,412 119,427 170,427C278,427 329,359 337,276l-244,0z"
   id="glyph1374" />
<glyph
   unicode="ю"
   horiz-adv-x="705"
   d="M71,484l0,-484l86,0l0,213l81,0C248,75 333,-11 449,-11C571,-11 667,89 667,246C667,395 581,495 455,495C339,495 255,408 240,280l-83,0l0,204M450,54C365,54 322,145 322,239C322,337 367,429 452,429C538,429 579,335 579,244C579,152 539,54 450,54z"
   id="glyph1376" />
</font>
</defs>
</svg>
